<?xml version="1.0" encoding="UTF-8"?>
<svg id="Layer_1" data-name="Layer 1" xmlns="http://www.w3.org/2000/svg" viewBox="0 0 826.11 258.93">
  <defs>
    <style>
      .cls-1 {
        fill: none;
        opacity: .7;
      }

      .cls-2 {
        fill: #fff;
      }
    </style>
  </defs>
  <g class="cls-1">
    <g>
      <path class="cls-2" d="m376.05,231.1h5.64c-1.74,2.27-3.23,4.04-4.48,5.32-7.03,7.03-15.56,10.54-25.6,10.54s-18.58-3.51-25.6-10.54c-7.03-7.03-10.54-15.48-10.54-25.37s3.51-18.34,10.54-25.37c7.03-7.03,15.56-10.54,25.6-10.54s18.61,3.53,25.69,10.59c1.21,1.24,2.67,3,4.38,5.27h-5.64c-.84-.96-1.57-1.76-2.19-2.38-6.19-6.19-13.6-9.28-22.24-9.28s-16.05,3.09-22.22,9.26c-6.17,6.17-9.26,13.66-9.26,22.45s3.09,16.28,9.26,22.45c6.17,6.17,13.58,9.26,22.22,9.26s16.06-3.09,22.24-9.28c.62-.62,1.35-1.41,2.19-2.38Z"/>
      <path class="cls-2" d="m424.04,231.52c-2.64.96-5.8,1.44-9.47,1.44h-24.48v13.99h-4.66v-71.82h29.15c8.11,0,15,2.83,20.66,8.49,5.66,5.66,8.49,12.47,8.49,20.43s-2.83,14.77-8.49,20.42c-2.33,2.33-4.54,4.01-6.62,5.04l16.28,17.44h-6.39l-14.46-15.44Zm7.81-9.96c4.8-4.8,7.2-10.64,7.2-17.51s-2.4-12.71-7.2-17.51c-4.8-4.8-10.56-7.21-17.28-7.21h-24.48v49.43h24.48c6.71,0,12.47-2.4,17.28-7.2Z"/>
      <path class="cls-2" d="m453.04,202.66v40.1h53.63v4.2h-58.29v-71.82h58.29v4.2h-53.63v19.12h34.98v4.2h-34.98Z"/>
      <path class="cls-2" d="m569.63,246.96h-4.66v-23.32h-48.96v23.32h-4.66v-42.9c0-7.96,2.83-14.77,8.49-20.43,5.66-5.66,12.54-8.49,20.66-8.49s15,2.83,20.66,8.49c5.66,5.66,8.49,12.47,8.49,20.43v42.9Zm-4.66-27.51v-15.39c0-6.87-2.4-12.71-7.2-17.51-4.8-4.8-10.56-7.21-17.28-7.21s-12.47,2.4-17.28,7.21c-4.8,4.8-7.21,10.64-7.21,17.51v15.39h48.96Z"/>
      <path class="cls-2" d="m601.1,179.34h-26.81v-4.2h58.29v4.2h-26.81v67.62h-4.66v-67.62Z"/>
      <path class="cls-2" d="m641.91,246.96h-4.66v-71.82h4.66v71.82Z"/>
      <path class="cls-2" d="m673.71,246.96l-27.56-71.82h4.76l24.81,65.24,24.81-65.24h4.76l-27.56,71.82h-4.01Z"/>
      <path class="cls-2" d="m714.19,202.66v40.1h53.63v4.2h-58.29v-71.82h58.29v4.2h-53.63v19.12h34.98v4.2h-34.98Z"/>
      <path class="cls-2" d="m791.13,179.34c-2.52,0-4.7.93-6.55,2.77-1.85,1.85-2.77,4.11-2.77,6.79s.92,4.93,2.77,6.78c1.85,1.85,4.03,2.77,6.55,2.77h10.49c6.81,0,12.59,2.38,17.35,7.13,4.76,4.76,7.13,10.46,7.13,17.11s-2.38,12.36-7.13,17.11c-4.76,4.76-10.54,7.14-17.35,7.14h-4.66c-6.81,0-12.59-2.38-17.35-7.14-4.76-4.76-7.13-10.77-7.13-18.05h4.66c0,6.19,1.95,11.23,5.85,15.13,3.9,3.9,8.56,5.85,13.97,5.85h4.66c5.41,0,10.06-1.95,13.97-5.85,3.9-3.9,5.85-8.63,5.85-14.2s-1.95-10.3-5.85-14.2c-3.9-3.9-8.56-5.85-13.97-5.85h-10.49c-3.92,0-7.23-1.35-9.93-4.06-2.7-2.71-4.06-5.94-4.06-9.7s1.35-7,4.06-9.7c2.7-2.7,6.02-4.06,9.93-4.06h16.32c3.92,0,7.23,1.35,9.93,4.06,2.7,2.7,4.06,6.25,4.06,10.63h-4.66c0-3.3-.93-5.87-2.77-7.72-1.85-1.85-4.03-2.77-6.55-2.77h-16.32Z"/>
      <g>
        <g>
          <path class="cls-2" d="m3.83,129.46h37.17c1.76,0,3.22,1.14,3.25,2.53.19,6.47,1.07,12.91,2.69,19.17l29.58-7.66c1.71-.43,3.29-.13,3.51.67.2.81-.93,1.9-2.59,2.45l-29.08,9.39c2,6.15,4.68,12.07,7.98,17.63.69,1.2.14,2.9-1.35,3.86l-31.76,20.25c-1.47.95-3.64.3-4.7-1.53-1.07-1.83-.66-4.02.88-4.87l30.1-16.8c-2.94-5.27-5.37-10.83-7.22-16.58l-14.65,4.73c-1.68.55-3.51-.39-3.98-2.14-.5-1.74.49-3.51,2.2-3.94l14.91-3.86c-1.51-5.85-2.44-11.84-2.79-17.87l-33.93,1.96c-.88.05-1.71-.32-2.32-.97-.6-.65-.98-1.59-1.01-2.63-.06-2.1,1.35-3.8,3.1-3.79Z"/>
          <g>
            <path class="cls-2" d="m104.6,174.92c.39.22.55.76.51,1.44-.02.67-.25,1.49-.68,2.31l-33.6,63.18c-.43.82-1.22,1.36-2.15,1.55-.92.18-1.98,0-2.95-.55-1.94-1.11-2.71-3.31-1.72-4.9l37.44-60.99c.97-1.56,2.39-2.49,3.15-2.05Z"/>
            <path class="cls-2" d="m98.63,170.94c.67.57.42,2.17-.67,3.69l-41.92,57.99c-1.07,1.5-3.45,1.71-5.19.31-6.68-5.15-12.86-10.94-18.42-17.28-1.47-1.68-1.47-4.01-.04-5.18,1.44-1.17,3.7-.83,5.08.75,4.45,5.05,9.29,9.74,14.48,14.03l43.28-52.71c1.18-1.43,2.72-2.15,3.41-1.6Z"/>
          </g>
          <path class="cls-2" d="m180.8,156.95c-1.55-.26-3.15-1.41-3.68-2.5-.21-.41-.23-.76-.1-1.02.22-.44.89-.64,1.85-.51,11.16,1.49,22.93.91,34.69-1.91-8.86-8.21-18.83-14.46-29.26-18.63-.88-.36-1.38-.86-1.36-1.36,0-.3.19-.6.58-.87,1.02-.7,3.01-.92,4.44-.39,11.31,4.19,22.18,10.73,31.84,19.54,12.51-3.83,24.87-10.21,36.32-18.95,1.48-1.12,3.46-.7,4.4,1.06.94,1.76.51,4.14-1.03,5.22-11.13,7.92-22.99,13.72-34.94,17.26,8.67,8.94,16.15,19.82,21.91,32.25.78,1.69.01,4.01-1.67,5.08-1.72,1.05-3.66.43-4.37-1.26-5.59-13.29-13.25-24.93-22.27-34.39-12.75,2.94-25.43,3.34-37.36,1.39Z"/>
          <path class="cls-2" d="m111.63,183.56c0-1.54.87-3.34,1.85-4.05.37-.27.7-.34.98-.24.46.18.78.76.81,1.72.36,11.24,2.9,22.76,7.63,33.89,6.63-10.1,11.24-20.94,13.65-31.9.2-.94.62-1.49,1.11-1.55.3-.04.62.11.94.45.84.85,1.38,2.77,1.1,4.3-2.23,11.84-6.99,23.65-14.09,34.62,5.84,11.71,14.08,22.87,24.61,32.73,1.35,1.24,1.26,3.29-.33,4.53-1.58,1.21-4.03,1.13-5.34-.19-9.64-9.7-17.22-20.47-22.68-31.68-7.39,10.03-16.86,19.22-28.18,26.95-1.56,1.1-3.96.68-5.29-.82-1.33-1.5-1.05-3.5.52-4.5,12.2-7.73,22.39-17.19,30.24-27.65-5-12.09-7.5-24.56-7.54-36.63Z"/>
          <path class="cls-2" d="m167.07,250.89c-.27-3.98.12-7.99.96-11.77.86-3.75,2.11-7.45,3.71-10.79,3.18-6.8,7.44-12.57,12.92-17.04l-23.53-35.49c-.49-.74-.78-1.5-.86-2.12-.09-.65.01-1.17.36-1.41.68-.49,2.11.27,3.17,1.66l25.57,34.06c6.01-3.65,12.87-5.71,20.33-6.43,7.37-.71,15.38-.05,22.7,3.09,1.63.7,2.22,2.78,1.2,4.61-1.01,1.84-3.12,2.72-4.72,1.91-5.8-2.89-12.24-3.69-18.4-3.27-6.2.43-12.04,2.17-17.26,5.22l11.11,14.79c1.07,1.41.59,3.52-1.09,4.71-.83.59-1.79.83-2.66.73-.88-.12-1.66-.56-2.15-1.29l-10.22-15.42c-4.63,3.94-8.25,8.86-10.74,14.55-.62,1.41-1.17,2.88-1.62,4.39-.46,1.51-.85,3.01-1.12,4.57-.56,3.11-.7,6.36-.3,9.59.23,1.75-1.3,3.47-3.39,3.82-2.08.36-3.86-.91-3.97-2.67Z"/>
        </g>
        <g>
          <path class="cls-2" d="m257.19,129.46h-37.17c-1.76,0-3.22-1.14-3.25-2.53-.19-6.47-1.07-12.91-2.69-19.17l-29.58,7.66c-1.71.43-3.29.13-3.51-.67-.2-.81.93-1.9,2.59-2.45l29.08-9.39c-2-6.15-4.68-12.07-7.98-17.63-.69-1.2-.14-2.9,1.35-3.86l31.76-20.25c1.47-.95,3.64-.3,4.7,1.53,1.07,1.83.66,4.02-.88,4.87l-30.1,16.8c2.94,5.27,5.37,10.83,7.22,16.58l14.65-4.73c1.68-.55,3.51.39,3.98,2.14.5,1.74-.49,3.51-2.2,3.94l-14.91,3.86c1.51,5.85,2.44,11.84,2.79,17.87l33.93-1.96c.88-.05,1.71.32,2.32.97.6.65.98,1.59,1.01,2.63.06,2.1-1.35,3.8-3.1,3.79Z"/>
          <g>
            <path class="cls-2" d="m156.42,84.01c-.39-.22-.55-.76-.51-1.44.02-.67.25-1.49.68-2.31l33.6-63.18c.43-.82,1.22-1.36,2.15-1.55.92-.18,1.98,0,2.95.55,1.94,1.11,2.71,3.31,1.72,4.9l-37.44,60.99c-.97,1.56-2.39,2.49-3.15,2.05Z"/>
            <path class="cls-2" d="m162.4,87.99c-.67-.57-.42-2.17.67-3.69l41.92-57.99c1.07-1.5,3.45-1.71,5.19-.31,6.68,5.15,12.86,10.94,18.42,17.28,1.47,1.68,1.47,4.01.04,5.18-1.44,1.17-3.7.83-5.08-.75-4.45-5.05-9.29-9.74-14.48-14.03l-43.28,52.71c-1.18,1.43-2.72,2.15-3.41,1.6Z"/>
          </g>
          <path class="cls-2" d="m80.23,101.97c1.55.26,3.15,1.41,3.68,2.5.21.41.23.76.1,1.02-.22.44-.89.64-1.85.51-11.16-1.49-22.93-.91-34.69,1.91,8.86,8.21,18.83,14.46,29.26,18.63.88.36,1.38.86,1.36,1.36,0,.3-.19.6-.58.87-1.02.7-3.01.92-4.44.39-11.31-4.19-22.18-10.73-31.84-19.54-12.51,3.83-24.87,10.21-36.32,18.95-1.48,1.12-3.46.7-4.4-1.06-.94-1.76-.51-4.14,1.03-5.22,11.13-7.92,22.99-13.72,34.94-17.26-8.67-8.94-16.15-19.82-21.91-32.25-.78-1.69-.01-4.01,1.67-5.08,1.72-1.05,3.66-.43,4.37,1.26,5.59,13.29,13.25,24.93,22.27,34.39,12.75-2.94,25.43-3.34,37.36-1.39Z"/>
          <path class="cls-2" d="m149.39,75.36c0,1.54-.87,3.34-1.85,4.05-.37.27-.7.34-.98.24-.46-.18-.78-.76-.81-1.72-.36-11.24-2.9-22.76-7.63-33.89-6.63,10.1-11.24,20.94-13.65,31.9-.2.94-.62,1.49-1.11,1.55-.3.04-.62-.11-.94-.45-.84-.85-1.38-2.77-1.1-4.3,2.23-11.84,6.99-23.65,14.09-34.62-5.84-11.71-14.08-22.87-24.61-32.73-1.35-1.24-1.26-3.29.33-4.53,1.58-1.21,4.03-1.13,5.34.19,9.64,9.7,17.22,20.47,22.68,31.68,7.39-10.03,16.86-19.22,28.18-26.95,1.56-1.1,3.96-.68,5.29.82,1.33,1.5,1.05,3.5-.52,4.5-12.2,7.73-22.39,17.19-30.24,27.65,5,12.09,7.5,24.56,7.54,36.63Z"/>
          <path class="cls-2" d="m93.95,8.03c.27,3.98-.12,7.99-.96,11.77-.86,3.75-2.11,7.45-3.71,10.79-3.18,6.8-7.44,12.57-12.92,17.04l23.53,35.49c.49.74.78,1.5.86,2.12.09.65-.01,1.17-.36,1.41-.68.49-2.11-.27-3.17-1.66l-25.57-34.06c-6.01,3.65-12.87,5.71-20.33,6.43-7.37.71-15.38.05-22.7-3.09-1.63-.7-2.22-2.78-1.2-4.61,1.01-1.84,3.12-2.72,4.72-1.91,5.8,2.89,12.24,3.69,18.4,3.27,6.2-.43,12.04-2.17,17.26-5.22l-11.11-14.79c-1.07-1.41-.59-3.52,1.09-4.71.83-.59,1.79-.83,2.66-.73.88.12,1.66.56,2.15,1.29l10.22,15.42c4.63-3.94,8.25-8.86,10.74-14.55.62-1.41,1.17-2.88,1.62-4.39.46-1.51.85-3.01,1.12-4.57.56-3.11.7-6.36.3-9.59-.23-1.75,1.3-3.47,3.39-3.82,2.08-.36,3.86.91,3.97,2.67Z"/>
        </g>
      </g>
      <g>
        <path class="cls-2" d="m466.8,137.71s-.05,0-.08,0h0s.05,0,.08,0Z"/>
        <path class="cls-2" d="m503.52,131.83c-12.19,2.11-24.42,4.12-36.72,5.88,12.21-1.53,24.43-3.46,36.72-5.56v-.32Z"/>
        <path class="cls-2" d="m489.09,134.89c-7.27,1.1-14.65,2.21-22.07,3.17l.64.69c7.42-1.2,14.64-2.54,21.43-3.86Z"/>
        <path class="cls-2" d="m503.52,133.48v-.07c-9.86,1.82-19.65,3.59-29.35,5.15-1.73.35-3.42.69-5.14,1.04,11.33-1.47,23.06-3.88,34.49-6.12Z"/>
        <path class="cls-2" d="m474.17,138.56c5.94-1.15,12.26-2.27,19.8-3.59-4.24.63-10.05,1.49-15.92,2.35-3.41.55-6.82,1.08-10.23,1.58l.52.56c1.94-.29,3.89-.58,5.83-.9Z"/>
        <path class="cls-2" d="m531.37,127.19c5.34-1.03,10.58-2.08,15.76-3.2-6.76,1.3-13.52,2.59-20.28,3.89v.13c1.51-.27,3.01-.54,4.52-.82Z"/>
        <path class="cls-2" d="m530.89,126.97c-1.34.24-2.69.48-4.04.73v.14c1.4-.3,2.77-.59,4.04-.86Z"/>
        <path class="cls-2" d="m347.7,120.77c-2.97-1.35-5.93-2.66-8.89-3.93v.42c3.1,1.14,6.22,2.28,8.89,3.51Z"/>
        <path class="cls-2" d="m548.7,123.65l-1.57.34c.53-.1,1.05-.2,1.57-.31v-.04Z"/>
        <path class="cls-2" d="m548.7,123.81v-.08c-.44.11-.51.15,0,.08Z"/>
        <path class="cls-2" d="m355.06,124.05v-.16c-5.44-2.21-10.78-4.41-16.25-6.58v.63c5.38,1.94,10.8,4,16.25,6.11Z"/>
        <path class="cls-2" d="m338.81,112.02V0h-23.33v103.3c.25.06.49.11.75.18,7.56,2.48,15.06,5.42,22.58,8.54Zm-10.07-19.77c-1.65-.43-3.31-.8-4.98-1.12-.79-.56-1.9-1.08-3.22-1.6,2.83.78,5.48,1.81,8.2,2.71Z"/>
        <path class="cls-2" d="m338.81,114.84v-2.49c-7.79-2.99-15.65-5.83-23.33-8.55v3.07c6.4,1.85,12.83,4.03,19.28,6.41,1.35.5,2.7,1.03,4.05,1.55Z"/>
        <path class="cls-2" d="m326.23,113.64c4.18,1.32,8.37,2.78,12.58,4.3v-.63c-.44-.17-.88-.35-1.32-.52.44.16.88.32,1.32.49v-.42c-7.76-3.34-15.52-6.39-23.33-9.02v52.37h23.33v-38.54c-4.71-1.89-9.45-3.75-14.23-5.52-7-2.44-16.13-8.13,1.66-2.49Z"/>
        <path class="cls-2" d="m513.61,131.55c-3.39.63-6.73,1.23-10.09,1.85v.07c3.4-.67,6.77-1.32,10.09-1.93Z"/>
        <path class="cls-2" d="m503.52,135.46v24.74h23.33v-29.97c-3.69.83-7.34,1.66-10.97,2.52-2.71.61-7.28,1.61-12.36,2.71Z"/>
        <path class="cls-2" d="m512.73,126.62c4.73-.63,9.43-1.33,14.12-2.08V0h-23.33v127.79c3.09-.29,6.17-.58,9.22-.95-.09-.05-.7-.05,0-.21Z"/>
        <path class="cls-2" d="m511.86,130.72l-1.73.32,3.44-.63c4.41-.8,8.84-1.6,13.28-2.4v-.13c-.67.13-1.34.26-2.02.39.69-.15,1.35-.29,2.02-.43v-.14c-7.76,1.4-15.53,2.79-23.33,4.13v.32c2.78-.47,5.55-.95,8.34-1.44Z"/>
        <path class="cls-2" d="m409.8,139.79c13.18,2.82,26.6,4.01,39.69,2.56-1.79.11-3.71.16-5.71.18-2,.1-4,.02-6.03-.08-2.04-.06-4.1-.13-6.17-.2-2.07-.08-4.13-.37-6.19-.55-2.05-.24-4.11-.35-6.09-.71-1.98-.37-3.92-.73-5.8-1.08-3.78-.65-7.18-1.82-10.18-2.84,11.41,2.97,23.23,4.98,35.22,5.1,2.96.2,6.07-.04,9.06-.2,2.97-.28,5.96-.5,8.89-.9,3.95-.46,7.89-1.03,11.83-1.62l-.52-.56c-4.35.64-8.7,1.24-13.06,1.71,4.37-.53,8.67-1.18,12.92-1.87l-.64-.69c-.8.1-1.58.23-2.38.32-8.23.95-16.48,2.08-24.82,1.81-15.52-.14-30.92-3.2-45.65-7.84-13.46-4.21-26.35-9.75-39.12-15.35v4.26c5.39,2.17,10.81,4.37,16.3,6.49,12.44,4.81,25.26,9.23,38.44,12.05Z"/>
        <path class="cls-2" d="m454.59,145.88l-6.72,1.09c-2.27.32-4.75.56-7.1.77l-6.93.24-3.7.04-3.67-.24c-2.44-.18-4.9-.34-7.33-.58-4.79-.76-9.68-1.32-14.36-2.48-9.51-1.95-18.61-4.87-27.6-7.96-7.5-2.66-14.83-5.58-22.14-8.53v31.97h132.63l-16.52-17.7c-3.33.72-6.66,1.44-10.02,2.13l-6.57,1.25Z"/>
        <path class="cls-2" d="m367.55,119.41c0-.54-9.03-4.54-3.62-2.6,9.92,3.34,18.18,6.73,25.19,8.96,3.48,1.21,6.66,2.06,9.5,2.65,1.42.3,2.75.55,4,.72,1.26.13,2.43.15,3.52.11.42-.07-.6-.65-2.24-1.45-1.66-.88-3.86-2.04-5.92-3.13-4.11-2.13-7.41-4.41-3.9-3.31,5.84,1.78,16.19,5.3,27.55,7.29,3.26.67,6.67,1.19,10.2,1.81.44.08,1.19.02,2.14-.04,3.07.2,6.24.71,9.07.74,2.79.14,5.76.05,8.5.02,3.22-.08,6.16-.18,8.78-.29l-.29-.31c-.26,0-.49,0-.76.01-.9.12-2.81.2-4.59.46-1.12-.1-2.26-.2-3.45-.31,2.87-.05,5.79-.13,8.73-.24l-8.6-9.21c4.65-2.29,9.57-6.03,14.77-11.23,12.62-12.62,18.93-27.81,18.93-45.56s-6.31-32.94-18.93-45.56c-12.62-12.62-27.98-18.93-46.08-18.93h-65.02v102.78c1.24.55,2.48,1.1,3.72,1.64-.72-.11-.27.36-.27.56-1.15-.57-2.3-1.16-3.45-1.75v11.99l9.2,3.59c1.27.29,2.39.5,3.29.58Zm38.22,4.25c8.13,2.55,16.39,4.4,24.82,5.7v.05c-6.75-.99-14.93-2.62-22.37-5.01-7.46-2.16-14.25-4.63-18.61-5.51-2.35-1.36-5.05-2.87-8.01-4.37,8.04,3.51,16.04,6.51,24.17,9.14Z"/>
        <path class="cls-2" d="m371.29,130.3c.06,0,.12,0,.16,0-5.73-2.13-11.11-4.28-16.39-6.42v.16c5.37,2.08,10.76,4.18,16.23,6.25Z"/>
        <path class="cls-2" d="m355.06,115.29v1.05c3.11.86,6.38,1.82,9.05,2.45-2.86-1.03-5.91-2.23-9.05-3.5Z"/>
        <path class="cls-2" d="m382.42,135.67c2.7.88,5.39,1.78,8.12,2.6-2.82-.85-5.51-1.71-8.12-2.6-4.93-1.62-9.83-3.3-14.62-5.1,9.31,3.41,19.22,7.02,29.84,9.75,10.58,2.75,21.75,4.8,33,5.33,4.15,0,7.9.69,12.32.71,2.23,0,4.57-.08,6.92-.44,2.41-.3,4.96-.78,7.7-1.53-3.49.54-7.11.89-10.74,1.24l-5.71.27-5.55-.18c-1.85-.08-3.71-.11-5.57-.24l-5.54-.64c-1.84-.24-3.71-.39-5.53-.73l-5.47-1.05c-14.59-2.9-28.64-7.66-42.2-12.78-2.02-.03-9.18-3.22-12.7-4.08,8.31,3.65,15.7,6.69,23.84,9.46Z"/>
        <path class="cls-2" d="m466.72,137.72c-5.03.63-10.07,1.18-15.12,1.57-5.06.4-10.21.59-15.26.14-5.08-.15-10.09-.98-15.1-1.64-4.95-1.01-9.93-1.88-14.78-3.29,10.36,3.21,21.69,5.48,33.36,5.7,9.14.11,18.01-1.3,26.89-2.46h0Z"/>
        <path class="cls-2" d="m589.35,109.32l-.03-.02c6.76-2.7,13.54-5.64,20.4-8.59,1.17-.4,2.29-.75,3.35-1.04,1.63-.9,3.41-1.69,4.23-2.14,5.53-2.22,10.26-3.93,15.04-5.57.81-.45,2.27-1.5,4.09-2.25,3.68-1.43,7.24-2.81,10.72-4.16,4.2-1.46,8.51-2.85,12.98-4.03,3.73-.96,7.52-1.81,11.37-2.45-2.32-3.9-5.14-7.59-8.58-11.03-7.07-7.07-13.52-11.37-19.35-12.9,0-.07.9-1.01,2.7-2.81,6.03-6.03,9.05-13.24,9.05-21.64s-3.02-15.6-9.05-21.64c-6.03-6.03-13.42-9.05-22.16-9.05h-75.42v120.58c2.58-.5,5.15-1.02,7.7-1.57,10.05-2.33,23.5-5.54,32.94-9.69Z"/>
        <path class="cls-2" d="m548.7,120.79v.03c.5-.12,1.03-.25,1.58-.38-.54.12-1.07.24-1.58.35Z"/>
        <path class="cls-2" d="m549.77,123.47c1.38-.32,3.28-.76,4.11-.95l-5.18,1.13v.04c.35-.07.71-.14,1.07-.21Z"/>
        <path class="cls-2" d="m633.7,101.91c-7.58,2.65-15.13,5.18-22.58,7.57-8.32,2.73-16.48,5.39-24.65,7.76-8.27,2.38-16.44,3.86-24.41,5.56-4.5.92-8.94,1.83-13.35,2.75v34.67h75.42c15.19,0,28.09-5.3,38.7-15.92,10.61-10.61,15.92-23.34,15.92-38.18,0-6.15-.96-11.92-2.77-17.33-6.54,1.21-13.05,3.06-19.49,5.16-7.57,2.48-15.2,5.36-22.78,7.98Z"/>
        <path class="cls-2" d="m616.8,105.7c3.08-1.08,6.17-2.15,9.15-3.33-2.98,1.08-6.06,2.21-9.15,3.33Z"/>
        <path class="cls-2" d="m548.7,123.81c.34-.05.9-.15,1.84-.32,6.89-1.25,14.04-2.68,21.43-4.31,3.69-.82,7.45-1.65,11.25-2.68,3.75-1.07,7.55-2.16,11.46-3.28,4.06-1.16,9.46-2.96,15.23-5.03,1.62-.43,2.42-.77,3.13-1.13,1.24-.45,2.5-.91,3.76-1.37-1.15.41-2.3.81-3.44,1.21.75-.39,1.52-.81,3.23-1.41-10.65,3.6-21.48,7.31-32.61,10.55-5.6,1.58-11.3,2.75-17,3.96-5.72,1.15-11.45,2.31-17.2,3.47-.44.1-.81.19-1.07.26v.08Z"/>
        <path class="cls-2" d="m807.17,18.93c-12.62-12.62-27.98-18.93-46.08-18.93s-33.46,6.31-46.08,18.93c-12.62,12.62-18.93,27.81-18.93,45.56v14.38c3.95.81,7.81,2.12,11.36,3.84.4.37.43.6.47.84,2.4.8,5.23,2.75,7.12,3.77-.38-.16-.65-.23-.64-.11,6.03,3.57,6.65,4.82,11.4,8.41,1.08.76,2.18,1.37,3.27,2.06.51.38,1.03.76,1.55,1.15,5.03,4.39,10.86,7.44,17.56,10.49,6.65,3.15,13.71,5.6,20.95,7.47,5.75,1.43,7.97,2.05,12.03,2.77-8.61-1.36-17.78-3.45-26.5-6.56-8.75-3.07-16.86-7.28-24.14-11.47,4.07,2.8,8.72,5.56,13.59,7.88,4.86,2.32,9.92,4.18,14.54,5.68,9.29,2.9,16.86,4.08,18.27,4.51.72.19-.63.11-3.27-.26-2.66-.32-6.62-.98-11.1-2-4.48-1.04-9.46-2.52-14.16-4.29-4.69-1.81-9.08-3.89-12.58-5.7q1.8,1.06,3.6,2.11c-1.8-1.06-3.62-2.08-5.3-2.86,3.46,2.35,10.83,5.79,12.91,6.86l-3.61-1.07c4.79,2.44,12.17,4.93,19.71,6.41,6.33,1.29,12.72,1.88,17.75,2.12.91.04,1.83.09,2.73.1-.85-.02-1.77-.06-2.73-.1-12.19-.5-25.51-2.87-38.63-8.44-7.03-2.97-13.88-6.93-20.42-11.31-6.54-4.33-12.87-8.94-19.89-11.38-1.9-.67-3.85-1.17-5.83-1.54v71.97h130.03v-95.71c0-17.75-6.31-32.94-18.93-45.56Z"/>
      </g>
    </g>
  </g>
</svg>