<svg viewBox="0 0 67 67" xml:space="preserve" xmlns="http://www.w3.org/2000/svg" enable-background="new 0 0 67 67"><path d="M44.271 26.578v-.006c.502 0 1.005.01 1.508-.002a1.224 1.224 0 0 0 1.172-1.217v-2.891c0-.691-.547-1.24-1.236-1.241h-2.883a1.234 1.234 0 0 0-1.236 1.243c-.001.955-.004 1.91.003 2.865a1.4 1.4 0 0 0 .073.426c.173.508.639.82 1.209.823h1.39zM35 27.817a6.181 6.181 0 0 0-.142 12.361c3.454.074 6.248-2.686 6.321-6.042.075-3.461-2.717-6.321-6.179-6.319zm-11.954 3.299v13.627c0 .649.562 1.208 1.212 1.208h21.479c.656 0 1.215-.558 1.215-1.212V31.117H44.04a9.544 9.544 0 0 1 .376 4.014 9.317 9.317 0 0 1-1.316 3.803 9.482 9.482 0 0 1-12.725 3.346c-1.579-.886-2.819-2.121-3.685-3.712-1.289-2.374-1.495-4.866-.739-7.452h-2.905zm24.159 18.139c.159-.026.318-.049.475-.083 1.246-.265 2.264-1.304 2.508-2.557.025-.136.045-.273.067-.409V21.794c-.021-.133-.04-.268-.065-.401a3.3 3.3 0 0 0-2.78-2.617c-.058-.008-.113-.021-.17-.03H22.761c-.147.026-.296.047-.441.08a3.29 3.29 0 0 0-2.545 2.766c-.008.058-.02.114-.029.171v24.478c.028.155.05.312.085.466a3.302 3.302 0 0 0 2.77 2.52c.064.007.13.02.195.03h24.409zM3 4h60v60H3V4z" fill-rule="evenodd" clip-rule="evenodd" fill="#bb573e" class="fill-517fa6"></path></svg>