<?xml version="1.0" encoding="UTF-8"?>
<svg id="Layer_1" data-name="Layer 1" xmlns="http://www.w3.org/2000/svg" viewBox="0 0 831.88 260.74">
  <defs>
    <style>
      .cls-1 {
        fill: #bb573e;
      }
    </style>
  </defs>
  <path class="cls-1" d="m378.68,232.72h5.68c-1.75,2.29-3.26,4.07-4.51,5.35-7.08,7.08-15.67,10.61-25.78,10.61s-18.71-3.54-25.78-10.61c-7.08-7.07-10.61-15.59-10.61-25.55s3.54-18.47,10.61-25.54c7.08-7.08,15.67-10.61,25.78-10.61s18.74,3.55,25.87,10.66c1.22,1.25,2.69,3.02,4.41,5.31h-5.68c-.85-.97-1.58-1.77-2.21-2.39-6.23-6.23-13.7-9.35-22.4-9.35s-16.16,3.11-22.38,9.32c-6.21,6.21-9.32,13.75-9.32,22.61s3.11,16.4,9.32,22.61c6.21,6.21,13.67,9.32,22.38,9.32s16.17-3.11,22.4-9.34c.63-.63,1.36-1.42,2.21-2.39Z"/>
  <path class="cls-1" d="m427,233.14c-2.66.97-5.84,1.45-9.53,1.45h-24.65v14.09h-4.69v-72.32h29.35c8.17,0,15.1,2.85,20.8,8.55,5.7,5.7,8.55,12.55,8.55,20.57s-2.85,14.87-8.55,20.57c-2.35,2.35-4.57,4.04-6.67,5.07l16.39,17.56h-6.43l-14.56-15.54Zm7.87-10.03c4.84-4.84,7.25-10.71,7.25-17.63s-2.42-12.8-7.25-17.63c-4.84-4.84-10.64-7.26-17.4-7.26h-24.65v49.78h24.65c6.76,0,12.56-2.42,17.4-7.25Z"/>
  <path class="cls-1" d="m456.21,204.07v40.38h54v4.23h-58.7v-72.32h58.7v4.23h-54v19.25h35.22v4.23h-35.22Z"/>
  <path class="cls-1" d="m573.61,248.68h-4.7v-23.48h-49.31v23.48h-4.69v-43.2c0-8.02,2.85-14.87,8.55-20.57,5.7-5.7,12.63-8.55,20.8-8.55s15.1,2.85,20.8,8.55c5.7,5.7,8.55,12.55,8.55,20.57v43.2Zm-4.7-27.71v-15.5c0-6.92-2.42-12.8-7.25-17.63-4.84-4.84-10.64-7.26-17.4-7.26s-12.56,2.42-17.4,7.26c-4.84,4.84-7.26,10.71-7.26,17.63v15.5h49.31Z"/>
  <path class="cls-1" d="m605.31,180.59h-27v-4.23h58.7v4.23h-27v68.09h-4.7v-68.09Z"/>
  <path class="cls-1" d="m646.39,248.68h-4.69v-72.32h4.69v72.32Z"/>
  <path class="cls-1" d="m678.42,248.68l-27.75-72.32h4.79l24.98,65.7,24.98-65.7h4.79l-27.75,72.32h-4.04Z"/>
  <path class="cls-1" d="m719.18,204.07v40.38h54v4.23h-58.7v-72.32h58.7v4.23h-54v19.25h35.22v4.23h-35.22Z"/>
  <path class="cls-1" d="m796.66,180.59c-2.54,0-4.74.93-6.6,2.79-1.86,1.86-2.79,4.14-2.79,6.83s.93,4.97,2.79,6.83c1.86,1.86,4.06,2.79,6.6,2.79h10.57c6.86,0,12.68,2.4,17.47,7.18,4.79,4.79,7.18,10.54,7.18,17.23s-2.39,12.44-7.18,17.23c-4.79,4.79-10.61,7.19-17.47,7.19h-4.7c-6.86,0-12.68-2.4-17.47-7.19-4.79-4.79-7.18-10.85-7.18-18.17h4.69c0,6.23,1.96,11.31,5.89,15.24,3.93,3.93,8.62,5.89,14.06,5.89h4.7c5.45,0,10.13-1.96,14.06-5.89,3.93-3.93,5.89-8.69,5.89-14.3s-1.97-10.37-5.89-14.3c-3.93-3.93-8.62-5.89-14.06-5.89h-10.57c-3.94,0-7.28-1.36-10-4.09-2.72-2.72-4.09-5.98-4.09-9.77s1.36-7.04,4.09-9.77,6.06-4.09,10-4.09h16.44c3.94,0,7.28,1.36,10,4.09,2.72,2.72,4.09,6.29,4.09,10.71h-4.7c0-3.32-.93-5.91-2.79-7.77-1.86-1.86-4.06-2.79-6.6-2.79h-16.44Z"/>
  <g>
    <g>
      <path class="cls-1" d="m3.86,130.37h37.43c1.77,0,3.24,1.15,3.28,2.55.19,6.51,1.08,13,2.71,19.3l29.79-7.71c1.72-.43,3.31-.13,3.54.68.2.82-.93,1.91-2.61,2.46l-29.28,9.46c2.01,6.19,4.71,12.15,8.04,17.75.7,1.21.14,2.92-1.36,3.89l-31.98,20.39c-1.48.95-3.66.3-4.74-1.54-1.07-1.84-.67-4.05.88-4.9l30.32-16.91c-2.96-5.31-5.4-10.91-7.27-16.69l-14.76,4.77c-1.69.56-3.53-.4-4.01-2.16-.5-1.76.5-3.54,2.21-3.97l15.01-3.89c-1.52-5.89-2.46-11.92-2.8-17.99l-34.17,1.97c-.88.05-1.72-.32-2.34-.98-.6-.66-.99-1.6-1.02-2.65-.06-2.11,1.35-3.82,3.13-3.81Z"/>
      <g>
        <path class="cls-1" d="m105.34,176.14c.39.22.55.76.52,1.45-.02.67-.25,1.5-.69,2.33l-33.83,63.62c-.44.82-1.23,1.37-2.17,1.56-.93.18-1.99,0-2.97-.55-1.96-1.12-2.73-3.33-1.73-4.93l37.7-61.41c.98-1.57,2.4-2.51,3.17-2.07Z"/>
        <path class="cls-1" d="m99.32,172.13c.68.58.42,2.18-.67,3.71l-42.22,58.4c-1.08,1.51-3.47,1.72-5.23.32-6.73-5.19-12.95-11.02-18.55-17.4-1.48-1.7-1.48-4.04-.04-5.22,1.45-1.18,3.73-.84,5.12.76,4.48,5.08,9.36,9.81,14.58,14.13l43.58-53.08c1.19-1.44,2.74-2.17,3.43-1.61Z"/>
      </g>
      <path class="cls-1" d="m182.06,158.05c-1.56-.26-3.17-1.42-3.71-2.51-.21-.42-.23-.77-.1-1.03.22-.44.89-.65,1.86-.52,11.23,1.5,23.09.91,34.93-1.92-8.92-8.27-18.96-14.56-29.46-18.76-.89-.36-1.39-.87-1.37-1.37,0-.3.2-.61.59-.88,1.02-.7,3.03-.93,4.48-.39,11.39,4.22,22.33,10.8,32.06,19.67,12.6-3.86,25.05-10.28,36.57-19.08,1.49-1.13,3.48-.7,4.43,1.06.95,1.77.51,4.17-1.04,5.25-11.21,7.98-23.15,13.82-35.19,17.38,8.73,9.01,16.27,19.96,22.06,32.47.78,1.7.01,4.04-1.68,5.11-1.73,1.06-3.69.43-4.4-1.27-5.63-13.38-13.35-25.1-22.43-34.63-12.84,2.96-25.61,3.37-37.63,1.4Z"/>
      <path class="cls-1" d="m112.41,184.85c0-1.55.88-3.36,1.87-4.07.37-.27.71-.34.99-.24.46.18.79.76.82,1.73.37,11.32,2.92,22.92,7.68,34.13,6.68-10.17,11.32-21.08,13.75-32.13.21-.94.62-1.5,1.12-1.56.3-.04.63.11.95.46.85.86,1.39,2.79,1.11,4.33-2.25,11.93-7.04,23.82-14.18,34.86,5.88,11.79,14.17,23.03,24.78,32.96,1.36,1.25,1.27,3.31-.33,4.56-1.59,1.22-4.05,1.13-5.38-.19-9.71-9.77-17.34-20.62-22.84-31.9-7.44,10.1-16.98,19.35-28.37,27.14-1.57,1.11-3.99.69-5.33-.83-1.34-1.51-1.05-3.53.53-4.53,12.29-7.79,22.55-17.31,30.45-27.84-5.04-12.18-7.56-24.73-7.6-36.88Z"/>
      <path class="cls-1" d="m168.24,252.65c-.27-4.01.12-8.04.97-11.85.87-3.78,2.13-7.5,3.74-10.87,3.2-6.85,7.49-12.66,13.01-17.16l-23.7-35.74c-.49-.74-.78-1.51-.86-2.14-.09-.65.01-1.17.36-1.42.69-.5,2.13.27,3.19,1.67l25.75,34.3c6.05-3.67,12.96-5.75,20.47-6.48,7.42-.71,15.49-.05,22.86,3.11,1.64.7,2.23,2.8,1.21,4.64-1.02,1.85-3.15,2.74-4.76,1.92-5.84-2.91-12.32-3.71-18.53-3.29-6.24.44-12.12,2.19-17.38,5.26l11.18,14.9c1.08,1.42.59,3.54-1.09,4.74-.84.59-1.8.84-2.68.74-.89-.12-1.67-.56-2.16-1.3l-10.3-15.53c-4.66,3.97-8.31,8.92-10.82,14.66-.63,1.42-1.17,2.9-1.63,4.42-.46,1.52-.85,3.03-1.13,4.6-.56,3.13-.71,6.4-.3,9.66.23,1.76-1.31,3.5-3.41,3.85-2.09.37-3.89-.92-4-2.68Z"/>
    </g>
    <g>
      <path class="cls-1" d="m258.99,130.37h-37.43c-1.77,0-3.24-1.15-3.28-2.55-.19-6.51-1.08-13-2.71-19.3l-29.79,7.71c-1.72.43-3.31.13-3.54-.68-.2-.82.93-1.91,2.61-2.46l29.28-9.46c-2.01-6.19-4.71-12.15-8.04-17.75-.7-1.21-.14-2.92,1.36-3.89l31.98-20.39c1.48-.95,3.66-.3,4.74,1.54,1.07,1.84.67,4.05-.88,4.9l-30.32,16.91c2.96,5.31,5.4,10.91,7.27,16.69l14.76-4.77c1.69-.56,3.53.4,4.01,2.16.5,1.76-.5,3.54-2.21,3.97l-15.01,3.89c1.52,5.89,2.46,11.92,2.8,17.99l34.17-1.97c.88-.05,1.72.32,2.34.98.6.66.99,1.6,1.02,2.65.06,2.11-1.35,3.82-3.13,3.81Z"/>
      <g>
        <path class="cls-1" d="m157.51,84.6c-.39-.22-.55-.76-.52-1.45.02-.67.25-1.5.69-2.33l33.83-63.62c.44-.82,1.23-1.37,2.17-1.56.93-.18,1.99,0,2.97.55,1.96,1.12,2.73,3.33,1.73,4.93l-37.7,61.41c-.98,1.57-2.4,2.51-3.17,2.07Z"/>
        <path class="cls-1" d="m163.53,88.61c-.68-.58-.42-2.18.67-3.71l42.22-58.4c1.08-1.51,3.47-1.72,5.23-.32,6.73,5.19,12.95,11.02,18.55,17.4,1.48,1.7,1.48,4.04.04,5.22-1.45,1.18-3.73.84-5.12-.76-4.48-5.08-9.36-9.81-14.58-14.13l-43.58,53.08c-1.19,1.44-2.74,2.17-3.43,1.61Z"/>
      </g>
      <path class="cls-1" d="m80.79,102.69c1.56.26,3.17,1.42,3.71,2.51.21.42.23.77.1,1.03-.22.44-.89.65-1.86.52-11.23-1.5-23.09-.91-34.93,1.92,8.92,8.27,18.96,14.56,29.46,18.76.89.36,1.39.87,1.37,1.37,0,.3-.2.61-.59.88-1.02.7-3.03.93-4.48.39-11.39-4.22-22.33-10.8-32.06-19.67-12.6,3.86-25.05,10.28-36.57,19.08-1.49,1.13-3.48.7-4.43-1.06-.95-1.77-.51-4.17,1.04-5.25,11.21-7.98,23.15-13.82,35.19-17.38-8.73-9.01-16.27-19.96-22.06-32.47-.78-1.7-.01-4.04,1.68-5.11,1.73-1.06,3.69-.43,4.4,1.27,5.63,13.38,13.35,25.1,22.43,34.63,12.84-2.96,25.61-3.37,37.63-1.4Z"/>
      <path class="cls-1" d="m150.44,75.89c0,1.55-.88,3.36-1.87,4.07-.37.27-.71.34-.99.24-.46-.18-.79-.76-.82-1.73-.37-11.32-2.92-22.92-7.68-34.13-6.68,10.17-11.32,21.08-13.75,32.13-.21.94-.62,1.5-1.12,1.56-.3.04-.63-.11-.95-.46-.85-.86-1.39-2.79-1.11-4.33,2.25-11.93,7.04-23.82,14.18-34.86-5.88-11.79-14.17-23.03-24.78-32.96-1.36-1.25-1.27-3.31.33-4.56,1.59-1.22,4.05-1.13,5.38.19,9.71,9.77,17.34,20.62,22.84,31.9,7.44-10.1,16.98-19.35,28.37-27.14,1.57-1.11,3.99-.69,5.33.83,1.34,1.51,1.05,3.53-.53,4.53-12.29,7.79-22.55,17.31-30.45,27.84,5.04,12.18,7.56,24.73,7.6,36.88Z"/>
      <path class="cls-1" d="m94.61,8.09c.27,4.01-.12,8.04-.97,11.85-.87,3.78-2.13,7.5-3.74,10.86-3.2,6.85-7.49,12.66-13.01,17.16l23.7,35.74c.49.74.78,1.51.86,2.14.09.65-.01,1.17-.36,1.42-.69.5-2.13-.27-3.19-1.67l-25.75-34.3c-6.05,3.67-12.96,5.75-20.47,6.48-7.42.71-15.49.05-22.86-3.11-1.64-.7-2.23-2.8-1.21-4.64,1.02-1.85,3.15-2.74,4.76-1.92,5.84,2.91,12.32,3.71,18.53,3.29,6.24-.44,12.12-2.19,17.38-5.26l-11.18-14.9c-1.08-1.42-.59-3.54,1.09-4.74.84-.59,1.8-.84,2.68-.74.89.12,1.67.56,2.16,1.3l10.3,15.53c4.66-3.97,8.31-8.92,10.82-14.66.63-1.42,1.17-2.9,1.63-4.42.46-1.52.85-3.03,1.13-4.6.56-3.13.71-6.4.3-9.66-.23-1.76,1.31-3.5,3.41-3.85,2.09-.37,3.89.92,4,2.68Z"/>
    </g>
  </g>
  <g>
    <path class="cls-1" d="m470.06,138.68s-.05,0-.08,0h0s.05,0,.08,0Z"/>
    <path class="cls-1" d="m507.04,132.75c-12.27,2.12-24.59,4.15-36.98,5.93,12.29-1.54,24.6-3.49,36.98-5.6v-.33Z"/>
    <path class="cls-1" d="m492.51,135.83c-7.32,1.11-14.75,2.23-22.22,3.19l.65.69c7.47-1.21,14.74-2.56,21.58-3.88Z"/>
    <path class="cls-1" d="m507.04,134.41v-.08c-9.93,1.83-19.78,3.62-29.56,5.19-1.74.35-3.45.7-5.17,1.05,11.4-1.48,23.22-3.9,34.73-6.16Z"/>
    <path class="cls-1" d="m477.48,139.53c5.99-1.16,12.34-2.28,19.94-3.62-4.27.63-10.13,1.5-16.03,2.37-3.43.55-6.87,1.09-10.31,1.59l.52.56c1.96-.3,3.91-.59,5.87-.9Z"/>
    <path class="cls-1" d="m535.09,128.08c5.38-1.03,10.65-2.09,15.87-3.23-6.8,1.3-13.61,2.61-20.42,3.92v.13c1.52-.28,3.03-.55,4.56-.82Z"/>
    <path class="cls-1" d="m534.6,127.86c-1.35.25-2.71.49-4.07.73v.14c1.41-.3,2.79-.6,4.07-.87Z"/>
    <path class="cls-1" d="m350.13,121.62c-2.99-1.36-5.97-2.67-8.96-3.96v.43c3.13,1.15,6.26,2.29,8.96,3.53Z"/>
    <path class="cls-1" d="m552.54,124.51l-1.58.34c.53-.1,1.06-.21,1.58-.31v-.04Z"/>
    <path class="cls-1" d="m552.54,124.67v-.08c-.44.11-.52.16,0,.08Z"/>
    <path class="cls-1" d="m357.54,124.91v-.17c-5.48-2.23-10.86-4.44-16.37-6.62v.64c5.42,1.95,10.88,4.03,16.37,6.15Z"/>
    <path class="cls-1" d="m341.18,112.8V0h-23.49v104.03c.25.06.5.11.75.18,7.62,2.5,15.17,5.45,22.74,8.6Zm-10.14-19.91c-1.67-.43-3.33-.8-5.02-1.12-.79-.56-1.91-1.09-3.24-1.61,2.85.78,5.52,1.82,8.25,2.73Z"/>
    <path class="cls-1" d="m341.18,115.65v-2.5c-7.84-3.01-15.76-5.87-23.49-8.61v3.09c6.45,1.86,12.92,4.05,19.42,6.46,1.36.5,2.72,1.04,4.08,1.56Z"/>
    <path class="cls-1" d="m328.51,114.44c4.21,1.33,8.43,2.8,12.66,4.33v-.64c-.44-.18-.88-.35-1.33-.53.44.16.89.33,1.33.49v-.43c-7.82-3.37-15.62-6.43-23.49-9.08v52.74h23.49v-38.81c-4.75-1.91-9.51-3.78-14.33-5.56-7.05-2.45-16.24-8.19,1.67-2.51Z"/>
    <path class="cls-1" d="m517.2,132.47c-3.41.63-6.78,1.24-10.16,1.87v.08c3.42-.67,6.82-1.33,10.16-1.94Z"/>
    <path class="cls-1" d="m507.04,136.41v24.92h23.49v-30.18c-3.71.83-7.4,1.67-11.04,2.54-2.73.62-7.33,1.63-12.45,2.73Z"/>
    <path class="cls-1" d="m516.32,127.51c4.77-.64,9.5-1.34,14.22-2.09V0h-23.49v128.68c3.11-.29,6.21-.59,9.28-.96-.09-.05-.7-.06,0-.21Z"/>
    <path class="cls-1" d="m515.43,131.63l-1.74.33,3.46-.63c4.44-.8,8.9-1.61,13.37-2.42v-.13c-.68.13-1.35.26-2.03.39.7-.15,1.36-.29,2.03-.43v-.14c-7.81,1.41-15.64,2.81-23.49,4.16v.33c2.8-.48,5.59-.95,8.4-1.45Z"/>
    <path class="cls-1" d="m412.66,140.77c13.27,2.84,26.79,4.04,39.97,2.57-1.81.11-3.73.16-5.75.18-2.01.1-4.03.02-6.07-.08-2.05-.06-4.13-.13-6.22-.2-2.09-.08-4.16-.38-6.23-.56-2.06-.24-4.14-.35-6.13-.72-1.99-.37-3.94-.73-5.84-1.09-3.81-.65-7.23-1.83-10.25-2.86,11.49,2.99,23.39,5.02,35.47,5.13,2.98.2,6.11-.04,9.12-.2,2.99-.28,6-.5,8.95-.91,3.98-.47,7.95-1.03,11.92-1.63l-.52-.56c-4.38.65-8.77,1.25-13.15,1.72,4.4-.54,8.73-1.19,13.01-1.88l-.65-.69c-.8.1-1.59.23-2.4.33-8.29.96-16.59,2.09-24.99,1.82-15.62-.14-31.14-3.22-45.97-7.9-13.55-4.24-26.53-9.82-39.39-15.45v4.29c5.42,2.19,10.88,4.4,16.41,6.54,12.52,4.84,25.44,9.29,38.71,12.13Z"/>
    <path class="cls-1" d="m457.77,146.9l-6.76,1.1c-2.29.32-4.78.57-7.15.77l-6.98.24-3.73.04-3.69-.24c-2.46-.18-4.93-.34-7.38-.58-4.82-.77-9.75-1.33-14.46-2.5-9.58-1.96-18.74-4.9-27.79-8.02-7.56-2.67-14.94-5.61-22.29-8.59v32.19h133.56l-16.63-17.82c-3.35.73-6.71,1.45-10.09,2.14l-6.62,1.26Z"/>
    <path class="cls-1" d="m370.12,120.24c-.01-.54-9.09-4.58-3.65-2.62,9.99,3.36,18.3,6.78,25.37,9.02,3.51,1.21,6.71,2.08,9.57,2.67,1.43.31,2.77.55,4.03.72,1.27.13,2.45.15,3.55.11.43-.07-.6-.65-2.26-1.46-1.67-.88-3.89-2.05-5.96-3.15-4.14-2.15-7.46-4.45-3.92-3.33,5.88,1.79,16.3,5.34,27.75,7.34,3.28.68,6.71,1.2,10.27,1.82.44.08,1.2.02,2.15-.04,3.09.2,6.28.72,9.14.74,2.81.14,5.8.05,8.55.02,3.24-.08,6.21-.19,8.84-.29l-.29-.31c-.26,0-.5,0-.76.01-.9.12-2.83.2-4.63.46-1.12-.1-2.28-.2-3.48-.31,2.89-.05,5.83-.13,8.79-.24l-8.66-9.28c4.68-2.3,9.64-6.07,14.88-11.31,12.71-12.71,19.07-28,19.07-45.88s-6.36-33.17-19.07-45.88c-12.71-12.71-28.18-19.07-46.41-19.07h-65.47v103.5c1.25.55,2.49,1.1,3.74,1.65-.73-.11-.27.36-.27.57-1.16-.57-2.31-1.17-3.47-1.76v12.08l9.26,3.62c1.28.29,2.41.51,3.32.59Zm38.49,4.28c8.19,2.57,16.51,4.43,24.99,5.74v.05c-6.8-1-15.03-2.64-22.52-5.04-7.51-2.18-14.35-4.66-18.74-5.55-2.36-1.37-5.08-2.89-8.07-4.4,8.09,3.53,16.15,6.56,24.34,9.2Z"/>
    <path class="cls-1" d="m373.88,131.21c.06,0,.12,0,.16,0-5.77-2.14-11.19-4.31-16.5-6.46v.17c5.41,2.09,10.84,4.2,16.34,6.29Z"/>
    <path class="cls-1" d="m357.54,116.1v1.06c3.13.87,6.42,1.84,9.12,2.46-2.88-1.04-5.95-2.24-9.12-3.52Z"/>
    <path class="cls-1" d="m385.1,136.62c2.72.89,5.43,1.79,8.18,2.62-2.84-.85-5.55-1.72-8.18-2.62-4.97-1.63-9.9-3.32-14.72-5.13,9.37,3.43,19.35,7.07,30.05,9.82,10.66,2.77,21.9,4.83,33.23,5.36,4.18,0,7.96.69,12.4.72,2.25,0,4.61-.08,6.97-.44,2.42-.3,5-.79,7.76-1.54-3.51.54-7.16.9-10.81,1.25l-5.75.27-5.59-.18c-1.87-.08-3.74-.12-5.61-.24l-5.57-.65c-1.85-.25-3.74-.39-5.57-.74l-5.51-1.05c-14.69-2.92-28.84-7.72-42.5-12.86-2.03-.03-9.25-3.24-12.79-4.11,8.37,3.68,15.81,6.73,24,9.52Z"/>
    <path class="cls-1" d="m469.98,138.69c-5.07.64-10.14,1.18-15.22,1.58-5.09.41-10.28.59-15.37.14-5.12-.15-10.16-.99-15.21-1.66-4.99-1.02-10-1.89-14.88-3.32,10.44,3.23,21.84,5.51,33.6,5.74,9.21.11,18.14-1.3,27.08-2.48h0Z"/>
    <path class="cls-1" d="m593.47,110.08l-.03-.02c6.8-2.72,13.63-5.68,20.54-8.65,1.17-.4,2.3-.75,3.37-1.05,1.65-.9,3.44-1.7,4.26-2.16,5.57-2.24,10.33-3.95,15.15-5.61.82-.45,2.29-1.52,4.12-2.26,3.71-1.44,7.29-2.83,10.79-4.18,4.23-1.47,8.57-2.87,13.07-4.06,3.76-.97,7.57-1.82,11.45-2.47-2.33-3.92-5.17-7.64-8.64-11.11-7.12-7.12-13.62-11.45-19.48-12.99,0-.07.91-1.01,2.72-2.83,6.08-6.07,9.11-13.34,9.11-21.79s-3.04-15.71-9.11-21.79c-6.07-6.07-13.51-9.11-22.31-9.11h-75.95v121.42c2.6-.5,5.18-1.03,7.76-1.58,10.12-2.34,23.66-5.58,33.17-9.76Z"/>
    <path class="cls-1" d="m552.54,121.63v.03c.5-.12,1.04-.25,1.59-.38-.54.12-1.07.24-1.59.35Z"/>
    <path class="cls-1" d="m553.61,124.34c1.39-.32,3.31-.77,4.14-.96l-5.22,1.13v.04c.36-.07.72-.14,1.07-.21Z"/>
    <path class="cls-1" d="m638.13,102.62c-7.63,2.67-15.23,5.21-22.74,7.62-8.37,2.75-16.59,5.43-24.83,7.81-8.33,2.4-16.56,3.89-24.58,5.59-4.53.92-9,1.84-13.44,2.77v34.91h75.95c15.29,0,28.28-5.34,38.97-16.03,10.69-10.69,16.03-23.5,16.03-38.44,0-6.2-.97-12-2.79-17.45-6.58,1.22-13.14,3.08-19.62,5.2-7.63,2.5-15.3,5.4-22.94,8.03Z"/>
    <path class="cls-1" d="m621.11,106.44c3.1-1.08,6.21-2.17,9.21-3.35-3,1.09-6.11,2.22-9.21,3.35Z"/>
    <path class="cls-1" d="m552.54,124.67c.34-.05.91-.15,1.85-.32,6.94-1.26,14.14-2.7,21.58-4.34,3.72-.82,7.5-1.66,11.33-2.7,3.77-1.08,7.61-2.18,11.54-3.3,4.09-1.17,9.53-2.98,15.34-5.07,1.63-.43,2.44-.78,3.15-1.14,1.25-.46,2.52-.92,3.78-1.38-1.16.41-2.32.81-3.47,1.22.75-.39,1.54-.82,3.25-1.42-10.72,3.62-21.63,7.36-32.84,10.62-5.64,1.59-11.38,2.76-17.12,3.99-5.76,1.16-11.53,2.33-17.32,3.49-.44.1-.81.19-1.07.26v.08Z"/>
    <path class="cls-1" d="m812.82,19.07c-12.71-12.71-28.18-19.07-46.41-19.07s-33.7,6.36-46.41,19.07c-12.71,12.71-19.07,28.01-19.07,45.88v14.48c3.98.82,7.87,2.14,11.44,3.87.41.37.44.61.47.85,2.42.8,5.27,2.77,7.17,3.8-.39-.16-.65-.23-.65-.11,6.07,3.59,6.7,4.85,11.48,8.47,1.09.77,2.2,1.38,3.3,2.08.52.38,1.04.77,1.57,1.15,5.07,4.42,10.94,7.49,17.68,10.56,6.7,3.17,13.8,5.64,21.09,7.52,5.79,1.44,8.02,2.06,12.11,2.79-8.67-1.37-17.9-3.48-26.68-6.61-8.81-3.09-16.98-7.33-24.31-11.55,4.09,2.82,8.78,5.6,13.68,7.93,4.9,2.34,9.99,4.21,14.64,5.72,9.35,2.92,16.98,4.11,18.4,4.55.72.2-.63.11-3.3-.27-2.68-.32-6.66-.99-11.18-2.02-4.51-1.05-9.53-2.54-14.26-4.32-4.72-1.82-9.14-3.92-12.66-5.74q1.81,1.06,3.62,2.13c-1.81-1.07-3.64-2.09-5.34-2.88,3.49,2.37,10.9,5.83,13,6.9l-3.63-1.07c4.83,2.46,12.25,4.96,19.84,6.45,6.37,1.3,12.81,1.89,17.87,2.13.92.04,1.84.09,2.75.11-.85-.02-1.78-.06-2.75-.11-12.27-.5-25.69-2.89-38.9-8.5-7.08-2.99-13.98-6.98-20.56-11.39-6.59-4.36-12.96-9-20.03-11.46-1.91-.67-3.87-1.18-5.87-1.55v72.47h130.94v-96.37c0-17.88-6.36-33.17-19.06-45.88Z"/>
  </g>
</svg>