<?xml version="1.0" encoding="UTF-8"?>
<svg id="Layer_1" data-name="Layer 1" xmlns="http://www.w3.org/2000/svg" viewBox="0 0 1068.02 17.13">
  <defs>
    <style>
      .cls-1 {
        fill: #fff;
      }

      .cls-2 {
        fill: #bb573e;
      }
    </style>
  </defs>
  <g>
    <g>
      <path class="cls-1" d="m92.77,9.03h-12.38c-.15,0-.27-.12-.27-.27V.32c0-.15.12-.27.27-.27s.27.12.27.27v8.16h11.83V.43c0-.15.12-.27.27-.27s.27.12.27.27v8.32c0,.15-.12.27-.27.27Z"/>
      <path class="cls-1" d="m86.58,16.58c-.15,0-.27-.12-.27-.27V4.6c0-.15.12-.27.27-.27s.27.12.27.27v11.72c0,.15-.12.27-.27.27Z"/>
    </g>
    <g>
      <path class="cls-2" d="m63.16,16.2c-.15,0-.27-.12-.27-.27V.71c0-.15.12-.27.27-.27s.27.12.27.27v15.22c0,.15-.12.27-.27.27Z"/>
      <path class="cls-2" d="m66.33,16.2c-.15,0-.27-.12-.27-.27V.71c0-.15.12-.27.27-.27h4.49c.15,0,.27.12.27.27s-.12.27-.27.27h-4.22v14.95c0,.15-.12.27-.27.27Z"/>
    </g>
    <g>
      <path class="cls-1" d="m11.16,16.64c-.09,0-.17-.04-.22-.12L.1.42C.01.3.05.13.17.05.29-.04.46,0,.55.12l10.84,16.1c.08.12.05.29-.07.38-.05.03-.1.05-.15.05Z"/>
      <path class="cls-1" d="m11.16,16.64c-.09,0-.17-.04-.22-.12L.1.42C.01.3.05.13.17.05.29-.04.46,0,.55.12l10.84,16.1c.08.12.05.29-.07.38-.05.03-.1.05-.15.05Z"/>
      <path class="cls-1" d="m.27,16.6c-.05,0-.11-.02-.15-.05-.12-.08-.15-.25-.07-.38L10.99.15c.08-.12.25-.16.38-.07.12.08.15.25.07.38L.49,16.49c-.05.08-.14.12-.22.12Z"/>
    </g>
    <g>
      <path class="cls-1" d="m52.61,16.64c-.09,0-.17-.04-.22-.12L41.55.42c-.08-.12-.05-.29.07-.38.12-.08.29-.05.38.07l10.84,16.1c.08.12.05.29-.07.38-.05.03-.1.05-.15.05Z"/>
      <path class="cls-1" d="m52.61,16.64c-.09,0-.17-.04-.22-.12L41.55.42c-.08-.12-.05-.29.07-.38.12-.08.29-.05.38.07l10.84,16.1c.08.12.05.29-.07.38-.05.03-.1.05-.15.05Z"/>
      <path class="cls-1" d="m41.72,16.6c-.05,0-.11-.02-.15-.05-.12-.08-.15-.25-.07-.38L52.44.15c.08-.12.25-.16.38-.07.12.08.15.25.07.38l-10.94,16.03c-.05.08-.14.12-.22.12Z"/>
    </g>
    <g>
      <path class="cls-2" d="m26.69,6.42s-.05,0-.07,0c-3.55-.03-6.63-2.58-7.32-6.06-.03-.15.07-.29.21-.32.15-.03.29.07.32.21.64,3.23,3.5,5.59,6.79,5.62,3.37.04,6.29-2.35,6.93-5.66.03-.15.17-.24.32-.21.15.03.24.17.21.32-.69,3.54-3.79,6.09-7.4,6.09Z"/>
      <path class="cls-2" d="m26.7,16.63c-.15,0-.27-.12-.27-.27V1.25c0-.15.12-.27.27-.27s.27.12.27.27v15.11c0,.15-.12.27-.27.27Z"/>
    </g>
  </g>
  <g>
    <g>
      <path class="cls-1" d="m200.24,9.03h-12.38c-.15,0-.27-.12-.27-.27V.32c0-.15.12-.27.27-.27s.27.12.27.27v8.16h11.83V.43c0-.15.12-.27.27-.27s.27.12.27.27v8.32c0,.15-.12.27-.27.27Z"/>
      <path class="cls-1" d="m194.06,16.58c-.15,0-.27-.12-.27-.27V4.6c0-.15.12-.27.27-.27s.27.12.27.27v11.72c0,.15-.12.27-.27.27Z"/>
    </g>
    <g>
      <path class="cls-2" d="m170.63,16.2c-.15,0-.27-.12-.27-.27V.71c0-.15.12-.27.27-.27s.27.12.27.27v15.22c0,.15-.12.27-.27.27Z"/>
      <path class="cls-2" d="m173.81,16.2c-.15,0-.27-.12-.27-.27V.71c0-.15.12-.27.27-.27h4.49c.15,0,.27.12.27.27s-.12.27-.27.27h-4.22v14.95c0,.15-.12.27-.27.27Z"/>
    </g>
    <g>
      <path class="cls-1" d="m118.64,16.64c-.09,0-.17-.04-.22-.12L107.57.42c-.08-.12-.05-.29.07-.38.12-.08.29-.05.38.07l10.84,16.1c.08.12.05.29-.07.38-.05.03-.1.05-.15.05Z"/>
      <path class="cls-1" d="m118.64,16.64c-.09,0-.17-.04-.22-.12L107.57.42c-.08-.12-.05-.29.07-.38.12-.08.29-.05.38.07l10.84,16.1c.08.12.05.29-.07.38-.05.03-.1.05-.15.05Z"/>
      <path class="cls-1" d="m107.74,16.6c-.05,0-.11-.02-.15-.05-.12-.08-.15-.25-.07-.38L118.47.15c.08-.12.25-.16.38-.07.12.08.15.25.07.38l-10.94,16.03c-.05.08-.14.12-.22.12Z"/>
    </g>
    <g>
      <path class="cls-1" d="m160.09,16.64c-.09,0-.17-.04-.22-.12L149.02.42c-.08-.12-.05-.29.07-.38.12-.08.29-.05.38.07l10.84,16.1c.08.12.05.29-.07.38-.05.03-.1.05-.15.05Z"/>
      <path class="cls-1" d="m160.09,16.64c-.09,0-.17-.04-.22-.12L149.02.42c-.08-.12-.05-.29.07-.38.12-.08.29-.05.38.07l10.84,16.1c.08.12.05.29-.07.38-.05.03-.1.05-.15.05Z"/>
      <path class="cls-1" d="m149.19,16.6c-.05,0-.11-.02-.15-.05-.12-.08-.15-.25-.07-.38L159.92.15c.08-.12.25-.16.38-.07.12.08.15.25.07.38l-10.94,16.03c-.05.08-.14.12-.22.12Z"/>
    </g>
    <g>
      <path class="cls-2" d="m134.17,6.42s-.05,0-.07,0c-3.55-.03-6.63-2.58-7.32-6.06-.03-.15.07-.29.21-.32.15-.03.29.07.32.21.64,3.23,3.5,5.59,6.79,5.62,3.37.04,6.29-2.35,6.93-5.66.03-.15.17-.24.32-.21.15.03.24.17.21.32-.69,3.54-3.79,6.09-7.4,6.09Z"/>
      <path class="cls-2" d="m134.17,16.63c-.15,0-.27-.12-.27-.27V1.25c0-.15.12-.27.27-.27s.27.12.27.27v15.11c0,.15-.12.27-.27.27Z"/>
    </g>
  </g>
  <g>
    <g>
      <path class="cls-1" d="m309.92,9.03h-12.38c-.15,0-.27-.12-.27-.27V.32c0-.15.12-.27.27-.27s.27.12.27.27v8.16h11.83V.43c0-.15.12-.27.27-.27s.27.12.27.27v8.32c0,.15-.12.27-.27.27Z"/>
      <path class="cls-1" d="m303.73,16.58c-.15,0-.27-.12-.27-.27V4.6c0-.15.12-.27.27-.27s.27.12.27.27v11.72c0,.15-.12.27-.27.27Z"/>
    </g>
    <g>
      <path class="cls-2" d="m280.3,16.2c-.15,0-.27-.12-.27-.27V.71c0-.15.12-.27.27-.27s.27.12.27.27v15.22c0,.15-.12.27-.27.27Z"/>
      <path class="cls-2" d="m283.48,16.2c-.15,0-.27-.12-.27-.27V.71c0-.15.12-.27.27-.27h4.49c.15,0,.27.12.27.27s-.12.27-.27.27h-4.22v14.95c0,.15-.12.27-.27.27Z"/>
    </g>
    <g>
      <path class="cls-1" d="m228.31,16.64c-.09,0-.17-.04-.22-.12L217.25.42c-.08-.12-.05-.29.07-.38.12-.08.29-.05.38.07l10.84,16.1c.08.12.05.29-.07.38-.05.03-.1.05-.15.05Z"/>
      <path class="cls-1" d="m228.31,16.64c-.09,0-.17-.04-.22-.12L217.25.42c-.08-.12-.05-.29.07-.38.12-.08.29-.05.38.07l10.84,16.1c.08.12.05.29-.07.38-.05.03-.1.05-.15.05Z"/>
      <path class="cls-1" d="m217.42,16.6c-.05,0-.11-.02-.15-.05-.12-.08-.15-.25-.07-.38L228.14.15c.08-.12.25-.16.38-.07.12.08.15.25.07.38l-10.94,16.03c-.05.08-.14.12-.22.12Z"/>
    </g>
    <g>
      <path class="cls-1" d="m269.76,16.64c-.09,0-.17-.04-.22-.12L258.7.42c-.08-.12-.05-.29.07-.38.12-.08.29-.05.38.07l10.84,16.1c.08.12.05.29-.07.38-.05.03-.1.05-.15.05Z"/>
      <path class="cls-1" d="m269.76,16.64c-.09,0-.17-.04-.22-.12L258.7.42c-.08-.12-.05-.29.07-.38.12-.08.29-.05.38.07l10.84,16.1c.08.12.05.29-.07.38-.05.03-.1.05-.15.05Z"/>
      <path class="cls-1" d="m258.87,16.6c-.05,0-.11-.02-.15-.05-.12-.08-.15-.25-.07-.38L269.59.15c.08-.12.25-.16.38-.07.12.08.15.25.07.38l-10.94,16.03c-.05.08-.14.12-.22.12Z"/>
    </g>
    <g>
      <path class="cls-2" d="m243.84,6.42s-.05,0-.07,0c-3.55-.03-6.63-2.58-7.32-6.06-.03-.15.07-.29.21-.32.15-.03.29.07.32.21.64,3.23,3.5,5.59,6.79,5.62,3.37.04,6.29-2.35,6.93-5.66.03-.15.17-.24.32-.21.15.03.24.17.21.32-.69,3.54-3.79,6.09-7.4,6.09Z"/>
      <path class="cls-2" d="m243.85,16.63c-.15,0-.27-.12-.27-.27V1.25c0-.15.12-.27.27-.27s.27.12.27.27v15.11c0,.15-.12.27-.27.27Z"/>
    </g>
  </g>
  <g>
    <g>
      <path class="cls-1" d="m417.39,9.03h-12.38c-.15,0-.27-.12-.27-.27V.32c0-.15.12-.27.27-.27s.27.12.27.27v8.16h11.83V.43c0-.15.12-.27.27-.27s.27.12.27.27v8.32c0,.15-.12.27-.27.27Z"/>
      <path class="cls-1" d="m411.2,16.58c-.15,0-.27-.12-.27-.27V4.6c0-.15.12-.27.27-.27s.27.12.27.27v11.72c0,.15-.12.27-.27.27Z"/>
    </g>
    <g>
      <path class="cls-2" d="m387.78,16.2c-.15,0-.27-.12-.27-.27V.71c0-.15.12-.27.27-.27s.27.12.27.27v15.22c0,.15-.12.27-.27.27Z"/>
      <path class="cls-2" d="m390.95,16.2c-.15,0-.27-.12-.27-.27V.71c0-.15.12-.27.27-.27h4.49c.15,0,.27.12.27.27s-.12.27-.27.27h-4.22v14.95c0,.15-.12.27-.27.27Z"/>
    </g>
    <g>
      <path class="cls-1" d="m335.79,16.64c-.09,0-.17-.04-.22-.12L324.72.42c-.08-.12-.05-.29.07-.38.12-.08.29-.05.38.07l10.84,16.1c.08.12.05.29-.07.38-.05.03-.1.05-.15.05Z"/>
      <path class="cls-1" d="m335.79,16.64c-.09,0-.17-.04-.22-.12L324.72.42c-.08-.12-.05-.29.07-.38.12-.08.29-.05.38.07l10.84,16.1c.08.12.05.29-.07.38-.05.03-.1.05-.15.05Z"/>
      <path class="cls-1" d="m324.89,16.6c-.05,0-.11-.02-.15-.05-.12-.08-.15-.25-.07-.38L335.61.15c.08-.12.25-.16.38-.07.12.08.15.25.07.38l-10.94,16.03c-.05.08-.14.12-.22.12Z"/>
    </g>
    <g>
      <path class="cls-1" d="m377.24,16.64c-.09,0-.17-.04-.22-.12L366.17.42c-.08-.12-.05-.29.07-.38.12-.08.29-.05.38.07l10.84,16.1c.08.12.05.29-.07.38-.05.03-.1.05-.15.05Z"/>
      <path class="cls-1" d="m377.24,16.64c-.09,0-.17-.04-.22-.12L366.17.42c-.08-.12-.05-.29.07-.38.12-.08.29-.05.38.07l10.84,16.1c.08.12.05.29-.07.38-.05.03-.1.05-.15.05Z"/>
      <path class="cls-1" d="m366.34,16.6c-.05,0-.11-.02-.15-.05-.12-.08-.15-.25-.07-.38L377.06.15c.08-.12.25-.16.38-.07.12.08.15.25.07.38l-10.94,16.03c-.05.08-.14.12-.22.12Z"/>
    </g>
    <g>
      <path class="cls-2" d="m351.32,6.42s-.05,0-.07,0c-3.55-.03-6.63-2.58-7.32-6.06-.03-.15.07-.29.21-.32.15-.03.29.07.32.21.64,3.23,3.5,5.59,6.79,5.62,3.37.04,6.29-2.35,6.93-5.66.03-.15.17-.24.32-.21.15.03.24.17.21.32-.69,3.54-3.79,6.09-7.4,6.09Z"/>
      <path class="cls-2" d="m351.32,16.63c-.15,0-.27-.12-.27-.27V1.25c0-.15.12-.27.27-.27s.27.12.27.27v15.11c0,.15-.12.27-.27.27Z"/>
    </g>
  </g>
  <g>
    <g>
      <path class="cls-1" d="m524.92,9.03h-12.38c-.15,0-.27-.12-.27-.27V.32c0-.15.12-.27.27-.27s.27.12.27.27v8.16h11.83V.43c0-.15.12-.27.27-.27s.27.12.27.27v8.32c0,.15-.12.27-.27.27Z"/>
      <path class="cls-1" d="m518.73,16.58c-.15,0-.27-.12-.27-.27V4.6c0-.15.12-.27.27-.27s.27.12.27.27v11.72c0,.15-.12.27-.27.27Z"/>
    </g>
    <g>
      <path class="cls-2" d="m495.3,16.2c-.15,0-.27-.12-.27-.27V.71c0-.15.12-.27.27-.27s.27.12.27.27v15.22c0,.15-.12.27-.27.27Z"/>
      <path class="cls-2" d="m498.48,16.2c-.15,0-.27-.12-.27-.27V.71c0-.15.12-.27.27-.27h4.49c.15,0,.27.12.27.27s-.12.27-.27.27h-4.22v14.95c0,.15-.12.27-.27.27Z"/>
    </g>
    <g>
      <path class="cls-1" d="m443.31,16.64c-.09,0-.17-.04-.22-.12L432.25.42c-.08-.12-.05-.29.07-.38.12-.08.29-.05.38.07l10.84,16.1c.08.12.05.29-.07.38-.05.03-.1.05-.15.05Z"/>
      <path class="cls-1" d="m443.31,16.64c-.09,0-.17-.04-.22-.12L432.25.42c-.08-.12-.05-.29.07-.38.12-.08.29-.05.38.07l10.84,16.1c.08.12.05.29-.07.38-.05.03-.1.05-.15.05Z"/>
      <path class="cls-1" d="m432.42,16.6c-.05,0-.11-.02-.15-.05-.12-.08-.15-.25-.07-.38L443.14.15c.08-.12.25-.16.38-.07.12.08.15.25.07.38l-10.94,16.03c-.05.08-.14.12-.22.12Z"/>
    </g>
    <g>
      <path class="cls-1" d="m484.76,16.64c-.09,0-.17-.04-.22-.12L473.7.42c-.08-.12-.05-.29.07-.38.12-.08.29-.05.38.07l10.84,16.1c.08.12.05.29-.07.38-.05.03-.1.05-.15.05Z"/>
      <path class="cls-1" d="m484.76,16.64c-.09,0-.17-.04-.22-.12L473.7.42c-.08-.12-.05-.29.07-.38.12-.08.29-.05.38.07l10.84,16.1c.08.12.05.29-.07.38-.05.03-.1.05-.15.05Z"/>
      <path class="cls-1" d="m473.87,16.6c-.05,0-.11-.02-.15-.05-.12-.08-.15-.25-.07-.38L484.59.15c.08-.12.25-.16.38-.07.12.08.15.25.07.38l-10.94,16.03c-.05.08-.14.12-.22.12Z"/>
    </g>
    <g>
      <path class="cls-2" d="m458.84,6.42s-.05,0-.07,0c-3.55-.03-6.63-2.58-7.32-6.06-.03-.15.07-.29.21-.32.15-.03.29.07.32.21.64,3.23,3.5,5.59,6.79,5.62,3.37.04,6.29-2.35,6.93-5.66.03-.15.17-.24.32-.21.15.03.24.17.21.32-.69,3.54-3.79,6.09-7.4,6.09Z"/>
      <path class="cls-2" d="m458.85,16.63c-.15,0-.27-.12-.27-.27V1.25c0-.15.12-.27.27-.27s.27.12.27.27v15.11c0,.15-.12.27-.27.27Z"/>
    </g>
  </g>
  <g>
    <g>
      <path class="cls-1" d="m632.39,9.03h-12.38c-.15,0-.27-.12-.27-.27V.32c0-.15.12-.27.27-.27s.27.12.27.27v8.16h11.83V.43c0-.15.12-.27.27-.27s.27.12.27.27v8.32c0,.15-.12.27-.27.27Z"/>
      <path class="cls-1" d="m626.2,16.58c-.15,0-.27-.12-.27-.27V4.6c0-.15.12-.27.27-.27s.27.12.27.27v11.72c0,.15-.12.27-.27.27Z"/>
    </g>
    <g>
      <path class="cls-2" d="m602.78,16.2c-.15,0-.27-.12-.27-.27V.71c0-.15.12-.27.27-.27s.27.12.27.27v15.22c0,.15-.12.27-.27.27Z"/>
      <path class="cls-2" d="m605.95,16.2c-.15,0-.27-.12-.27-.27V.71c0-.15.12-.27.27-.27h4.49c.15,0,.27.12.27.27s-.12.27-.27.27h-4.22v14.95c0,.15-.12.27-.27.27Z"/>
    </g>
    <g>
      <path class="cls-1" d="m550.79,16.64c-.09,0-.17-.04-.22-.12l-10.84-16.1c-.08-.12-.05-.29.07-.38.12-.08.29-.05.38.07l10.84,16.1c.08.12.05.29-.07.38-.05.03-.1.05-.15.05Z"/>
      <path class="cls-1" d="m550.79,16.64c-.09,0-.17-.04-.22-.12l-10.84-16.1c-.08-.12-.05-.29.07-.38.12-.08.29-.05.38.07l10.84,16.1c.08.12.05.29-.07.38-.05.03-.1.05-.15.05Z"/>
      <path class="cls-1" d="m539.89,16.6c-.05,0-.11-.02-.15-.05-.12-.08-.15-.25-.07-.38L550.61.15c.08-.12.25-.16.38-.07.12.08.15.25.07.38l-10.94,16.03c-.05.08-.14.12-.22.12Z"/>
    </g>
    <g>
      <path class="cls-1" d="m592.24,16.64c-.09,0-.17-.04-.22-.12l-10.84-16.1c-.08-.12-.05-.29.07-.38.12-.08.29-.05.38.07l10.84,16.1c.08.12.05.29-.07.38-.05.03-.1.05-.15.05Z"/>
      <path class="cls-1" d="m592.24,16.64c-.09,0-.17-.04-.22-.12l-10.84-16.1c-.08-.12-.05-.29.07-.38.12-.08.29-.05.38.07l10.84,16.1c.08.12.05.29-.07.38-.05.03-.1.05-.15.05Z"/>
      <path class="cls-1" d="m581.34,16.6c-.05,0-.11-.02-.15-.05-.12-.08-.15-.25-.07-.38L592.06.15c.08-.12.25-.16.38-.07.12.08.15.25.07.38l-10.94,16.03c-.05.08-.14.12-.22.12Z"/>
    </g>
    <g>
      <path class="cls-2" d="m566.32,6.42s-.05,0-.07,0c-3.55-.03-6.63-2.58-7.32-6.06-.03-.15.07-.29.21-.32.15-.03.29.07.32.21.64,3.23,3.5,5.59,6.79,5.62,3.37.04,6.29-2.35,6.93-5.66.03-.15.17-.24.32-.21.15.03.24.17.21.32-.69,3.54-3.79,6.09-7.4,6.09Z"/>
      <path class="cls-2" d="m566.32,16.63c-.15,0-.27-.12-.27-.27V1.25c0-.15.12-.27.27-.27s.27.12.27.27v15.11c0,.15-.12.27-.27.27Z"/>
    </g>
  </g>
  <g>
    <g>
      <path class="cls-1" d="m742.07,9.03h-12.38c-.15,0-.27-.12-.27-.27V.32c0-.15.12-.27.27-.27s.27.12.27.27v8.16h11.83V.43c0-.15.12-.27.27-.27s.27.12.27.27v8.32c0,.15-.12.27-.27.27Z"/>
      <path class="cls-1" d="m735.88,16.58c-.15,0-.27-.12-.27-.27V4.6c0-.15.12-.27.27-.27s.27.12.27.27v11.72c0,.15-.12.27-.27.27Z"/>
    </g>
    <g>
      <path class="cls-2" d="m712.45,16.2c-.15,0-.27-.12-.27-.27V.71c0-.15.12-.27.27-.27s.27.12.27.27v15.22c0,.15-.12.27-.27.27Z"/>
      <path class="cls-2" d="m715.63,16.2c-.15,0-.27-.12-.27-.27V.71c0-.15.12-.27.27-.27h4.49c.15,0,.27.12.27.27s-.12.27-.27.27h-4.22v14.95c0,.15-.12.27-.27.27Z"/>
    </g>
    <g>
      <path class="cls-1" d="m660.46,16.64c-.09,0-.17-.04-.22-.12l-10.84-16.1c-.08-.12-.05-.29.07-.38.12-.08.29-.05.38.07l10.84,16.1c.08.12.05.29-.07.38-.05.03-.1.05-.15.05Z"/>
      <path class="cls-1" d="m660.46,16.64c-.09,0-.17-.04-.22-.12l-10.84-16.1c-.08-.12-.05-.29.07-.38.12-.08.29-.05.38.07l10.84,16.1c.08.12.05.29-.07.38-.05.03-.1.05-.15.05Z"/>
      <path class="cls-1" d="m649.57,16.6c-.05,0-.11-.02-.15-.05-.12-.08-.15-.25-.07-.38L660.29.15c.08-.12.25-.16.38-.07.12.08.15.25.07.38l-10.94,16.03c-.05.08-.14.12-.22.12Z"/>
    </g>
    <g>
      <path class="cls-1" d="m701.91,16.64c-.09,0-.17-.04-.22-.12l-10.84-16.1c-.08-.12-.05-.29.07-.38.12-.08.29-.05.38.07l10.84,16.1c.08.12.05.29-.07.38-.05.03-.1.05-.15.05Z"/>
      <path class="cls-1" d="m701.91,16.64c-.09,0-.17-.04-.22-.12l-10.84-16.1c-.08-.12-.05-.29.07-.38.12-.08.29-.05.38.07l10.84,16.1c.08.12.05.29-.07.38-.05.03-.1.05-.15.05Z"/>
      <path class="cls-1" d="m691.02,16.6c-.05,0-.11-.02-.15-.05-.12-.08-.15-.25-.07-.38L701.74.15c.08-.12.25-.16.38-.07.12.08.15.25.07.38l-10.94,16.03c-.05.08-.14.12-.22.12Z"/>
    </g>
    <g>
      <path class="cls-2" d="m675.99,6.42s-.05,0-.07,0c-3.55-.03-6.63-2.58-7.32-6.06-.03-.15.07-.29.21-.32.15-.03.29.07.32.21.64,3.23,3.5,5.59,6.79,5.62,3.37.04,6.29-2.35,6.93-5.66.03-.15.17-.24.32-.21.15.03.24.17.21.32-.69,3.54-3.79,6.09-7.4,6.09Z"/>
      <path class="cls-2" d="m675.99,16.63c-.15,0-.27-.12-.27-.27V1.25c0-.15.12-.27.27-.27s.27.12.27.27v15.11c0,.15-.12.27-.27.27Z"/>
    </g>
  </g>
  <g>
    <g>
      <path class="cls-1" d="m849.54,9.03h-12.38c-.15,0-.27-.12-.27-.27V.32c0-.15.12-.27.27-.27s.27.12.27.27v8.16h11.83V.43c0-.15.12-.27.27-.27s.27.12.27.27v8.32c0,.15-.12.27-.27.27Z"/>
      <path class="cls-1" d="m843.35,16.58c-.15,0-.27-.12-.27-.27V4.6c0-.15.12-.27.27-.27s.27.12.27.27v11.72c0,.15-.12.27-.27.27Z"/>
    </g>
    <g>
      <path class="cls-2" d="m819.93,16.2c-.15,0-.27-.12-.27-.27V.71c0-.15.12-.27.27-.27s.27.12.27.27v15.22c0,.15-.12.27-.27.27Z"/>
      <path class="cls-2" d="m823.1,16.2c-.15,0-.27-.12-.27-.27V.71c0-.15.12-.27.27-.27h4.49c.15,0,.27.12.27.27s-.12.27-.27.27h-4.22v14.95c0,.15-.12.27-.27.27Z"/>
    </g>
    <g>
      <path class="cls-1" d="m767.93,16.64c-.09,0-.17-.04-.22-.12l-10.84-16.1c-.08-.12-.05-.29.07-.38.12-.08.29-.05.38.07l10.84,16.1c.08.12.05.29-.07.38-.05.03-.1.05-.15.05Z"/>
      <path class="cls-1" d="m767.93,16.64c-.09,0-.17-.04-.22-.12l-10.84-16.1c-.08-.12-.05-.29.07-.38.12-.08.29-.05.38.07l10.84,16.1c.08.12.05.29-.07.38-.05.03-.1.05-.15.05Z"/>
      <path class="cls-1" d="m757.04,16.6c-.05,0-.11-.02-.15-.05-.12-.08-.15-.25-.07-.38L767.76.15c.08-.12.25-.16.38-.07.12.08.15.25.07.38l-10.94,16.03c-.05.08-.14.12-.22.12Z"/>
    </g>
    <g>
      <path class="cls-1" d="m809.38,16.64c-.09,0-.17-.04-.22-.12l-10.84-16.1c-.08-.12-.05-.29.07-.38.12-.08.29-.05.38.07l10.84,16.1c.08.12.05.29-.07.38-.05.03-.1.05-.15.05Z"/>
      <path class="cls-1" d="m809.38,16.64c-.09,0-.17-.04-.22-.12l-10.84-16.1c-.08-.12-.05-.29.07-.38.12-.08.29-.05.38.07l10.84,16.1c.08.12.05.29-.07.38-.05.03-.1.05-.15.05Z"/>
      <path class="cls-1" d="m798.49,16.6c-.05,0-.11-.02-.15-.05-.12-.08-.15-.25-.07-.38L809.21.15c.08-.12.25-.16.38-.07.12.08.15.25.07.38l-10.94,16.03c-.05.08-.14.12-.22.12Z"/>
    </g>
    <g>
      <path class="cls-2" d="m783.47,6.42s-.05,0-.07,0c-3.55-.03-6.63-2.58-7.32-6.06-.03-.15.07-.29.21-.32.15-.03.29.07.32.21.64,3.23,3.5,5.59,6.79,5.62,3.37.04,6.29-2.35,6.93-5.66.03-.15.17-.24.32-.21.15.03.24.17.21.32-.69,3.54-3.79,6.09-7.4,6.09Z"/>
      <path class="cls-2" d="m783.47,16.63c-.15,0-.27-.12-.27-.27V1.25c0-.15.12-.27.27-.27s.27.12.27.27v15.11c0,.15-.12.27-.27.27Z"/>
    </g>
  </g>
  <g>
    <g>
      <path class="cls-1" d="m742.07,9.03h-12.38c-.15,0-.27-.12-.27-.27V.32c0-.15.12-.27.27-.27s.27.12.27.27v8.16h11.83V.43c0-.15.12-.27.27-.27s.27.12.27.27v8.32c0,.15-.12.27-.27.27Z"/>
      <path class="cls-1" d="m735.88,16.58c-.15,0-.27-.12-.27-.27V4.6c0-.15.12-.27.27-.27s.27.12.27.27v11.72c0,.15-.12.27-.27.27Z"/>
    </g>
    <g>
      <path class="cls-2" d="m712.45,16.2c-.15,0-.27-.12-.27-.27V.71c0-.15.12-.27.27-.27s.27.12.27.27v15.22c0,.15-.12.27-.27.27Z"/>
      <path class="cls-2" d="m715.63,16.2c-.15,0-.27-.12-.27-.27V.71c0-.15.12-.27.27-.27h4.49c.15,0,.27.12.27.27s-.12.27-.27.27h-4.22v14.95c0,.15-.12.27-.27.27Z"/>
    </g>
    <g>
      <path class="cls-1" d="m660.46,16.64c-.09,0-.17-.04-.22-.12l-10.84-16.1c-.08-.12-.05-.29.07-.38.12-.08.29-.05.38.07l10.84,16.1c.08.12.05.29-.07.38-.05.03-.1.05-.15.05Z"/>
      <path class="cls-1" d="m660.46,16.64c-.09,0-.17-.04-.22-.12l-10.84-16.1c-.08-.12-.05-.29.07-.38.12-.08.29-.05.38.07l10.84,16.1c.08.12.05.29-.07.38-.05.03-.1.05-.15.05Z"/>
      <path class="cls-1" d="m649.57,16.6c-.05,0-.11-.02-.15-.05-.12-.08-.15-.25-.07-.38L660.29.15c.08-.12.25-.16.38-.07.12.08.15.25.07.38l-10.94,16.03c-.05.08-.14.12-.22.12Z"/>
    </g>
    <g>
      <path class="cls-1" d="m701.91,16.64c-.09,0-.17-.04-.22-.12l-10.84-16.1c-.08-.12-.05-.29.07-.38.12-.08.29-.05.38.07l10.84,16.1c.08.12.05.29-.07.38-.05.03-.1.05-.15.05Z"/>
      <path class="cls-1" d="m701.91,16.64c-.09,0-.17-.04-.22-.12l-10.84-16.1c-.08-.12-.05-.29.07-.38.12-.08.29-.05.38.07l10.84,16.1c.08.12.05.29-.07.38-.05.03-.1.05-.15.05Z"/>
      <path class="cls-1" d="m691.02,16.6c-.05,0-.11-.02-.15-.05-.12-.08-.15-.25-.07-.38L701.74.15c.08-.12.25-.16.38-.07.12.08.15.25.07.38l-10.94,16.03c-.05.08-.14.12-.22.12Z"/>
    </g>
    <g>
      <path class="cls-2" d="m675.99,6.42s-.05,0-.07,0c-3.55-.03-6.63-2.58-7.32-6.06-.03-.15.07-.29.21-.32.15-.03.29.07.32.21.64,3.23,3.5,5.59,6.79,5.62,3.37.04,6.29-2.35,6.93-5.66.03-.15.17-.24.32-.21.15.03.24.17.21.32-.69,3.54-3.79,6.09-7.4,6.09Z"/>
      <path class="cls-2" d="m675.99,16.63c-.15,0-.27-.12-.27-.27V1.25c0-.15.12-.27.27-.27s.27.12.27.27v15.11c0,.15-.12.27-.27.27Z"/>
    </g>
  </g>
  <g>
    <g>
      <path class="cls-1" d="m849.54,9.03h-12.38c-.15,0-.27-.12-.27-.27V.32c0-.15.12-.27.27-.27s.27.12.27.27v8.16h11.83V.43c0-.15.12-.27.27-.27s.27.12.27.27v8.32c0,.15-.12.27-.27.27Z"/>
      <path class="cls-1" d="m843.35,16.58c-.15,0-.27-.12-.27-.27V4.6c0-.15.12-.27.27-.27s.27.12.27.27v11.72c0,.15-.12.27-.27.27Z"/>
    </g>
    <g>
      <path class="cls-2" d="m819.93,16.2c-.15,0-.27-.12-.27-.27V.71c0-.15.12-.27.27-.27s.27.12.27.27v15.22c0,.15-.12.27-.27.27Z"/>
      <path class="cls-2" d="m823.1,16.2c-.15,0-.27-.12-.27-.27V.71c0-.15.12-.27.27-.27h4.49c.15,0,.27.12.27.27s-.12.27-.27.27h-4.22v14.95c0,.15-.12.27-.27.27Z"/>
    </g>
    <g>
      <path class="cls-1" d="m767.93,16.64c-.09,0-.17-.04-.22-.12l-10.84-16.1c-.08-.12-.05-.29.07-.38.12-.08.29-.05.38.07l10.84,16.1c.08.12.05.29-.07.38-.05.03-.1.05-.15.05Z"/>
      <path class="cls-1" d="m767.93,16.64c-.09,0-.17-.04-.22-.12l-10.84-16.1c-.08-.12-.05-.29.07-.38.12-.08.29-.05.38.07l10.84,16.1c.08.12.05.29-.07.38-.05.03-.1.05-.15.05Z"/>
      <path class="cls-1" d="m757.04,16.6c-.05,0-.11-.02-.15-.05-.12-.08-.15-.25-.07-.38L767.76.15c.08-.12.25-.16.38-.07.12.08.15.25.07.38l-10.94,16.03c-.05.08-.14.12-.22.12Z"/>
    </g>
    <g>
      <path class="cls-1" d="m809.38,16.64c-.09,0-.17-.04-.22-.12l-10.84-16.1c-.08-.12-.05-.29.07-.38.12-.08.29-.05.38.07l10.84,16.1c.08.12.05.29-.07.38-.05.03-.1.05-.15.05Z"/>
      <path class="cls-1" d="m809.38,16.64c-.09,0-.17-.04-.22-.12l-10.84-16.1c-.08-.12-.05-.29.07-.38.12-.08.29-.05.38.07l10.84,16.1c.08.12.05.29-.07.38-.05.03-.1.05-.15.05Z"/>
      <path class="cls-1" d="m798.49,16.6c-.05,0-.11-.02-.15-.05-.12-.08-.15-.25-.07-.38L809.21.15c.08-.12.25-.16.38-.07.12.08.15.25.07.38l-10.94,16.03c-.05.08-.14.12-.22.12Z"/>
    </g>
    <g>
      <path class="cls-2" d="m783.47,6.42s-.05,0-.07,0c-3.55-.03-6.63-2.58-7.32-6.06-.03-.15.07-.29.21-.32.15-.03.29.07.32.21.64,3.23,3.5,5.59,6.79,5.62,3.37.04,6.29-2.35,6.93-5.66.03-.15.17-.24.32-.21.15.03.24.17.21.32-.69,3.54-3.79,6.09-7.4,6.09Z"/>
      <path class="cls-2" d="m783.47,16.63c-.15,0-.27-.12-.27-.27V1.25c0-.15.12-.27.27-.27s.27.12.27.27v15.11c0,.15-.12.27-.27.27Z"/>
    </g>
  </g>
  <g>
    <g>
      <path class="cls-1" d="m960.28,9.51h-12.38c-.15,0-.27-.12-.27-.27V.81c0-.15.12-.27.27-.27s.27.12.27.27v8.16h11.83V.92c0-.15.12-.27.27-.27s.27.12.27.27v8.32c0,.15-.12.27-.27.27Z"/>
      <path class="cls-1" d="m954.09,17.07c-.15,0-.27-.12-.27-.27V5.08c0-.15.12-.27.27-.27s.27.12.27.27v11.72c0,.15-.12.27-.27.27Z"/>
    </g>
    <g>
      <path class="cls-2" d="m930.66,16.69c-.15,0-.27-.12-.27-.27V1.2c0-.15.12-.27.27-.27s.27.12.27.27v15.22c0,.15-.12.27-.27.27Z"/>
      <path class="cls-2" d="m933.84,16.69c-.15,0-.27-.12-.27-.27V1.2c0-.15.12-.27.27-.27h4.49c.15,0,.27.12.27.27s-.12.27-.27.27h-4.22v14.95c0,.15-.12.27-.27.27Z"/>
    </g>
    <g>
      <path class="cls-1" d="m878.67,17.13c-.09,0-.17-.04-.22-.12l-10.84-16.1c-.08-.12-.05-.29.07-.38.12-.08.29-.05.38.07l10.84,16.1c.08.12.05.29-.07.38-.05.03-.1.05-.15.05Z"/>
      <path class="cls-1" d="m878.67,17.13c-.09,0-.17-.04-.22-.12l-10.84-16.1c-.08-.12-.05-.29.07-.38.12-.08.29-.05.38.07l10.84,16.1c.08.12.05.29-.07.38-.05.03-.1.05-.15.05Z"/>
      <path class="cls-1" d="m867.78,17.09c-.05,0-.11-.02-.15-.05-.12-.08-.15-.25-.07-.38l10.94-16.03c.08-.12.25-.16.38-.07.12.08.15.25.07.38l-10.94,16.03c-.05.08-.14.12-.22.12Z"/>
    </g>
    <g>
      <path class="cls-1" d="m920.12,17.13c-.09,0-.17-.04-.22-.12l-10.84-16.1c-.08-.12-.05-.29.07-.38.12-.08.29-.05.38.07l10.84,16.1c.08.12.05.29-.07.38-.05.03-.1.05-.15.05Z"/>
      <path class="cls-1" d="m920.12,17.13c-.09,0-.17-.04-.22-.12l-10.84-16.1c-.08-.12-.05-.29.07-.38.12-.08.29-.05.38.07l10.84,16.1c.08.12.05.29-.07.38-.05.03-.1.05-.15.05Z"/>
      <path class="cls-1" d="m909.23,17.09c-.05,0-.11-.02-.15-.05-.12-.08-.15-.25-.07-.38l10.94-16.03c.08-.12.25-.16.38-.07.12.08.15.25.07.38l-10.94,16.03c-.05.08-.14.12-.22.12Z"/>
    </g>
    <g>
      <path class="cls-2" d="m894.2,6.9s-.05,0-.07,0c-3.55-.03-6.63-2.58-7.32-6.06-.03-.15.07-.29.21-.32.15-.03.29.07.32.21.64,3.23,3.5,5.59,6.79,5.62,3.37.04,6.29-2.35,6.93-5.66.03-.15.17-.24.32-.21.15.03.24.17.21.32-.69,3.54-3.79,6.09-7.4,6.09Z"/>
      <path class="cls-2" d="m894.2,17.12c-.15,0-.27-.12-.27-.27V1.74c0-.15.12-.27.27-.27s.27.12.27.27v15.11c0,.15-.12.27-.27.27Z"/>
    </g>
  </g>
  <g>
    <g>
      <path class="cls-1" d="m1067.75,9.51h-12.38c-.15,0-.27-.12-.27-.27V.81c0-.15.12-.27.27-.27s.27.12.27.27v8.16h11.83V.92c0-.15.12-.27.27-.27s.27.12.27.27v8.32c0,.15-.12.27-.27.27Z"/>
      <path class="cls-1" d="m1061.56,17.07c-.15,0-.27-.12-.27-.27V5.08c0-.15.12-.27.27-.27s.27.12.27.27v11.72c0,.15-.12.27-.27.27Z"/>
    </g>
    <g>
      <path class="cls-2" d="m1038.14,16.69c-.15,0-.27-.12-.27-.27V1.2c0-.15.12-.27.27-.27s.27.12.27.27v15.22c0,.15-.12.27-.27.27Z"/>
      <path class="cls-2" d="m1041.31,16.69c-.15,0-.27-.12-.27-.27V1.2c0-.15.12-.27.27-.27h4.49c.15,0,.27.12.27.27s-.12.27-.27.27h-4.22v14.95c0,.15-.12.27-.27.27Z"/>
    </g>
    <g>
      <path class="cls-1" d="m986.15,17.13c-.09,0-.17-.04-.22-.12l-10.84-16.1c-.08-.12-.05-.29.07-.38.12-.08.29-.05.38.07l10.84,16.1c.08.12.05.29-.07.38-.05.03-.1.05-.15.05Z"/>
      <path class="cls-1" d="m986.15,17.13c-.09,0-.17-.04-.22-.12l-10.84-16.1c-.08-.12-.05-.29.07-.38.12-.08.29-.05.38.07l10.84,16.1c.08.12.05.29-.07.38-.05.03-.1.05-.15.05Z"/>
      <path class="cls-1" d="m975.25,17.09c-.05,0-.11-.02-.15-.05-.12-.08-.15-.25-.07-.38l10.94-16.03c.08-.12.25-.16.38-.07.12.08.15.25.07.38l-10.94,16.03c-.05.08-.14.12-.22.12Z"/>
    </g>
    <g>
      <path class="cls-1" d="m1027.6,17.13c-.09,0-.17-.04-.22-.12l-10.84-16.1c-.08-.12-.05-.29.07-.38.12-.08.29-.05.38.07l10.84,16.1c.08.12.05.29-.07.38-.05.03-.1.05-.15.05Z"/>
      <path class="cls-1" d="m1027.6,17.13c-.09,0-.17-.04-.22-.12l-10.84-16.1c-.08-.12-.05-.29.07-.38.12-.08.29-.05.38.07l10.84,16.1c.08.12.05.29-.07.38-.05.03-.1.05-.15.05Z"/>
      <path class="cls-1" d="m1016.7,17.09c-.05,0-.11-.02-.15-.05-.12-.08-.15-.25-.07-.38l10.94-16.03c.08-.12.25-.16.38-.07.12.08.15.25.07.38l-10.94,16.03c-.05.08-.14.12-.22.12Z"/>
    </g>
    <g>
      <path class="cls-2" d="m1001.68,6.9s-.05,0-.07,0c-3.55-.03-6.63-2.58-7.32-6.06-.03-.15.07-.29.21-.32.15-.03.29.07.32.21.64,3.23,3.5,5.59,6.79,5.62,3.37.04,6.29-2.35,6.93-5.66.03-.15.17-.24.32-.21.15.03.24.17.21.32-.69,3.54-3.79,6.09-7.4,6.09Z"/>
      <path class="cls-2" d="m1001.68,17.12c-.15,0-.27-.12-.27-.27V1.74c0-.15.12-.27.27-.27s.27.12.27.27v15.11c0,.15-.12.27-.27.27Z"/>
    </g>
  </g>
  <g>
    <g>
      <path class="cls-1" d="m960.28,9.51h-12.38c-.15,0-.27-.12-.27-.27V.81c0-.15.12-.27.27-.27s.27.12.27.27v8.16h11.83V.92c0-.15.12-.27.27-.27s.27.12.27.27v8.32c0,.15-.12.27-.27.27Z"/>
      <path class="cls-1" d="m954.09,17.07c-.15,0-.27-.12-.27-.27V5.08c0-.15.12-.27.27-.27s.27.12.27.27v11.72c0,.15-.12.27-.27.27Z"/>
    </g>
    <g>
      <path class="cls-2" d="m930.66,16.69c-.15,0-.27-.12-.27-.27V1.2c0-.15.12-.27.27-.27s.27.12.27.27v15.22c0,.15-.12.27-.27.27Z"/>
      <path class="cls-2" d="m933.84,16.69c-.15,0-.27-.12-.27-.27V1.2c0-.15.12-.27.27-.27h4.49c.15,0,.27.12.27.27s-.12.27-.27.27h-4.22v14.95c0,.15-.12.27-.27.27Z"/>
    </g>
    <g>
      <path class="cls-1" d="m878.67,17.13c-.09,0-.17-.04-.22-.12l-10.84-16.1c-.08-.12-.05-.29.07-.38.12-.08.29-.05.38.07l10.84,16.1c.08.12.05.29-.07.38-.05.03-.1.05-.15.05Z"/>
      <path class="cls-1" d="m878.67,17.13c-.09,0-.17-.04-.22-.12l-10.84-16.1c-.08-.12-.05-.29.07-.38.12-.08.29-.05.38.07l10.84,16.1c.08.12.05.29-.07.38-.05.03-.1.05-.15.05Z"/>
      <path class="cls-1" d="m867.78,17.09c-.05,0-.11-.02-.15-.05-.12-.08-.15-.25-.07-.38l10.94-16.03c.08-.12.25-.16.38-.07.12.08.15.25.07.38l-10.94,16.03c-.05.08-.14.12-.22.12Z"/>
    </g>
    <g>
      <path class="cls-1" d="m920.12,17.13c-.09,0-.17-.04-.22-.12l-10.84-16.1c-.08-.12-.05-.29.07-.38.12-.08.29-.05.38.07l10.84,16.1c.08.12.05.29-.07.38-.05.03-.1.05-.15.05Z"/>
      <path class="cls-1" d="m920.12,17.13c-.09,0-.17-.04-.22-.12l-10.84-16.1c-.08-.12-.05-.29.07-.38.12-.08.29-.05.38.07l10.84,16.1c.08.12.05.29-.07.38-.05.03-.1.05-.15.05Z"/>
      <path class="cls-1" d="m909.23,17.09c-.05,0-.11-.02-.15-.05-.12-.08-.15-.25-.07-.38l10.94-16.03c.08-.12.25-.16.38-.07.12.08.15.25.07.38l-10.94,16.03c-.05.08-.14.12-.22.12Z"/>
    </g>
    <g>
      <path class="cls-2" d="m894.2,6.9s-.05,0-.07,0c-3.55-.03-6.63-2.58-7.32-6.06-.03-.15.07-.29.21-.32.15-.03.29.07.32.21.64,3.23,3.5,5.59,6.79,5.62,3.37.04,6.29-2.35,6.93-5.66.03-.15.17-.24.32-.21.15.03.24.17.21.32-.69,3.54-3.79,6.09-7.4,6.09Z"/>
      <path class="cls-2" d="m894.2,17.12c-.15,0-.27-.12-.27-.27V1.74c0-.15.12-.27.27-.27s.27.12.27.27v15.11c0,.15-.12.27-.27.27Z"/>
    </g>
  </g>
  <g>
    <g>
      <path class="cls-1" d="m1067.75,9.51h-12.38c-.15,0-.27-.12-.27-.27V.81c0-.15.12-.27.27-.27s.27.12.27.27v8.16h11.83V.92c0-.15.12-.27.27-.27s.27.12.27.27v8.32c0,.15-.12.27-.27.27Z"/>
      <path class="cls-1" d="m1061.56,17.07c-.15,0-.27-.12-.27-.27V5.08c0-.15.12-.27.27-.27s.27.12.27.27v11.72c0,.15-.12.27-.27.27Z"/>
    </g>
    <g>
      <path class="cls-2" d="m1038.14,16.69c-.15,0-.27-.12-.27-.27V1.2c0-.15.12-.27.27-.27s.27.12.27.27v15.22c0,.15-.12.27-.27.27Z"/>
      <path class="cls-2" d="m1041.31,16.69c-.15,0-.27-.12-.27-.27V1.2c0-.15.12-.27.27-.27h4.49c.15,0,.27.12.27.27s-.12.27-.27.27h-4.22v14.95c0,.15-.12.27-.27.27Z"/>
    </g>
    <g>
      <path class="cls-1" d="m986.15,17.13c-.09,0-.17-.04-.22-.12l-10.84-16.1c-.08-.12-.05-.29.07-.38.12-.08.29-.05.38.07l10.84,16.1c.08.12.05.29-.07.38-.05.03-.1.05-.15.05Z"/>
      <path class="cls-1" d="m986.15,17.13c-.09,0-.17-.04-.22-.12l-10.84-16.1c-.08-.12-.05-.29.07-.38.12-.08.29-.05.38.07l10.84,16.1c.08.12.05.29-.07.38-.05.03-.1.05-.15.05Z"/>
      <path class="cls-1" d="m975.25,17.09c-.05,0-.11-.02-.15-.05-.12-.08-.15-.25-.07-.38l10.94-16.03c.08-.12.25-.16.38-.07.12.08.15.25.07.38l-10.94,16.03c-.05.08-.14.12-.22.12Z"/>
    </g>
    <g>
      <path class="cls-1" d="m1027.6,17.13c-.09,0-.17-.04-.22-.12l-10.84-16.1c-.08-.12-.05-.29.07-.38.12-.08.29-.05.38.07l10.84,16.1c.08.12.05.29-.07.38-.05.03-.1.05-.15.05Z"/>
      <path class="cls-1" d="m1027.6,17.13c-.09,0-.17-.04-.22-.12l-10.84-16.1c-.08-.12-.05-.29.07-.38.12-.08.29-.05.38.07l10.84,16.1c.08.12.05.29-.07.38-.05.03-.1.05-.15.05Z"/>
      <path class="cls-1" d="m1016.7,17.09c-.05,0-.11-.02-.15-.05-.12-.08-.15-.25-.07-.38l10.94-16.03c.08-.12.25-.16.38-.07.12.08.15.25.07.38l-10.94,16.03c-.05.08-.14.12-.22.12Z"/>
    </g>
    <g>
      <path class="cls-2" d="m1001.68,6.9s-.05,0-.07,0c-3.55-.03-6.63-2.58-7.32-6.06-.03-.15.07-.29.21-.32.15-.03.29.07.32.21.64,3.23,3.5,5.59,6.79,5.62,3.37.04,6.29-2.35,6.93-5.66.03-.15.17-.24.32-.21.15.03.24.17.21.32-.69,3.54-3.79,6.09-7.4,6.09Z"/>
      <path class="cls-2" d="m1001.68,17.12c-.15,0-.27-.12-.27-.27V1.74c0-.15.12-.27.27-.27s.27.12.27.27v15.11c0,.15-.12.27-.27.27Z"/>
    </g>
  </g>
</svg>