<?xml version="1.0" encoding="UTF-8"?>
<svg id="Layer_1" data-name="Layer 1" xmlns="http://www.w3.org/2000/svg" viewBox="0 0 513.42 91.82">
  <defs>
    <style>
      .cls-1 {
        fill: #bb573e;
      }

      .cls-2 {
        fill: #231f20;
      }
    </style>
  </defs>
  <g>
    <path class="cls-2" d="m511.93,49.82h-68.29c-.82,0-1.49-.67-1.49-1.49V1.79c0-.82.67-1.49,1.49-1.49s1.49.67,1.49,1.49v45.04h65.31V2.4c0-.82.67-1.49,1.49-1.49s1.49.67,1.49,1.49v45.93c0,.82-.67,1.49-1.49,1.49Z"/>
    <path class="cls-2" d="m477.78,91.52c-.82,0-1.49-.67-1.49-1.49V25.36c0-.82.67-1.49,1.49-1.49s1.49.67,1.49,1.49v64.66c0,.82-.67,1.49-1.49,1.49Z"/>
  </g>
  <g>
    <path class="cls-1" d="m348.51,89.4c-.82,0-1.49-.67-1.49-1.49V3.91c0-.82.67-1.49,1.49-1.49s1.49.67,1.49,1.49v84c0,.82-.67,1.49-1.49,1.49Z"/>
    <path class="cls-1" d="m366.04,89.4c-.82,0-1.49-.67-1.49-1.49V3.91c0-.82.67-1.49,1.49-1.49h24.78c.82,0,1.49.67,1.49,1.49s-.67,1.49-1.49,1.49h-23.29v82.51c0,.82-.67,1.49-1.49,1.49Z"/>
  </g>
  <g>
    <path class="cls-2" d="m61.6,91.82c-.48,0-.95-.23-1.24-.66L.54,2.32C.08,1.64.26.71.94.25,1.62-.21,2.55-.02,3.01.66l59.83,88.84c.46.68.28,1.61-.4,2.07-.26.17-.55.25-.83.25Z"/>
    <path class="cls-2" d="m61.6,91.82c-.48,0-.95-.23-1.24-.66L.54,2.32C.08,1.64.26.71.94.25,1.62-.21,2.55-.02,3.01.66l59.83,88.84c.46.68.28,1.61-.4,2.07-.26.17-.55.25-.83.25Z"/>
    <path class="cls-2" d="m1.49,91.63c-.29,0-.58-.08-.84-.26-.68-.46-.85-1.39-.39-2.07L60.65.84c.46-.68,1.39-.86,2.07-.39.68.46.85,1.39.39,2.07L2.72,90.98c-.29.42-.76.65-1.23.65Z"/>
  </g>
  <g>
    <path class="cls-2" d="m290.34,91.82c-.48,0-.95-.23-1.24-.66L229.27,2.32c-.46-.68-.28-1.61.4-2.07.68-.46,1.61-.28,2.07.4l59.83,88.84c.46.68.28,1.61-.4,2.07-.26.17-.55.25-.83.25Z"/>
    <path class="cls-2" d="m290.34,91.82c-.48,0-.95-.23-1.24-.66L229.27,2.32c-.46-.68-.28-1.61.4-2.07.68-.46,1.61-.28,2.07.4l59.83,88.84c.46.68.28,1.61-.4,2.07-.26.17-.55.25-.83.25Z"/>
    <path class="cls-2" d="m230.23,91.63c-.29,0-.58-.08-.84-.26-.68-.46-.85-1.39-.39-2.07L289.39.84c.46-.68,1.39-.86,2.07-.39.68.46.85,1.39.39,2.07l-60.39,88.45c-.29.42-.76.65-1.23.65Z"/>
  </g>
  <g>
    <path class="cls-1" d="m147.31,35.4c-.13,0-.26,0-.39,0-19.59-.18-36.57-14.24-40.39-33.42-.16-.81.36-1.59,1.17-1.75.81-.16,1.59.36,1.75,1.17,3.54,17.8,19.31,30.85,37.5,31.02,18.58.22,34.72-12.95,38.25-31.21.16-.81.94-1.33,1.75-1.18.81.16,1.34.94,1.18,1.75-3.79,19.54-20.92,33.63-40.82,33.63Z"/>
    <path class="cls-1" d="m147.32,91.79c-.82,0-1.49-.67-1.49-1.49V6.9c0-.82.67-1.49,1.49-1.49s1.49.67,1.49,1.49v83.4c0,.82-.67,1.49-1.49,1.49Z"/>
  </g>
</svg>