<?xml version="1.0" encoding="UTF-8"?>
<svg id="Layer_1" data-name="Layer 1" xmlns="http://www.w3.org/2000/svg" viewBox="0 0 887.89 310.72">
  <defs>
    <style>
      .cls-1 {
        fill: #bb573e;
      }
    </style>
  </defs>
  <path class="cls-1" d="m132.06,57.4c-7.37-8-15.22-13.91-23.57-17.73-8.35-3.82-17.57-5.74-27.67-5.74-8.14,0-16.08,1.65-23.83,4.95-7.75,3.3-14.47,7.89-20.15,13.78-5.89,6.1-10.31,12.93-13.26,20.47-2.95,7.54-4.42,15.87-4.42,24.99,0,7.16.88,13.75,2.63,19.78,1.75,6.03,4.38,11.57,7.89,16.63,6.17,8.77,13.77,15.52,22.78,20.26,9.01,4.74,18.75,7.1,29.2,7.1,9.82,0,18.94-2.03,27.36-6.1,8.42-4.07,16.1-10.14,23.04-18.2v24.31c-7.65,5.54-15.87,9.73-24.68,12.58-8.8,2.84-17.91,4.26-27.31,4.26-8.14,0-16.06-1.21-23.78-3.63-7.72-2.42-14.94-5.94-21.68-10.58-11.22-7.79-19.8-17.36-25.73-28.73C2.96,124.43,0,111.94,0,98.33c0-11.85,1.98-22.64,5.95-32.36,3.96-9.72,10.01-18.54,18.15-26.46,7.86-7.58,16.56-13.24,26.1-16.99,9.54-3.75,19.96-5.63,31.25-5.63,8.91,0,17.54,1.35,25.89,4.05,8.35,2.7,16.59,6.89,24.73,12.57v23.89h0Z"/>
  <path class="cls-1" d="m327.87,89.07c10.03,4.28,17.59,9.96,22.68,17.05,5.08,7.09,7.63,15.47,7.63,25.15,0,14.17-4.51,25.59-13.52,34.25-9.02,8.67-20.96,13-35.83,13-12.14,0-22.31-3.1-30.52-9.31-8.21-6.21-13.75-15.03-16.63-26.46l16.63-8.21c2.24,9.33,5.95,16.4,11.1,21.2,5.16,4.8,11.63,7.21,19.41,7.21,9.19,0,16.63-2.65,22.31-7.94,5.68-5.3,8.52-12.19,8.52-20.68,0-6.87-1.98-12.85-5.95-17.94-3.96-5.09-9.94-9.38-17.94-12.89l-18.73-8c-10.24-4.28-17.87-9.79-22.89-16.52-5.02-6.73-7.52-14.8-7.52-24.2,0-10.94,4.07-19.99,12.21-27.15,8.14-7.16,18.52-10.73,31.15-10.73,9.26,0,17.27,1.96,24.04,5.89,6.77,3.93,12.05,9.72,15.84,17.36l-15.15,9.68c-3.44-5.96-7.3-10.4-11.58-13.31-4.28-2.91-9.12-4.37-14.52-4.37-6.88,0-12.51,2.1-16.89,6.31-4.38,4.21-6.58,9.58-6.58,16.1,0,5.47,1.68,10.21,5.05,14.21,3.37,4,8.59,7.54,15.68,10.63l21.99,9.68h0Z"/>
  <path class="cls-1" d="m494.17,57.4c-7.36-8-15.22-13.91-23.57-17.73-8.35-3.82-17.57-5.74-27.68-5.74-8.14,0-16.08,1.65-23.83,4.95-7.75,3.3-14.47,7.89-20.15,13.78-5.89,6.1-10.31,12.93-13.26,20.47-2.95,7.54-4.42,15.87-4.42,24.99,0,7.16.88,13.75,2.63,19.78,1.75,6.03,4.38,11.57,7.89,16.63,6.17,8.77,13.77,15.52,22.78,20.26,9.02,4.74,18.75,7.1,29.2,7.1,9.82,0,18.94-2.03,27.36-6.1,8.42-4.07,16.1-10.14,23.04-18.2v24.31c-7.65,5.54-15.87,9.73-24.68,12.58-8.8,2.84-17.91,4.26-27.3,4.26-8.14,0-16.07-1.21-23.78-3.63-7.72-2.42-14.94-5.94-21.68-10.58-11.22-7.79-19.8-17.36-25.73-28.73-5.93-11.36-8.89-23.85-8.89-37.46,0-11.85,1.98-22.64,5.95-32.36,3.96-9.72,10.01-18.54,18.15-26.46,7.86-7.58,16.56-13.24,26.1-16.99,9.54-3.75,19.96-5.63,31.25-5.63,8.91,0,17.54,1.35,25.89,4.05,8.35,2.7,16.59,6.89,24.73,12.57v23.89h0Z"/>
  <path class="cls-1" d="m664.9,157.36h11.68c18.94,0,32.06-.82,39.36-2.47,7.29-1.65,13.36-4.47,18.2-8.47,6.31-5.26,11.12-12.05,14.41-20.36,3.3-8.31,4.95-17.84,4.95-28.57s-1.63-20.29-4.89-28.46c-3.26-8.17-8.08-14.92-14.47-20.26-4.84-4.07-11-6.96-18.47-8.68-7.47-1.72-20.5-2.58-39.09-2.58h-11.68v119.85h0Zm-18.52,17.26V20.57h29.57c21.89,0,37.3,1.1,46.25,3.31,8.95,2.21,16.79,5.91,23.52,11.1,8.84,6.8,15.54,15.51,20.1,26.1,4.56,10.59,6.84,22.8,6.84,36.62s-2.26,25.9-6.79,36.46c-4.53,10.56-11.24,19.24-20.15,26.04-6.73,5.19-14.4,8.89-22.99,11.1-8.59,2.21-21.98,3.32-40.15,3.32h-36.2Z"/>
  <polygon class="cls-1" points="784.68 174.62 784.68 20.57 877.11 20.57 877.11 37.3 802.99 37.3 802.99 88.02 877.11 88.02 877.11 105.06 802.99 105.06 802.99 157.58 877.11 157.58 877.11 174.62 784.68 174.62 784.68 174.62"/>
  <polygon class="cls-1" points="199.57 14.67 264.71 174.72 244.82 174.72 199.57 56.87 154.53 174.72 134.75 174.72 199.57 14.67 199.57 14.67"/>
  <path class="cls-1" d="m45.29,265.23h3.52c7.56,0,15.02,0,15.02-9.8s-6.92-10.22-15.02-10.22h-3.52v20.02h0Zm-20.88-36.85h31.95c17.25,0,29.18,7.99,29.18,26.41s-10.23,27.27-28.44,27.27h-11.82v26.63h-20.88v-80.31h0Z"/>
  <path class="cls-1" d="m166.75,228.28v45.16c0,10.33-.43,20.56-8.41,28.33-6.71,6.61-17.25,8.95-26.63,8.95s-19.92-2.34-26.63-8.95c-7.99-7.77-8.41-18-8.41-28.33v-45.16h20.88v42.28c0,10.44.75,21.83,14.17,21.83s14.16-11.4,14.16-21.83v-42.28h20.88Z"/>
  <path class="cls-1" d="m203.31,292.71h2.66c6.18,0,16.62.32,16.62-8.52,0-9.69-10.33-8.73-17.15-8.73h-2.13v17.25h0Zm0-32.8h2.34c5.54,0,11.29-.96,11.29-7.77,0-7.35-6.5-7.78-12.14-7.78h-1.49v15.55h0Zm-20.88,48.78v-80.31h29.82c14.27,0,23.86,5.54,23.86,20.88,0,7.24-2.34,13.1-8.84,16.4v.21c11.5,1.49,16.4,9.27,16.4,20.45,0,16.83-14.38,22.37-29.08,22.37h-32.17Z"/>
  <polygon class="cls-1" points="276.73 291.01 311.47 291.01 311.47 308.69 255.86 308.69 255.86 228.38 276.73 228.38 276.73 291.01 276.73 291.01"/>
  <polygon class="cls-1" points="345.96 308.69 325.09 308.69 325.09 228.38 345.96 228.38 345.96 308.69 345.96 308.69"/>
  <path class="cls-1" d="m421.1,255.23c-4.26-5.75-11.18-8.84-18.32-8.84-12.78,0-21.41,9.8-21.41,22.26s8.73,21.83,21.73,21.83c6.82,0,13.63-3.3,18-8.52v25.03c-6.92,2.13-11.93,3.73-18.43,3.73-11.18,0-21.83-4.26-30.14-11.82-8.84-7.99-12.89-18.42-12.89-30.35,0-10.97,4.15-21.51,11.82-29.4,7.88-8.1,19.28-12.99,30.57-12.99,6.71,0,12.89,1.49,19.06,4.05v25.03h0Z"/>
  <polygon class="cls-1" points="524.5 228.38 545.05 228.38 561.35 271.3 578.61 228.38 599.37 228.38 611.52 308.69 590.64 308.69 584.78 262.46 584.57 262.46 565.29 308.69 556.99 308.69 538.56 262.46 538.35 262.46 531.64 308.69 510.87 308.69 524.5 228.38 524.5 228.38"/>
  <polygon class="cls-1" points="646.81 246.06 646.81 259.48 670.35 259.48 670.35 277.16 646.81 277.16 646.81 291.01 671.63 291.01 671.63 308.69 625.94 308.69 625.94 228.38 671.63 228.38 671.63 246.06 646.81 246.06 646.81 246.06"/>
  <path class="cls-1" d="m710.88,291.01h4.69c12.46,0,23.11-6.82,23.11-22.47,0-14.38-9.48-22.47-22.9-22.47h-4.9v44.95h0Zm-20.88-62.63h29.61c22.37,0,40.79,17.57,40.79,40.15s-18.53,40.15-40.79,40.15h-29.61v-80.31h0Z"/>
  <polygon class="cls-1" points="794.13 308.69 773.26 308.69 773.26 228.38 794.13 228.38 794.13 308.69 794.13 308.69"/>
  <path class="cls-1" d="m846.24,253.2h-.21l-8.63,25.56h17.36l-8.52-25.56h0Zm-14.59,41.54l-5.54,13.96h-22.15l30.89-80.31h22.79l30.25,80.31h-22.26l-5.22-13.96h-28.76Z"/>
  <polygon class="cls-1" points="467.63 308.48 565.25 45.97 614.54 174.36 636.21 174.36 565.25 0 446.72 308.48 467.63 308.48 467.63 308.48"/>
</svg>