<?xml version="1.0" encoding="UTF-8"?>
<svg id="Layer_1" data-name="Layer 1" xmlns="http://www.w3.org/2000/svg" viewBox="0 0 837.56 197.1">
  <defs>
    <style>
      .cls-1 {
        fill: #bb573e;
      }
    </style>
  </defs>
  <path class="cls-1" d="m782.62,149c.21-1.85.42-3.71.65-5.72,1.54,0,2.96.03,4.37,0,.88-.02,1.99.34,2.05-1.22.06-1.49-.84-1.63-1.97-1.63-4.35,0-8.7.01-13.05,0-.92,0-1.78-.05-1.78,1.3,0,1.35.79,1.54,1.86,1.53,1.67-.02,3.34,0,5.04,0,.21,1.72.38,3.12.55,4.52.08,4.46.13,8.91.28,13.37.02.62.55,1.23.84,1.84.39-.61,1.1-1.22,1.11-1.84.1-4.04.06-8.09.06-12.14Z"/>
  <path class="cls-1" d="m384.08,150.07c1.24,3.36,2.43,6.74,3.75,10.07.45,1.13,1.23,2.14,1.86,3.2.28,0,.56,0,.84.01,1.11-2.85,2.23-5.7,3.32-8.56,1.07-2.83,2.09-5.68,3.13-8.52.62,3.53.75,6.96,1,10.38.12,1.68.38,3.36.78,4.99.14.56.91.97,1.39,1.45.36-.66,1-1.31,1.02-1.98.04-1.53-.29-3.08-.35-4.62-.17-4.87-.27-9.74-.45-14.61-.02-.46-.24-1.14-.58-1.34-1.49-.84-3.67.06-4.28,1.7-1.12,2.98-2.22,5.96-3.3,8.96-.73,2.03-1.41,4.07-2.28,6.57-1.01-3.15-1.81-5.71-2.65-8.25-.87-2.63-1.79-5.25-2.69-7.88-.64-1.89-2.25-1.14-3.49-1.15-.39,0-1.09.76-1.13,1.2-.22,2.96-.29,5.93-.41,8.9-.16,3.37-.38,6.73-.43,10.1-.01.83.53,1.68.82,2.52.27-.04.55-.09.82-.13,1.32-3.77.79-7.78,1.25-11.67.09-.28.18-.57.27-.85.6-.17,1.2-.33,1.8-.5Z"/>
  <path class="cls-1" d="m498.15,148.57c.08-.76.16-1.53.29-2.76,3.08,5.88,3.65,12.29,7.6,17.92.82-1.39,1.48-2.22,1.83-3.17,1.55-4.19,3-8.41,4.52-12.61.22-.61.6-1.17.91-1.76.3.06.59.11.89.17,0,4.64-.11,9.29.09,13.93.04.96,1.19,1.87,1.82,2.8.44-.89,1.26-1.78,1.26-2.67,0-3.58-.22-7.16-.4-10.74-.12-2.29-.2-4.59-.51-6.86-.13-1-.01-2.4-1.8-2.46-1.65-.05-2.74.47-3.28,2.08-.78,2.31-1.62,4.59-2.44,6.89-.92,2.56-1.85,5.13-2.94,8.16-.34-.87-.5-1.22-.62-1.58-1.52-4.62-3.11-9.23-4.5-13.89-.53-1.76-1.7-1.56-3.01-1.62-1.43-.07-1.76.81-1.82,1.9-.12,2.09-.16,4.17-.24,6.26-.32,4.1-.52,8.22-1.03,12.29-.16,1.25.3,1.77,1.18,1.81.46.02,1.33-.84,1.37-1.36.36-4.24.56-8.49.81-12.74Z"/>
  <path class="cls-1" d="m522.16,117.24c3.28,0,6.07.08,8.85-.07.54-.03,1.39-.88,1.51-1.46,1.2-6.23,2.14-12.51,3.42-18.72,1.18-5.74,2.17-11.61,4.2-17.06,2.31-6.19,6.47-11.33,12.92-13.94,5.08-2.06,10.72-.21,11.8,6.09.35,2.05.61,4.19.39,6.24-.38,3.55-1.12,7.06-1.78,10.57-1.68,8.89-3.38,17.78-5.16,26.65-.27,1.36.12,1.72,1.36,1.7,2.25-.03,4.5-.05,6.75.02,1.4.04,1.94-.72,2.16-1.92,1.38-7.64,2.77-15.28,4.15-22.91,1.05-5.79,1.99-11.63,5.16-16.76,2.45-3.98,5.4-7.51,9.86-9.43,6.2-2.66,12.05,0,13.04,6.17.44,2.71.5,5.61.02,8.3-2.05,11.56-4.36,23.09-6.62,34.61-.26,1.35.08,1.93,1.47,1.92,2.25-.02,4.5-.01,6.75.01,1.4.02,2.02-.59,2.27-2.01,1.24-7.11,2.63-14.2,3.9-21.31,1.41-7.9,3.44-15.7,3.1-23.86-.25-6.03-4.3-11.54-10.17-13.02-8.29-2.09-18.72,2.01-23.9,9.4-.41.58-.85,1.14-1.58,2.11-.53-1.33-.92-2.22-1.25-3.14-2.61-7.28-7.8-9.21-13.52-9.01-8.1.29-14.78,3.83-19.36,10.75-.24.36-.57.67-1.18,1.38.45-3.82.83-7.13,1.23-10.54h-8.9c-3.63,19.77-7.23,39.33-10.89,59.25Z"/>
  <path class="cls-1" d="m269.24,117.22c3.04,0,5.62-.1,8.19.04,1.6.08,2.32-.43,2.61-2.02,1.12-6.17,2.41-12.32,3.49-18.5,1.55-8.83,3.97-17.52,3.51-26.65-.31-6.15-4.27-11.84-10.3-13.04-9.27-1.85-17.02,1.1-23.29,8.06-.58.64-1.09,1.34-1.64,2.01-.18-.1-.37-.21-.55-.31,2.35-12.13,4.69-24.27,7.06-36.52h-10.45c-.9,4.75-1.78,9.38-2.66,14.02-2.83,14.78-5.67,29.56-8.48,44.34-1.71,8.95-3.35,17.91-5.11,26.85-.26,1.33.04,1.75,1.32,1.73,2.45-.03,4.91.07,7.36-.08.57-.03,1.49-.74,1.59-1.27,1.45-7.42,2.77-14.86,4.17-22.29,1.05-5.57,1.84-11.24,4.85-16.23,3.33-5.54,7.47-10.15,14.06-11.93,3.79-1.02,9.97.54,10.92,6.42.47,2.9.7,6,.23,8.87-1.48,8.99-3.35,17.91-5.06,26.86-.59,3.1-1.18,6.2-1.84,9.63Z"/>
  <path class="cls-1" d="m410.43,57.82c-2.65,0-4.77.16-6.85-.04-2.15-.21-2.6.81-2.81,2.63-.63,5.56-1.18,11.15-2.18,16.65-2.33,12.81-4.88,25.58-7.4,38.35-.25,1.28.03,1.8,1.32,1.8,2.45,0,4.91.12,7.36-.04.6-.04,1.55-.85,1.67-1.43,1.34-6.75,2.53-13.52,3.8-20.29,1.12-5.98,2.21-12,5.33-17.36,3.75-6.43,8.17-11.98,16.82-11.35.37.03,1.04-.58,1.14-1,.59-2.43,1.1-4.87,1.53-7.33.23-1.31-.15-2.29-1.81-2.2-4.83.27-9.31,1.47-12.63,5.23-2.01,2.27-3.77,4.75-5.65,7.13-.19.23-.46.4-.99.83.47-4.01.89-7.63,1.35-11.59Z"/>
  <path class="cls-1" d="m559.23,155.68l-.66.14c-2.21-3.55-4.41-7.12-6.65-10.65-.87-1.37-1.68-2.84-2.84-3.93-.65-.6-1.97-.69-2.96-.62-.32.02-.78,1.28-.79,1.97-.06,5.96-.04,11.92-.03,17.87,0,.47-.08,1.13.18,1.36.5.45,1.2.78,1.87.92.2.04.8-.7.81-1.1.16-4.39.26-8.78.32-13.17.01-.8-.22-1.61-.33-2.41,2.26,2.77,4.08,5.67,5.93,8.55,1.58,2.45,3.1,4.94,4.87,7.24.47.61,1.75.71,2.69.8.23.02.8-.89.81-1.37.06-6.43.04-12.86.04-19.3,0-1.09-.5-1.58-1.63-1.58-1.25,0-1.65.59-1.64,1.77.04,3.52.02,7.04.02,10.56,0,.98,0,1.96,0,2.95Z"/>
  <path class="cls-1" d="m336.91,149.77c-2.97,0-5.6-.07-8.22.03-1.56.06-2.05-.58-2-2.03.06-1.96.1-3.94-.08-5.89-.05-.53-.87-1.23-1.46-1.4-.94-.26-1.74.14-1.73,1.37.01,6.5.01,13.01,0,19.51,0,1.17.65,1.46,1.71,1.49,1.14.03,1.59-.38,1.57-1.53-.04-2.44.09-4.88-.01-7.32-.06-1.47.49-1.88,1.89-1.81,2.11.1,4.23.14,6.34-.01,1.73-.13,2.08.6,2.01,2.11-.1,2.3.01,4.61-.02,6.91-.02,1.27.63,1.59,1.78,1.64,1.21.05,1.52-.48,1.52-1.57-.03-6.37-.03-12.74-.02-19.11,0-1.13-.36-1.78-1.66-1.76-1.25.03-1.66.59-1.64,1.77.05,2.29.02,4.58.02,7.59Z"/>
  <path class="cls-1" d="m291.49,148.52h.01c0,1.29.02,2.57,0,3.86-.03,1.28.04,2.59-.19,3.84-.47,2.51-2.52,4.17-4.81,4.12-2.37-.05-4.49-1.93-4.82-4.43-.24-1.87-.37-3.76-.42-5.64-.07-2.77-.03-5.55-.03-8.32,0-1.12-.59-1.74-1.65-1.46-.61.17-1.55.86-1.54,1.3.05,4.93,0,9.88.49,14.77.4,3.99,3.56,6.64,7.3,6.61,4.49-.03,7.79-1.83,8.22-5.7.57-5.14.36-10.36.45-15.55.02-1-.49-1.87-1.6-1.43-.61.24-1.3,1.11-1.35,1.74-.17,2.08-.06,4.19-.06,6.29Z"/>
  <path class="cls-1" d="m537.24,150.98c-.05-.25-.09-.5-.14-.75-1.37-.14-2.73-.39-4.1-.42-4.86-.1-4.82-.07-4.53-5.01.07-1.15.53-1.56,1.62-1.54,1.98.02,3.96.1,5.93-.06.66-.06,1.66-.69,1.8-1.23.31-1.24-.67-1.54-1.77-1.54-3.07.02-6.14.03-9.2-.03-1.21-.02-1.68.39-1.67,1.65.06,6.3.06,12.6.03,18.91,0,1.28.46,1.86,1.79,1.84,3.27-.04,6.55.03,9.82-.08.51-.02,1-.7,1.5-1.08-.51-.55-.92-1.37-1.55-1.6-.79-.28-1.75-.09-2.63-.09-5.91,0-5.87,0-5.67-5.93.05-1.45.62-1.84,1.98-1.84,1.69,0,3.39-.16,5.07-.38.6-.08,1.14-.54,1.71-.83Z"/>
  <path class="cls-1" d="m362.38,143.27c2.8,0,5.38.05,7.96-.05.47-.02,1.37-.81,1.31-.99-.22-.65-.74-1.68-1.19-1.69-3.73-.13-7.46-.08-11.14-.08-.14.4-.26.59-.26.78-.02,6.64,0,13.29-.04,19.93,0,1.26.58,1.65,1.75,1.64,3.07-.03,6.14,0,9.21-.01,1.03,0,2.15.15,2.15-1.43,0-1.59-1.19-1.39-2.18-1.4-2.5-.03-4.99,0-7.53,0v-7.52c2.48-.21,4.84-.37,7.18-.66.47-.06.87-.63,1.31-.96-.4-.31-.76-.75-1.22-.89-.57-.17-1.21-.11-1.83-.11-1.81,0-3.62,0-5.47,0v-6.55Z"/>
  <path class="cls-1" d="m682.97,151.04c-.06-.28-.13-.56-.19-.85-1.32-.13-2.64-.35-3.96-.38-4.86-.1-4.81-.07-4.6-4.94.06-1.28.59-1.65,1.75-1.62,1.84.04,3.68,0,5.52.02,1,.01,1.97-.23,1.67-1.4-.15-.59-1.07-1.35-1.68-1.38-2.99-.15-6-.05-9-.09-1.13-.01-1.56.4-1.55,1.56.05,6.3.06,12.61.02,18.91,0,1.39.5,1.96,1.92,1.93,3.2-.06,6.41-.03,9.62-.03.88,0,1.66-.02,1.59-1.26-.06-1.09-.54-1.57-1.66-1.55-2.25.04-4.5-.03-6.75.02-1.05.02-1.49-.34-1.45-1.4.06-1.49.08-2.98.01-4.47-.06-1.38.45-1.94,1.89-1.92,1.69.02,3.39-.16,5.07-.37.62-.08,1.19-.5,1.78-.77Z"/>
  <path class="cls-1" d="m722.27,151.06c-.06-.28-.12-.57-.18-.85-1.32-.13-2.63-.36-3.95-.39-4.86-.1-4.82-.07-4.62-4.92.05-1.26.55-1.67,1.73-1.64,1.91.05,3.83.12,5.72-.05.56-.05,1.04-.87,1.56-1.33-.51-.48-1-1.35-1.53-1.38-3.06-.14-6.13-.07-9.2-.08-1.11,0-1.57.49-1.56,1.62.04,6.3.05,12.61.02,18.91,0,1.27.44,1.88,1.78,1.86,3.07-.05,6.14-.04,9.21-.02,1.04,0,1.94-.31,1.62-1.44-.17-.58-1.11-1.26-1.75-1.31-2.03-.17-4.09-.1-6.13-.04-1.03.03-1.51-.3-1.47-1.38.06-1.56.07-3.12.02-4.68-.05-1.36.6-1.73,1.87-1.73,1.69-.01,3.39-.17,5.07-.38.62-.08,1.2-.5,1.8-.76Z"/>
  <path class="cls-1" d="m640.41,143.54c1.05-2.14.78-3.03-1.31-3.35-6.53-1.01-13,1.03-14.75,9-1.35,6.13,2.1,13.2,8.89,13.63,2.05.13,4.13-.13,6.19-.26,1.19-.07,1.99-.55,1.6-1.93-.37-1.34-1.29-1.05-2.28-.79-2.44.63-4.89.51-7.13-.62-3.34-1.68-5-6.15-3.91-10.03,1.33-4.69,5.24-7.09,10.03-6.16.86.17,1.73.33,2.67.51Z"/>
  <path class="cls-1" d="m659.25,139.9c-1.35.13-2.39.11-3.37.33-6.88,1.56-10.52,8.29-8.45,15.29,2.03,6.86,9.08,8.91,15.34,6.87.47-.15,1.11-1.28.96-1.49-.37-.56-1.09-.99-1.75-1.23-.35-.13-.88.3-1.34.38-4.08.75-8.17-.73-9.55-4.62-1-2.8-1.01-5.7.23-8.51.85-1.94,2.34-3.31,4.38-3.6,2.04-.29,4.16,0,6.24-.11.67-.04,1.32-.56,1.98-.85-.45-.65-.78-1.62-1.39-1.87-1.09-.44-2.37-.45-3.26-.59Z"/>
  <path class="cls-1" d="m229.72,140.71c.14.48.2.95.41,1.34,1.56,2.85,3.27,5.62,4.68,8.54.74,1.52,1.11,3.27,1.37,4.96.3,1.92.21,3.91.48,5.84.08.6.76,1.12,1.16,1.67.43-.59,1.17-1.13,1.25-1.77.27-2.07.27-4.17.44-6.25.06-.72.12-1.53.46-2.13,1.94-3.41,3.97-6.77,5.94-10.16.38-.65.6-1.38.91-2.1-2.42-.69-3.69.07-4.6,2.1-1.09,2.44-2.51,4.72-3.99,7.45-.57-.96-.96-1.55-1.3-2.17-1.06-1.97-2.08-3.95-3.14-5.91-.88-1.62-2.21-2.05-4.06-1.4Z"/>
  <path class="cls-1" d="m480.96,149.88c-.23-.03-.46-.07-.69-.1-1.04-2.04-2.07-4.09-3.13-6.11-.37-.71-.68-1.63-1.29-2.02-.89-.56-2.03-.73-3.06-1.07.2.89.19,1.9.63,2.65,3.2,5.49,6.79,10.83,5.56,17.69-.01.07,0,.14,0,.2-.07,1.18.44,1.69,1.68,1.72,1.29.03,1.65-.51,1.62-1.7-.06-2.1-.1-4.2.01-6.29.05-.98.3-2.01.74-2.88.87-1.75,1.94-3.41,2.91-5.11,1.15-2.01,2.29-4.02,3.5-6.15-2.28-.7-3.57-.17-4.42,1.6-.73,1.52-1.62,2.97-2.42,4.46-.55,1.02-1.08,2.06-1.62,3.09Z"/>
  <path class="cls-1" d="m307.44,153.03h0c0,2.37-.02,4.74,0,7.11.01,1.22-.42,2.67,1.72,2.7,2.2.03,1.51-1.5,1.52-2.55.06-4,.02-7.99.03-11.99q0-4.94,5.03-5.03c.14,0,.31.05.4,0,.52-.36,1.02-.74,1.53-1.12-.5-.57-.98-1.62-1.5-1.63-4.77-.13-9.54-.13-14.31-.02-.48.01-.94.97-1.4,1.49.49.43.93,1.14,1.48,1.22,1.27.19,2.59.15,3.87.06,1.29-.09,1.65.44,1.62,1.65-.06,2.71-.02,5.42-.02,8.13Z"/>
  <path class="cls-1" d="m574.74,152.63s.01,0,.02,0c0,2.64.03,5.29-.01,7.93-.02,1.26.36,2.19,1.75,2.23,1.58.05,1.14-1.24,1.16-2.08.15-5.14.33-10.29.34-15.43,0-1.68.65-2.15,2.18-2.03,1.15.09,2.34.16,3.47-.04.51-.09,1.24-.88,1.24-1.36,0-.47-.78-1.34-1.24-1.35-4.7-.1-9.41-.1-14.12,0-.45,0-1.22.89-1.22,1.36,0,.46.74,1.23,1.26,1.33,1.12.21,2.31.15,3.47.07,1.25-.08,1.73.41,1.71,1.63-.04,2.58-.01,5.15-.01,7.73Z"/>
  <path class="cls-1" d="m430.67,151.69h.02c0,3.05.04,6.1-.02,9.14-.02,1.33.35,2.02,1.84,1.99,3.07-.07,6.14.03,9.2-.1.56-.02,1.1-.79,1.64-1.21-.58-.51-1.11-1.38-1.74-1.45-1.89-.2-3.82-.21-5.71-.07-1.71.13-2.05-.57-2.05-2.11-.01-5.21-.15-10.42-.26-15.62-.02-.84.19-1.84-1.23-1.85-1.39-.01-1.72.7-1.7,1.93.04,3.12.01,6.23.01,9.35Z"/>
  <path class="cls-1" d="m694.24,147.56c-.1,0-.19,0-.29,0,0-1.76,0-3.53,0-5.29,0-.98.05-1.94-1.44-1.86-1.33.08-1.5.85-1.49,1.92.02,6.17.05,12.34,0,18.51-.01,1.54.6,2.02,2.07,1.98,3-.08,6,.02,9-.1.56-.02,1.09-.75,1.64-1.15-.54-.53-1.04-1.45-1.63-1.51-2.03-.2-4.09-.13-6.13-.09-1.21.02-1.75-.43-1.73-1.66.03-3.59.01-7.17.01-10.76Z"/>
  <path class="cls-1" d="m88.59,196.66c-10.31-.17-20.41-2.86-29.81-7.1-6.22-2.8-12.14-6.24-17.75-10.33-14.33-10.44-25.04-23.83-32.35-39.92-3.68-8.11-6.1-16.61-7.4-25.39-.99-6.74-1.74-13.51-.96-20.34.03-.25.06-.5.1-.75.52-11.6,3.33-22.68,7.99-33.28,10.24-23.27,27.13-40.16,50.22-50.88,7.96-3.69,16.31-6.37,25.11-7.41,3.21-.38,6.42-.81,9.63-1.22.14,0,.28-.02.42-.03,4.07,0,8.14,0,12.22.01l.73.06c5.09.79,10.2,1.49,15.27,2.41,9.11,1.65,17.64,4.97,25.7,9.44,18.92,10.48,33.06,25.43,42.38,44.91,3.8,7.95,6.46,16.25,7.95,24.88,1.34,7.78,1.8,15.68,1.3,23.55-1.39,21.43-9.17,40.35-22.62,57.17-12.88,16.11-29.8,25.86-49.12,32.03-1.94.62-3.97,1-5.99,1.37-2.94.53-7.54,1.34-10.52,1.27h-12.68l-9.8-.44Zm15.33-12.68c19.45-.3,40.31-8.6,57.13-25.86,16.88-17.31,24.73-38.38,23.97-62.43-1.41-44.38-37.95-79.72-82.29-81.39-26.89-1.01-48.79,9.71-66.78,28.94-14.04,15.02-21.05,33.3-21.45,53.47-.98,49.44,38.67,86.84,89.42,87.27Z"/>
  <path class="cls-1" d="m522.16,117.24c3.66-19.92,7.26-39.48,10.89-59.25h8.9c-.4,3.41-.79,6.73-1.23,10.54.62-.71.94-1.02,1.18-1.38,4.58-6.92,11.26-10.47,19.36-10.75,5.72-.2,10.91,1.72,13.52,9.01.33.91.71,1.8,1.25,3.14.72-.97,1.17-1.53,1.58-2.11,5.18-7.39,15.61-11.49,23.9-9.4,5.86,1.48,9.91,6.99,10.17,13.02.34,8.16-1.68,15.96-3.1,23.86-1.27,7.11-2.65,14.2-3.9,21.31-.25,1.42-.87,2.03-2.27,2.01-2.25-.03-4.5-.03-6.75-.01-1.39.01-1.74-.57-1.47-1.92,2.26-11.53,4.56-23.05,6.62-34.61.48-2.69.41-5.59-.02-8.3-.99-6.16-6.85-8.83-13.04-6.17-4.46,1.91-7.4,5.45-9.86,9.43-3.17,5.13-4.11,10.97-5.16,16.76-1.38,7.64-2.77,15.28-4.15,22.91-.22,1.21-.75,1.96-2.16,1.92-2.25-.06-4.5-.04-6.75-.02-1.24.01-1.64-.34-1.36-1.7,1.78-8.87,3.47-17.76,5.16-26.65.67-3.51,1.41-7.03,1.78-10.57.22-2.05-.04-4.19-.39-6.24-1.08-6.3-6.72-8.14-11.8-6.09-6.45,2.61-10.61,7.75-12.92,13.94-2.03,5.46-3.02,11.32-4.2,17.06-1.28,6.21-2.22,12.49-3.42,18.72-.11.58-.96,1.44-1.51,1.46-2.78.15-5.57.07-8.85.07Z"/>
  <path class="cls-1" d="m652.29,30.25h10.49c-2.5,12.31-4.98,24.49-7.45,36.66.19.09.38.18.57.28.37-.4.77-.78,1.11-1.2,4.31-5.5,9.85-8.72,16.92-9.42,11.09-1.11,18.16,5.86,19.55,15.46,1.86,12.85-1.72,24.24-10,34.19-4.98,5.98-11.3,9.96-18.97,11.52-5.58,1.14-11.21,1.19-16.74-.56-4.98-1.58-8.55-6.12-9.14-11.42-.62-5.56.82-10.86,1.88-16.2,3.55-17.81,7.18-35.61,10.76-53.42.38-1.91.68-3.84,1.03-5.88Zm-2.86,67.14c-.6,9.57,2.03,11.99,6.82,12.78,4.43.73,8.79-.13,12.46-2.79,10.19-7.37,14.73-17.6,14.47-29.95-.07-3.62-1.32-6.92-4.17-9.59-3.21-3.01-10.97-3.35-15.26-.03-2.34,1.81-4.64,3.84-6.4,6.18-5.91,7.84-7.12,17.2-7.92,23.41Z"/>
  <path class="cls-1" d="m269.24,117.22c.65-3.43,1.24-6.53,1.84-9.63,1.72-8.95,3.58-17.87,5.06-26.86.47-2.87.24-5.97-.23-8.87-.95-5.87-7.14-7.44-10.92-6.42-6.59,1.77-10.73,6.39-14.06,11.93-3.01,4.99-3.79,10.66-4.85,16.23-1.41,7.43-2.72,14.87-4.17,22.29-.1.53-1.02,1.23-1.59,1.27-2.45.14-4.91.05-7.36.08-1.28.01-1.58-.4-1.32-1.73,1.76-8.94,3.4-17.9,5.11-26.85,2.82-14.78,5.66-29.56,8.48-44.34.89-4.63,1.76-9.26,2.66-14.02h10.45c-2.37,12.25-4.71,24.39-7.06,36.52.18.1.37.21.55.31.54-.67,1.06-1.37,1.64-2.01,6.26-6.96,14.02-9.91,23.29-8.06,6.02,1.2,9.99,6.9,10.3,13.04.45,9.13-1.96,17.82-3.51,26.65-1.08,6.18-2.38,12.32-3.49,18.5-.29,1.59-1.01,2.1-2.61,2.02-2.57-.13-5.16-.04-8.19-.04Z"/>
  <path class="cls-1" d="m352.13,103.62c-1.27,1.72-2.48,3.48-3.82,5.15-5.88,7.34-13.31,11.07-22.89,9.26-6.72-1.27-10.41-5.88-12.19-12.07-2.29-7.94-.86-15.71,2.08-23.19,4.13-10.53,11.23-18.46,21.73-23.15,6.24-2.79,12.87-3.41,19.59-2.99,3.78.24,7.52,1.02,11.29,1.47,1.69.2,1.97,1.11,1.67,2.54-1.83,8.72-3.86,17.41-5.4,26.19-1.23,6.97-1.91,14.04-2.71,21.07-.3,2.61-.31,5.26-.37,7.9-.03,1.02-.35,1.47-1.44,1.44-2.25-.06-4.5-.04-6.75-.03-1.21,0-1.78-.53-1.65-1.74.34-3.22.68-6.43,1.02-9.65.07-.7.14-1.4.21-2.1-.12-.04-.23-.08-.35-.11Zm-29.1-6.9c0,.81-.09,1.64.02,2.44.53,3.98,1.44,7.82,5.5,9.8,3.67,1.79,7.34,1.24,10.71-.76,5.9-3.5,9.67-8.84,12.31-14.99,3.61-8.41,4.12-17.57,6.2-26.35.25-1.05-.26-1.57-1.39-1.75-6.05-1-11.84-.33-17.12,2.86-10.82,6.53-15.39,16.63-16.23,28.76Z"/>
  <path class="cls-1" d="m483.49,103.43c-3.68,5.71-7.86,10.54-14.13,13.31-7.59,3.36-16.12,2.02-21.27-3.57-3.12-3.4-4.43-7.65-4.68-12.08-.62-10.96,2.57-20.88,9.43-29.47,6.47-8.11,14.8-13.26,25.28-14.64,6.95-.91,13.83-.36,20.69.95,1.67.32,2.13,1.02,1.81,2.61-2.12,10.45-4.28,20.89-6.25,31.37-1.35,7.18-2.17,14.43-1.9,21.77.13,3.56.04,3.57-3.44,3.57-1.7,0-3.41-.02-5.11-.02-1.2,0-1.62-.39-1.46-1.74.46-4,.72-8.03,1.05-12.05Zm-.64-38.79c-4.25-.03-8.27.89-11.93,3-7.24,4.18-12.21,10.32-14.86,18.17-1.84,5.46-2.96,11.06-1.28,16.87,1.53,5.28,6.39,8.19,11.82,6.93,5.43-1.26,8.9-5.05,11.98-9.22,4.02-5.45,6.12-11.71,7.35-18.3.88-4.71,1.83-9.4,2.77-14.09.34-1.7.14-2.96-2-3.06-1.29-.06-2.57-.2-3.86-.3Z"/>
  <path class="cls-1" d="m739.29,118.82c-2.8-.58-6.54-.87-9.89-2.16-7.19-2.76-10.89-8.6-12.13-15.9-2.26-13.32,1.93-24.71,10.92-34.61,4.5-4.95,9.9-8.3,16.53-9.34,6.77-1.06,13.21-.34,18.33,4.85,5.04,5.1,4.9,15.23.02,20.47-4.65,4.99-10.68,6.91-17.1,7.75-5.65.74-11.37.93-17.06,1.26-1.33.08-2.07.28-1.9,1.8.25,2.35.14,4.76.66,7.04,1.43,6.26,6.16,9.71,13.21,9.88,4.47.1,8.79-.73,12.97-2.3.38-.14.75-.32,1.13-.47,2.91-1.11,3.1-1.01,3.56,2.1.04.27.01.54.06.81.68,4.24.7,4.3-3.32,5.63-2.45.81-4.94,1.54-7.46,2.05-2.51.51-5.08.69-8.54,1.14Zm-11.09-35.85c6.75.25,12.68-.04,18.55-1.46,3.11-.75,5.97-1.9,8.15-4.33,2.36-2.62,2.23-7.08-.16-9.63-2.81-2.99-6.37-3.29-10.01-2.59-6.42,1.22-10.33,5.74-13.44,11.01-1.21,2.05-1.95,4.37-3.09,7.01Z"/>
  <path class="cls-1" d="m828.38,106.63c.33,1.99.79,4.22.99,6.47.05.54-.69,1.43-1.28,1.69-6.72,2.97-13.83,4.2-21.12,3.59-10.63-.9-17.62-7.16-19.19-17.89-2.35-16.02,3.5-29.17,16.27-39.02,6.39-4.93,13.97-6.15,21.89-4.27,6.55,1.56,11,6.65,11.58,13.39.45,5.24-1.9,11.9-9.03,15.61-4.55,2.36-9.39,3.64-14.42,4.12-4.8.46-9.63.64-14.45.8-1.56.05-2.43.5-2.13,2.1.64,3.42.73,7.14,2.22,10.17,2.83,5.77,8.28,7.11,15.3,6.24,4.34-.54,8.57-1.9,13.39-3.01Zm-29.36-24.16c.1.28.2.55.3.83,4.58-.29,9.19-.39,13.74-.94,3.83-.47,7.64-1.38,10.87-3.72,2.45-1.78,3.57-4.31,3.35-7.21-.21-2.82-1.73-5.21-4.57-5.85-2.57-.58-5.49-1.04-7.95-.39-8.9,2.37-12.86,9.44-15.75,17.29Z"/>
  <path class="cls-1" d="m410.43,57.82c-.46,3.96-.89,7.59-1.35,11.59.53-.44.81-.6.99-.83,1.88-2.38,3.64-4.86,5.65-7.13,3.32-3.76,7.79-4.96,12.63-5.23,1.66-.09,2.04.89,1.81,2.2-.43,2.46-.94,4.91-1.53,7.33-.1.42-.77,1.03-1.14,1-8.64-.63-13.06,4.91-16.82,11.35-3.12,5.36-4.21,11.37-5.33,17.36-1.27,6.76-2.46,13.54-3.8,20.29-.12.59-1.06,1.39-1.67,1.43-2.44.15-4.9.04-7.36.04-1.29,0-1.57-.52-1.32-1.8,2.52-12.77,5.07-25.54,7.4-38.35,1-5.5,1.55-11.09,2.18-16.65.21-1.82.66-2.84,2.81-2.63,2.08.21,4.2.04,6.85.04Z"/>
  <path class="cls-1" d="m495.82,148.57c.08-2.09.12-4.18.24-6.26.06-1.09.39-1.97,1.82-1.9,1.3.06,2.48-.14,3.01,1.62,1.39,4.66,2.98,9.26,4.5,13.89.12.36.28.71.62,1.58,1.09-3.03,2.02-5.59,2.94-8.16.82-2.29,1.66-4.58,2.44-6.89.54-1.61,1.63-2.13,3.28-2.08,1.79.06,1.66,1.47,1.8,2.46.31,2.27.39,4.57.51,6.86.18,3.58.41,7.16.4,10.74,0,.89-.82,1.78-1.26,2.67-.64-.93-1.79-1.84-1.82-2.8-.19-4.64-.09-9.29-.09-13.93-.3-.06-.59-.11-.89-.17-.31.58-.68,1.14-.91,1.76-1.52,4.2-2.97,8.42-4.52,12.61-.35.95-1.02,1.78-1.83,3.17-3.95-5.63-4.52-12.04-7.6-17.92-.13,1.23-.21,1.99-.29,2.76-.78,0-1.56,0-2.34,0Z"/>
  <path class="cls-1" d="m559.23,155.68c0-.98,0-1.96,0-2.95,0-3.52.02-7.04-.02-10.56-.01-1.17.39-1.76,1.64-1.77,1.13,0,1.63.49,1.63,1.58,0,6.43.02,12.86-.04,19.3,0,.49-.57,1.4-.81,1.37-.93-.09-2.21-.19-2.69-.8-1.77-2.3-3.29-4.79-4.87-7.24-1.86-2.88-3.67-5.79-5.93-8.55.12.8.35,1.61.33,2.41-.06,4.39-.16,8.78-.32,13.17-.01.4-.62,1.14-.81,1.1-.67-.14-1.37-.46-1.87-.92-.26-.24-.18-.89-.18-1.36,0-5.96-.03-11.92.03-17.87,0-.69.47-1.95.79-1.97.99-.07,2.31.02,2.96.62,1.16,1.08,1.98,2.56,2.84,3.93,2.24,3.53,4.43,7.1,6.65,10.65l.66-.14Z"/>
  <path class="cls-1" d="m271.01,151.28c.02,5.59-2.13,9.34-6.31,11-6.73,2.67-13.57-1.55-14.13-8.79-.34-4.43.42-8.58,4.2-11.47,3.3-2.53,7.05-2.83,10.77-1.01,3.79,1.85,5.37,5.16,5.47,9.25,0,.34,0,.68,0,1.01Zm-2.9.57c-.54-1.85-.85-3.59-1.55-5.16-1.23-2.78-3.55-4.02-6.55-3.83-2.42.15-4.68,1.84-5.29,4.63-.5,2.24-.58,4.65-.41,6.95.21,2.72,2.89,5.27,5.57,5.82,2.13.44,5.21-.85,6.25-2.94.86-1.71,1.32-3.62,1.97-5.47Z"/>
  <path class="cls-1" d="m457.6,139.56c6.44-.11,11.12,6.51,10.18,13.42-.63,4.66-2.72,8.4-7.67,9.73-5.17,1.4-9.87-.96-11.97-5.89-2.39-5.61-.61-12.33,4.26-15.29,1.56-.94,3.46-1.33,5.2-1.97Zm7.06,11.99c-.57-1.84-.83-3.85-1.76-5.48-2.42-4.19-7.64-4.4-10.51-.61-2.21,2.93-2.27,9.19-.11,12.13,2.39,3.26,6.65,3.65,9.6.92,2.03-1.87,2.45-4.27,2.78-6.97Z"/>
  <path class="cls-1" d="m814.68,151.55c-.03,6.33-2.71,10.08-8.06,11.27-5.38,1.2-10.53-2.04-11.95-7.48-.89-3.42-.54-6.7,1.05-9.85,2.05-4.08,6.87-6.35,11.32-5.32,4.53,1.05,7.65,5.03,7.64,9.76,0,.54,0,1.08,0,1.63Zm-2.83.45c-.15-.05-.31-.11-.46-.16,0-.61.04-1.22,0-1.82-.27-3.51-2.93-6.92-5.57-7.16-3.85-.36-6.31,1.38-7.53,5.58-.83,2.86-.73,5.76.73,8.44,2.45,4.48,8.33,4.69,10.9.3.92-1.57,1.31-3.44,1.93-5.18Z"/>
  <path class="cls-1" d="m825.26,153.3c0,1.97.02,3.98,0,5.99,0,.74.03,1.53-.21,2.2-.19.52-.95,1.33-1.18,1.25-.66-.24-1.51-.77-1.67-1.36-.29-1.01-.14-2.15-.14-3.23-.01-5.22.02-10.44-.05-15.65-.02-1.38.25-1.93,1.83-2.18,2.91-.46,5.71-.42,8.44.58,4.1,1.5,5.1,6.92,1.8,9.77-.85.74-1.08,1.27-.63,2.39,1.01,2.49,1.85,5.06,2.59,7.64.2.69-.23,1.55-.37,2.33-.86-.54-2.06-.89-2.49-1.66-.7-1.27-.88-2.82-1.29-4.25-.91-3.17-2.83-4.34-6.62-3.81Zm.05-2.57c1.68-.16,3.02-.19,4.32-.45,1.69-.34,2.92-1.51,2.91-3.18,0-1.12-.61-2.85-1.44-3.22-1.56-.69-3.48-.61-5.25-.77-.15-.01-.5.63-.51.97-.05,2.07-.02,4.15-.02,6.65Z"/>
  <path class="cls-1" d="m741.58,151.87c.91,3,1.87,6,2.71,9.02.17.62-.09,1.36-.15,2.04-.84-.32-1.93-.41-2.45-1.01-.63-.71-.79-1.83-1.11-2.79-.34-1.02-.51-2.11-.95-3.09-1.04-2.33-2.68-3.12-6.08-2.84,0,1.88,0,3.82,0,5.75,0,.68.15,1.43-.09,2.01-.29.69-.92,1.24-1.41,1.85-.56-.63-1.6-1.25-1.61-1.89-.14-6.37-.13-12.74-.07-19.12,0-.47.77-1.3,1.22-1.33,2.42-.14,4.87-.25,7.27-.04,2.56.23,4.41,1.59,5.1,4.25.64,2.5-.08,4.53-1.92,6.23-.35.32-.78.54-1.18.81.23.04.47.09.7.13Zm-7.99-5.06c-.02,4.14.09,4.25,3.67,3.78.07,0,.14,0,.2-.02,1.83-.54,3.14-1.66,3.46-3.57.26-1.55-.43-2.77-1.9-3.45-3.82-1.74-5.41-.77-5.43,3.26Z"/>
  <path class="cls-1" d="m336.91,149.77c0-3.01.04-5.3-.02-7.59-.03-1.18.39-1.74,1.64-1.77,1.29-.03,1.66.62,1.66,1.76,0,6.37-.01,12.74.02,19.11,0,1.09-.31,1.62-1.52,1.57-1.14-.05-1.8-.37-1.78-1.64.04-2.3-.07-4.61.02-6.91.06-1.52-.28-2.24-2.01-2.11-2.1.15-4.23.11-6.34.01-1.4-.07-1.95.34-1.89,1.81.1,2.43-.03,4.88.01,7.32.02,1.15-.43,1.56-1.57,1.53-1.06-.03-1.71-.32-1.71-1.49,0-6.5,0-13.01,0-19.51,0-1.22.79-1.62,1.73-1.37.59.16,1.41.87,1.46,1.4.18,1.95.14,3.93.08,5.89-.05,1.45.44,2.09,2,2.03,2.62-.1,5.26-.03,8.22-.03Z"/>
  <path class="cls-1" d="m617.4,163.52c-1.13-.88-1.71-1.26-2.19-1.75-.27-.27-.36-.72-.52-1.09-.65-1.53-.92-3.95-2.02-4.41-1.87-.77-4.26-.4-6.41-.3-.48.02-1.09.86-1.34,1.45-.59,1.36-1.02,2.79-1.46,4.21-.41,1.34-1.5,1.4-2.44,1.06-.36-.13-.65-1.36-.46-1.92,2.06-6.36,4.24-12.68,6.34-19.03.42-1.27,1.32-1.29,2.39-1.36,1.55-.11,2.23.76,2.65,2.01,1.44,4.29,2.87,8.58,4.3,12.87.66,1.98,1.41,3.95,1.95,5.96.14.51-.37,1.18-.77,2.29Zm-5.23-10.64c-1.1-2.84-1.42-5.67-3.35-8.2-.91,2.98-1.69,5.55-2.49,8.2h5.84Z"/>
  <path class="cls-1" d="m750.06,162.44c.88-2.65,1.72-5.19,2.57-7.73,1.38-4.1,2.8-8.19,4.12-12.31.43-1.34,1.09-2.02,2.6-2.02,1.49,0,2.18.6,2.63,1.97,1.97,6.05,4.06,12.05,6.02,18.1.22.67.13,2.02-.25,2.21-1.13.57-2.07-.02-2.53-1.25-.38-1.01-.99-1.98-1.18-3.02-.39-2.09-1.52-2.61-3.56-2.54-4.95.16-5.04.03-6.58,4.85-.58,1.79-1.44,2.5-3.83,1.75Zm12.24-9.48c-.94-2.9-1.79-5.5-2.63-8.1-.24.02-.49.04-.73.06-.78,2.62-1.55,5.24-2.38,8.04h5.75Z"/>
  <path class="cls-1" d="m291.49,148.52c0-2.1-.11-4.2.06-6.29.05-.63.74-1.5,1.35-1.74,1.12-.44,1.62.43,1.6,1.43-.09,5.19.12,10.41-.45,15.55-.43,3.87-3.73,5.67-8.22,5.7-3.74.03-6.9-2.62-7.3-6.61-.5-4.89-.44-9.85-.49-14.77,0-.45.93-1.14,1.54-1.3,1.06-.29,1.65.34,1.65,1.46,0,2.78-.04,5.55.03,8.32.05,1.88.17,3.77.42,5.64.33,2.5,2.45,4.38,4.82,4.43,2.29.05,4.34-1.61,4.81-4.12.23-1.25.16-2.55.19-3.84.03-1.29,0-2.57,0-3.86h-.01Z"/>
  <path class="cls-1" d="m537.24,150.98c-.57.29-1.11.75-1.71.83-1.68.22-3.38.38-5.07.38-1.36,0-1.93.39-1.98,1.84-.2,5.93-.24,5.92,5.67,5.93.89,0,1.85-.2,2.63.09.63.23,1.04,1.04,1.55,1.6-.5.38-.99,1.06-1.5,1.08-3.27.1-6.54.03-9.82.08-1.33.02-1.79-.57-1.79-1.84.02-6.3.03-12.61-.03-18.91-.01-1.26.45-1.67,1.67-1.65,3.07.05,6.14.04,9.2.03,1.1,0,2.08.3,1.77,1.54-.14.55-1.14,1.18-1.8,1.23-1.96.17-3.95.09-5.93.06-1.09-.01-1.55.39-1.62,1.54-.3,4.94-.33,4.91,4.53,5.01,1.37.03,2.73.27,4.1.42.05.25.09.5.14.75Z"/>
  <path class="cls-1" d="m362.38,143.27v6.55c1.85,0,3.66,0,5.47,0,.61,0,1.26-.06,1.83.11.45.14.82.58,1.22.89-.43.33-.84.91-1.31.96-2.34.29-4.7.45-7.18.66v7.52c2.54,0,5.03-.02,7.53,0,.99.01,2.17-.19,2.18,1.4,0,1.58-1.12,1.42-2.15,1.43-3.07,0-6.14-.02-9.21.01-1.18.01-1.76-.38-1.75-1.64.04-6.64.03-13.29.04-19.93,0-.19.12-.37.26-.78,3.68,0,7.42-.06,11.14.08.44.02.97,1.04,1.19,1.69.06.18-.83.97-1.31.99-2.57.1-5.16.05-7.96.05Z"/>
  <path class="cls-1" d="m682.97,151.04c-.59.27-1.16.69-1.78.77-1.68.21-3.38.39-5.07.37-1.45-.02-1.95.54-1.89,1.92.06,1.49.04,2.98-.01,4.47-.04,1.07.4,1.43,1.45,1.4,2.25-.05,4.5.02,6.75-.02,1.13-.02,1.6.46,1.66,1.55.07,1.23-.71,1.26-1.59,1.26-3.21,0-6.41-.03-9.62.03-1.42.03-1.93-.55-1.92-1.93.03-6.3.02-12.61-.02-18.91,0-1.15.42-1.57,1.55-1.56,3,.04,6.01-.06,9,.09.61.03,1.53.79,1.68,1.38.3,1.17-.66,1.41-1.67,1.4-1.84-.02-3.68.02-5.52-.02-1.17-.03-1.7.35-1.75,1.62-.21,4.87-.25,4.84,4.6,4.94,1.32.03,2.64.25,3.96.38.06.28.13.56.19.85Z"/>
  <path class="cls-1" d="m722.27,151.06c-.6.26-1.18.68-1.8.76-1.68.21-3.38.37-5.07.38-1.27,0-1.92.37-1.87,1.73.05,1.56.04,3.12-.02,4.68-.04,1.08.44,1.41,1.47,1.38,2.04-.05,4.1-.12,6.13.04.64.05,1.58.74,1.75,1.31.33,1.13-.58,1.45-1.62,1.44-3.07-.02-6.14-.03-9.21.02-1.34.02-1.78-.59-1.78-1.86.02-6.3.01-12.61-.02-18.91,0-1.12.45-1.62,1.56-1.62,3.07.02,6.14-.05,9.2.08.53.02,1.02.9,1.53,1.38-.52.46-1.01,1.28-1.56,1.33-1.89.17-3.81.09-5.72.05-1.19-.03-1.68.39-1.73,1.64-.2,4.85-.24,4.82,4.62,4.92,1.32.03,2.63.25,3.95.39.06.28.12.57.18.85Z"/>
  <path class="cls-1" d="m409.38,151.37c0-3.04.02-6.09-.01-9.13-.01-1.11.25-1.85,1.55-1.83,2.42.04,4.87-.2,7.25.12,3.09.42,5.04,2.92,5.12,5.92.09,3.53-1.64,6.14-4.74,6.94-1.56.4-3.18.67-4.79.82-1.15.11-1.54.6-1.52,1.67.03,1.69.02,3.38,0,5.07,0,.84.23,2.08-1.15,1.77-.66-.15-1.55-1.16-1.6-1.83-.19-2.83-.1-5.68-.12-8.52,0-.34,0-.68,0-1.01Zm3.27-4.07c0,.74-.09,1.5.03,2.22.1.65.27,1.65.69,1.83,2.69,1.11,6.25-1.05,6.62-3.9.34-2.56-1.51-4.33-4.75-4.54-2.51-.17-2.57-.09-2.59,3.38,0,.34,0,.68,0,1.01Z"/>
  <path class="cls-1" d="m640.41,143.54c-.95-.18-1.81-.35-2.67-.51-4.79-.93-8.7,1.48-10.03,6.16-1.1,3.88.57,8.35,3.91,10.03,2.25,1.13,4.69,1.26,7.13.62.99-.26,1.91-.55,2.28.79.38,1.38-.42,1.86-1.6,1.93-2.06.12-4.14.39-6.19.26-6.79-.43-10.24-7.5-8.89-13.63,1.76-7.96,8.22-10.01,14.75-9,2.09.32,2.36,1.21,1.31,3.35Z"/>
  <path class="cls-1" d="m659.25,139.9c.89.14,2.17.14,3.26.59.62.25.94,1.22,1.39,1.87-.66.3-1.31.82-1.98.85-2.08.11-4.2-.18-6.24.11-2.04.29-3.53,1.66-4.38,3.6-1.23,2.81-1.22,5.71-.23,8.51,1.38,3.89,5.47,5.38,9.55,4.62.46-.09.99-.51,1.34-.38.67.24,1.38.66,1.75,1.23.14.22-.5,1.34-.96,1.49-6.26,2.04-13.31,0-15.34-6.87-2.07-6.99,1.57-13.73,8.45-15.29.98-.22,2.02-.21,3.37-.33Z"/>
  <path class="cls-1" d="m229.72,140.71c1.85-.65,3.19-.22,4.06,1.4,1.06,1.96,2.09,3.95,3.14,5.91.33.62.72,1.22,1.3,2.17,1.48-2.72,2.91-5.01,3.99-7.45.91-2.03,2.18-2.79,4.6-2.1-.31.72-.53,1.45-.91,2.1-1.97,3.39-4.01,6.75-5.94,10.16-.34.61-.4,1.41-.46,2.13-.16,2.08-.17,4.18-.44,6.25-.08.63-.81,1.18-1.25,1.77-.4-.55-1.08-1.07-1.16-1.67-.26-1.93-.18-3.91-.48-5.84-.26-1.69-.63-3.44-1.37-4.96-1.41-2.92-3.12-5.69-4.68-8.54-.21-.39-.27-.86-.41-1.34Z"/>
  <path class="cls-1" d="m480.96,149.88c.54-1.03,1.07-2.07,1.62-3.09.8-1.49,1.69-2.94,2.42-4.46.85-1.77,2.14-2.3,4.42-1.6-1.21,2.13-2.35,4.14-3.5,6.15-.98,1.7-2.04,3.36-2.91,5.11-.43.87-.69,1.91-.74,2.88-.11,2.09-.07,4.19-.01,6.29.03,1.18-.32,1.73-1.62,1.7-1.24-.03-1.75-.54-1.68-1.72,0-.07-.01-.14,0-.2,1.23-6.86-2.36-12.2-5.56-17.69-.44-.75-.43-1.76-.63-2.65,1.03.34,2.17.51,3.06,1.07.61.39.92,1.3,1.29,2.02,1.06,2.03,2.09,4.07,3.13,6.11.23.03.46.07.69.1Z"/>
  <path class="cls-1" d="m307.44,153.03c0-2.71-.04-5.42.02-8.13.03-1.21-.33-1.74-1.62-1.65-1.29.09-2.61.13-3.87-.06-.54-.08-.99-.79-1.48-1.22.47-.52.92-1.48,1.4-1.49,4.77-.11,9.54-.11,14.31.02.51.01,1,1.06,1.5,1.63-.51.38-1.01.76-1.53,1.12-.09.06-.27,0-.4,0q-5.03.09-5.03,5.03c0,4,.04,7.99-.03,11.99-.02,1.05.67,2.58-1.52,2.55-2.14-.03-1.71-1.48-1.72-2.7-.03-2.37,0-4.74,0-7.11h0Z"/>
  <path class="cls-1" d="m574.74,152.63c0-2.58-.03-5.15.01-7.73.02-1.22-.46-1.71-1.71-1.63-1.15.08-2.34.14-3.47-.07-.52-.1-1.26-.86-1.26-1.33,0-.47.77-1.36,1.22-1.36,4.7-.1,9.41-.1,14.12,0,.46,0,1.24.88,1.24,1.35,0,.47-.73,1.26-1.24,1.36-1.12.21-2.31.13-3.47.04-1.53-.12-2.18.35-2.18,2.03-.01,5.15-.19,10.29-.34,15.43-.03.84.41,2.13-1.16,2.08-1.39-.04-1.77-.98-1.75-2.23.04-2.64.01-5.29.01-7.93,0,0-.01,0-.02,0Z"/>
  <path class="cls-1" d="m430.67,151.69c0-3.12.03-6.23-.01-9.35-.02-1.22.31-1.94,1.7-1.93,1.42.01,1.21,1.01,1.23,1.85.11,5.21.25,10.42.26,15.62,0,1.53.34,2.23,2.05,2.11,1.9-.14,3.83-.14,5.71.07.62.07,1.16.94,1.74,1.45-.55.42-1.08,1.19-1.64,1.21-3.06.13-6.13.03-9.2.1-1.49.03-1.86-.66-1.84-1.99.06-3.05.02-6.1.02-9.14h-.02Z"/>
  <path class="cls-1" d="m694.24,147.56c0,3.59.02,7.17-.01,10.76-.01,1.23.53,1.69,1.73,1.66,2.05-.04,4.1-.11,6.13.09.59.06,1.09.98,1.63,1.51-.54.4-1.08,1.13-1.64,1.15-3,.12-6,.02-9,.1-1.47.04-2.08-.44-2.07-1.98.05-6.17.02-12.34,0-18.51,0-1.07.17-1.85,1.49-1.92,1.49-.08,1.44.88,1.44,1.86,0,1.76,0,3.53,0,5.29.1,0,.19,0,.29,0Z"/>
  <path class="cls-1" d="m495.82,148.57c.78,0,1.56,0,2.34,0-.25,4.25-.46,8.5-.81,12.74-.04.52-.91,1.38-1.37,1.36-.88-.04-1.34-.56-1.18-1.81.51-4.08.71-8.19,1.03-12.29Z"/>
  <path class="cls-1" d="m.42,92.82c-.03.25-.06.5-.1.75.03-.25.06-.5.1-.75Z"/>
  <path class="cls-1" d="m106.46.03c-.15,0-.3,0-.46-.01.15,0,.3,0,.46.01Z"/>
  <path class="cls-1" d="m93.79,0c-.15.01-.31.02-.46.03.15-.01.31-.02.46-.03Z"/>
  <path class="cls-1" d="m116.39,75.72c0-.4,0-.8,0-1.2.04-.04.13-.1.12-.13-.03-.11-.08-.2-.13-.3-.03-9.67-.07-19.34-.08-29.01,0-.65.22-1.3.34-1.95.3-.08.6-.17.9-.25,4.62,0,9.23,0,13.85.01.18.03.37.05.55.08,1.37.06,1.13,1.06,1.13,1.91,0,7.38,0,14.77,0,22.15,0,.67,0,1.35,0,2.61,7.77-4.34,14.29-9.57,19.99-15.96.5.33.93.54,1.25.85,3.01,2.95,5.98,5.94,9,8.87,1.18,1.15,1.15,2.03-.06,3.21-7.98,7.71-16.95,14.09-26.98,18.8-2.79,1.31-3.32,2.73-3.25,5.4.16,6.7.05,13.41.05,20.12,0,.66,0,1.33,0,2.21h27.83c0,5.35.03,10.48-.06,15.6,0,.4-.92,1.13-1.41,1.13-8.25,0-16.49-.08-24.74-.15-.26,0-.53,0-.79-.01-.28.65-.79,1.3-.8,1.95-.06,8.11-.02,16.22-.06,24.33,0,.77-.28,1.55-.42,2.32-.13.12-.27.24-.4.37-4.55.02-9.1-.03-13.65.09-1.78.04-2.35-.51-2.33-2.32.1-8.12.02-16.25.08-24.37.01-1.66-.49-2.24-2.22-2.23-9.74.05-19.48.03-29.22-.05-1.52-.01-1.8.52-1.79,1.88.06,8.06.05,16.11.03,24.17,0,.85-.23,1.7-.36,2.55-.17.06-.34.13-.51.19-4.34-.07-8.67-.13-13.01-.2-.58.07-1.15.14-1.73.21-.27-.68-.77-1.36-.77-2.05-.04-8.13-.04-16.27.05-24.4.02-1.73-.42-2.36-2.29-2.34-7.98.11-15.96.02-23.93.11-1.74.02-2.19-.53-2.16-2.2.11-4.74.04-9.47.04-14.49h28.31c0-1.54,0-2.8,0-4.07,0-6.44-.03-12.88.04-19.31.02-1.44-.47-2.16-1.8-2.75-10.82-4.73-20.67-10.94-29.02-19.32-.37-.37-.54-1.52-.27-1.82,3.1-3.42,6.3-6.74,9.48-10.08.32-.33.72-.59,1.12-.91,6.18,5.94,12.42,11.62,20.34,15.6.04-.89.1-1.54.1-2.18,0-7.73.06-15.45-.02-23.18-.02-1.87.56-2.47,2.47-2.41,4.22.14,8.45.05,12.68.06.2.04.39.09.59.13.22.71.63,1.42.63,2.13.02,9.81.02,19.61-.06,29.42-.01,1.78.15,2.61,2.4,2.95,5.28.8,10.53,1.88,15.87,1.44,4.42-.37,8.79-1.22,13.18-1.93.63-.1,1.2-.57,1.8-.86.06-.03.17-.06.17-.09,0-.11-.04-.22-.06-.33Zm-.1,17.47c-.15-.12-.3-.24-.46-.35-.61.07-1.21.14-1.81.23-3.21.46-6.42,1.29-9.63,1.3-5.54.02-11.09-.45-16.63-.75-1.5-.08-2.99-.27-4.56-.42v19.83h33.15v-18.99c-.01-.28-.03-.56-.04-.83v-.02Z"/>
  <path class="cls-1" d="m67.51,158.59c.57-.07,1.15-.14,1.73-.21-.57.07-1.15.14-1.73.21Z"/>
  <path class="cls-1" d="m133.89,129.71c.26,0,.53,0,.79.01-.26,0-.53,0-.79-.01Z"/>
  <path class="cls-1" d="m117.53,42.87c-.3.08-.6.17-.9.25.3-.08.6-.17.9-.25Z"/>
  <path class="cls-1" d="m82.46,42.99c-.2-.04-.39-.09-.59-.13.2.04.39.09.59.13Z"/>
  <path class="cls-1" d="m116.37,74.09c.05.1.11.2.13.3,0,.03-.08.09-.12.13,0-.14,0-.29-.01-.43Z"/>
  <path class="cls-1" d="m82.25,158.58c.17-.06.34-.13.51-.19-.17.06-.34.13-.51.19Z"/>
  <path class="cls-1" d="m132.21,158.68c.13-.12.27-.24.4-.37-.13.12-.27.24-.4.37Z"/>
  <path class="cls-1" d="m116.39,75.72c.02.11.06.22.06.33,0,.03-.11.06-.17.09.04-.14.07-.28.11-.41Z"/>
  <path class="cls-1" d="m131.93,42.96c-.18-.03-.37-.05-.55-.08.18.03.37.05.55.08Z"/>
  <path class="cls-1" d="m116.35,94.05c-.01-.28-.03-.56-.04-.83.01.28.03.56.04.83Z"/>
  <path class="cls-1" d="m116.29,93.19c-.15-.12-.3-.24-.46-.35.15.12.3.24.46.35Z"/>
</svg>