<?xml version="1.0" encoding="UTF-8"?>
<svg id="Layer_1" data-name="Layer 1" xmlns="http://www.w3.org/2000/svg" viewBox="0 0 847.4 368.96">
  <defs>
    <style>
      .cls-1 {
        fill: #bb573e;
      }
    </style>
  </defs>
  <g>
    <path class="cls-1" d="m396.77,121.87l42.04-51.42,23.26.14-35.64,42.72,40.95,50.88h-23.13l-28.84-37.55-18.64,22.31v15.24h-18.37v-93.6h18.37v51.29Z"/>
    <path class="cls-1" d="m530.38,126.09c0-4.08.13-13.74-17.96-13.74-5.99,0-14.56,1.77-19.86,3.81v48.03h-18.37v-93.6l18.37-.95v29.39c6.26-2.18,14.28-4.22,21.36-4.22,21.77,0,34.96,11.16,34.96,31.29v38.09h-18.5v-38.09Z"/>
    <path class="cls-1" d="m649.43,164.19h-21.9l-15.78-40.54-15.51,40.54h-21.9l-22.45-67.48,19.73-.82,14.15,48.84,17.01-47.89,18.09-.95,17.01,49.11,14.28-48.3,19.59-.82-22.31,68.3Z"/>
    <path class="cls-1" d="m744.81,138.06l-51.02-.27c2.45,4.76,7.89,9.39,20,9.39,9.12,0,16.46-1.9,22.04-3.81l5.17,16.33c-6.94,3.13-16.73,5.03-27.48,5.03-23.4,0-40.13-14.01-40.13-34.96s15.51-34.96,38.91-34.96c17.41,0,33.06,11.29,33.06,32.52,0,5.31-.54,10.75-.54,10.75Zm-51.7-15.24l33.6-.27c0-6.67-5.71-10.2-14.15-10.2-12.52,0-17.55,5.44-19.46,10.48Z"/>
    <path class="cls-1" d="m813.93,95.89l-1.5,17.82-32.11,33.06h36.19l-1.5,17.41h-62.85l1.63-17.55,32.38-33.33h-33.47l1.5-17.41h59.72Z"/>
    <path class="cls-1" d="m835.7,91.54c-6.39,0-11.56-5.17-11.56-11.7s5.17-11.56,11.56-11.56,11.7,5.17,11.7,11.56-5.17,11.7-11.7,11.7Zm9.39,72.65h-18.37v-67.48l18.37-.82v68.3Z"/>
  </g>
  <g>
    <path class="cls-1" d="m443.59,278.59l-6.12-17.98h-35.59l-6.12,17.98h-17.37l29.72-82.92,22.63-1.22,30.21,84.14h-17.37Zm-36.45-33.63h25.07l-12.47-36.69-12.6,36.69Z"/>
    <path class="cls-1" d="m483.71,278.59h-16.63v-84.14l16.63-.86v85Z"/>
    <path class="cls-1" d="m514.29,278.59h-16.63v-84.14l16.63-.86v85Z"/>
    <path class="cls-1" d="m536.31,213.28c-5.75,0-10.4-4.65-10.4-10.52s4.65-10.4,10.4-10.4,10.52,4.65,10.52,10.4-4.65,10.52-10.52,10.52Zm8.44,65.31h-16.51v-60.66l16.51-.73v61.39Z"/>
    <path class="cls-1" d="m607.24,275.16c-5.5,2.2-12.35,3.91-19.2,3.91-20.91,0-34.12-12.6-34.12-31.43s12.84-31.43,33.88-31.43c6.6,0,13.94,2.08,19.45,4.28l.61-3.3,14.55.73v60.66h-14.55l-.61-3.42Zm-1.35-14.92v-24.83c-4.65-1.83-11.37-3.42-16.63-3.42-17.86,0-18.71,11.25-18.71,15.65s.86,15.66,18.71,15.66c6.6,0,12.35-1.47,16.63-3.06Z"/>
    <path class="cls-1" d="m686.87,244.34c0-3.67.24-12.35-16.14-12.35-5.26,0-12.96,1.59-17.73,3.42v43.17h-16.63v-60.66l14.68-.73.61,3.3c5.87-2.2,13.7-4.28,20.42-4.28,19.57,0,31.43,10.03,31.43,28.13v34.24h-16.51l-.12-34.24Z"/>
    <path class="cls-1" d="m767.23,259.14l6.85,13.82c-6.24,3.3-15.29,6.12-24.95,6.12-21.77,0-36.45-12.6-36.45-31.43s14.68-31.43,36.45-31.43c9.05,0,18.59,2.81,23.85,5.38l-6.48,14.55c-4.52-2.08-11.37-4.16-17.37-4.16-17.86,0-19.81,11.25-19.81,15.65s1.96,15.66,19.81,15.66c8.07,0,13.7-2.32,18.1-4.16Z"/>
    <path class="cls-1" d="m842.69,255.1l-45.86-.24c2.2,4.28,7.09,8.44,17.98,8.44,8.2,0,14.8-1.71,19.81-3.43l4.65,14.68c-6.24,2.81-15.04,4.53-24.7,4.53-21.04,0-36.08-12.6-36.08-31.43s13.94-31.43,34.98-31.43c15.65,0,29.72,10.15,29.72,29.23,0,4.77-.49,9.66-.49,9.66Zm-46.47-13.7l30.21-.24c0-5.99-5.14-9.17-12.72-9.17-11.25,0-15.78,4.89-17.49,9.42Z"/>
  </g>
  <path class="cls-1" d="m0,186.41c23.19-8.2,47.06-13.1,71.25-16.68,12.05-1.64,24.35-1.71,36.53-2.48,12.2-.69,24.22-2.53,36.14-5.03l-2.12,2.15c1.16-13.84,1.08-27.85,2.35-41.67,3.52-41.61,9.95-82.89,23.11-122.7,0,0,1.39.2,1.39.2.95,27.98-1.27,55.68-5.02,83.29-4.01,27.51-10.36,54.59-16.8,81.6,0,0-.4,1.97-.4,1.97l-1.72.18c-24.43,1.7-47.7,10.15-71.53,14.87-11.98,2.09-24.07,3.47-36.21,4.56-12.15.98-24.35,1.67-36.74,1.13l-.22-1.39h0Z"/>
  <path class="cls-1" d="m180.16,368.96c-11.75-49.97-23.45-105.18-34.49-155.3,0,0,5.09,5.07,5.09,5.07-19.79-2.56-39.46-5.77-58.88-10.43-19.5-4.64-38.85-9.68-57.77-16.55,0,0,.25-1.39.25-1.39,20.12.25,40.01,2.36,59.89,4.9,21.35,2.64,42.37,7.14,63.31,12.03,0,0,.56,4.06.56,4.06,5.41,36.34,12.64,81.39,17.82,117.97,1.93,13.12,3.82,26.24,5.61,39.38l-1.38.26h0Z"/>
  <path class="cls-1" d="m305.29,190.14c-15.12,9.55-31.46,16.06-48.79,19.72-8.67,1.47-17.68,1.79-26.13,3.98-8.49,2.08-16.61,5.4-24.58,9.22l2.85-3.1c-.16,4.09-.39,8.16-.75,12.21-2.92,28.37-9.01,56.4-22.05,82.03,0,0-1.38-.28-1.38-.28-.71-8.39-.35-16.56.16-24.7,1.73-25.34,8.01-50.13,17.11-73.78,0,0,1.75-.22,1.75-.22,8.77-1.12,17.39-2.76,25.65-5.62,8.29-2.75,16.02-7.38,24.1-10.85,8.09-3.42,16.62-5.38,25.19-7.15,8.61-1.68,17.34-2.92,26.48-2.8l.4,1.35h0Z"/>
  <path class="cls-1" d="m175.37,46.99c8.9,40.14,18.26,84.23,26.51,124.67l-4.87-4.32c13.15.39,26.31.77,39.47.91,39.6.26,79.07,4.17,117.89,12.35,0,0-.08,1.41-.08,1.41-26.39,2.79-52.75,2.89-79.17,2.14-26.3-.93-52.45-4.54-78.7-6.36,0,0-4.29-.35-4.29-.35l-.58-3.97c-2.31-15.71-6.89-47.35-9.06-63.07-2.85-21.05-5.84-42.08-8.53-63.17l1.39-.24h0Z"/>
  <path class="cls-1" d="m119.65,136.42c0,8.62-6.99,15.13-15.61,15.13s-7.88-7.71-11.9-15.33c-4.93-9.34,2.72-13.04,11.34-13.04s16.18,4.62,16.18,13.24Z"/>
  <path class="cls-1" d="m229.7,151.89c-8.62,0-15.13-6.99-15.13-15.61s7.71-7.88,15.33-11.9c9.34-4.93,13.04,2.72,13.04,11.34s-4.62,16.18-13.24,16.18Z"/>
  <path class="cls-1" d="m226.69,245.9c0-8.62,6.99-15.13,15.61-15.13s7.88,7.71,11.9,15.33c4.93,9.34-2.72,13.04-11.34,13.04s-16.18-4.62-16.18-13.24Z"/>
  <path class="cls-1" d="m123.09,241.4c6.1,6.1,5.76,15.64-.34,21.74-6.1,6.1-11.02.12-19.26-2.42-10.09-3.11-7.3-11.14-1.2-17.24,6.1-6.1,14.7-8.17,20.8-2.08Z"/>
</svg>