<?xml version="1.0" encoding="UTF-8"?>
<svg id="Layer_1" data-name="Layer 1" xmlns="http://www.w3.org/2000/svg" viewBox="0 0 737.15 306.16">
  <defs>
    <style>
      .cls-1 {
        fill: #bb573e;
      }
    </style>
  </defs>
  <g>
    <path class="cls-1" d="m150.36,293.02v-36.35h-14.13v-3.07h31.4v3.07h-14.13v36.35h-3.15Z"/>
    <path class="cls-1" d="m179.76,293.84c-2.94,0-5.43-.67-7.47-2s-3.6-3.18-4.68-5.53c-1.08-2.35-1.62-5.06-1.62-8.13s.55-5.8,1.64-8.14,2.67-4.17,4.72-5.46c2.05-1.29,4.52-1.94,7.41-1.94s5.43.66,7.49,1.98c2.05,1.32,3.61,3.15,4.68,5.49,1.07,2.34,1.6,5.03,1.6,8.08s-.54,5.85-1.62,8.2c-1.08,2.35-2.65,4.17-4.71,5.49-2.06,1.31-4.54,1.97-7.45,1.97Zm0-3.07c3.49,0,6.09-1.17,7.82-3.5,1.72-2.34,2.59-5.37,2.59-9.09s-.87-6.83-2.6-9.09-4.33-3.39-7.8-3.39c-2.35,0-4.3.53-5.83,1.6-1.53,1.07-2.68,2.54-3.44,4.41-.76,1.87-1.14,4.03-1.14,6.47,0,3.8.88,6.84,2.64,9.14,1.76,2.3,4.35,3.45,7.76,3.45Z"/>
    <path class="cls-1" d="m199.55,293.02v-29.57h2.87v6.65h.3v22.91h-3.18Zm21.65,0v-15.38c0-1.86-.19-3.52-.56-4.98-.37-1.46-.94-2.7-1.7-3.72-.76-1.02-1.71-1.8-2.85-2.33s-2.49-.79-4.04-.79-3,.28-4.17.83-2.15,1.34-2.9,2.34c-.76,1-1.32,2.19-1.7,3.57-.37,1.38-.56,2.88-.56,4.5l-2.49-.3c0-3.19.54-5.83,1.63-7.9,1.09-2.07,2.55-3.6,4.39-4.6,1.84-.99,3.91-1.49,6.21-1.49,1.62,0,3.08.24,4.37.71s2.4,1.15,3.35,2.01c.95.87,1.73,1.89,2.35,3.07s1.08,2.47,1.38,3.87c.3,1.41.45,2.87.45,4.41v16.18h-3.18Z"/>
    <path class="cls-1" d="m253.37,293.78c-3.41,0-6.23-.72-8.44-2.16s-3.59-3.45-4.12-6.02l3.23-.55c.46,1.75,1.53,3.15,3.23,4.19,1.7,1.04,3.78,1.56,6.24,1.56s4.39-.52,5.83-1.56c1.44-1.04,2.16-2.46,2.16-4.27,0-.99-.22-1.79-.67-2.42-.45-.63-1.33-1.21-2.64-1.74-1.31-.53-3.27-1.15-5.86-1.86-2.74-.73-4.88-1.46-6.42-2.19-1.54-.73-2.63-1.56-3.26-2.49-.63-.93-.94-2.07-.94-3.42,0-1.62.47-3.05,1.4-4.28.93-1.23,2.23-2.19,3.9-2.89,1.67-.69,3.6-1.04,5.79-1.04s4.16.36,5.91,1.08c1.75.72,3.17,1.72,4.24,3.01,1.08,1.29,1.7,2.78,1.86,4.48l-3.23.6c-.31-1.9-1.27-3.4-2.87-4.5-1.61-1.1-3.61-1.67-6.02-1.68-2.28-.04-4.14.42-5.58,1.35-1.44.94-2.16,2.18-2.16,3.71,0,.88.25,1.62.75,2.23.5.61,1.39,1.17,2.67,1.68,1.28.51,3.08,1.06,5.42,1.64,2.85.73,5.07,1.48,6.67,2.25,1.6.77,2.72,1.67,3.38,2.7s.99,2.3.99,3.82c0,2.74-1.02,4.89-3.05,6.45s-4.83,2.34-8.39,2.34Z"/>
    <path class="cls-1" d="m267.61,266.33v-2.87h18.97v2.87h-18.97Zm18.97,26.69c-1.57.35-3.12.48-4.65.4-1.53-.08-2.9-.43-4.09-1.04-1.2-.61-2.09-1.56-2.7-2.83-.49-1.04-.77-2.09-.82-3.15-.05-1.06-.08-2.27-.08-3.64v-27.51h3.18v27.46c0,1.24.01,2.27.04,3.08.03.81.21,1.56.56,2.23.66,1.26,1.7,2.02,3.12,2.29,1.42.26,3.24.22,5.45-.12v2.85Z"/>
    <path class="cls-1" d="m295.75,306.16l5.75-15.47.06,4.6-12.95-31.84h3.37l11.11,27.65h-1.75l10.1-27.65h3.31l-15.71,42.71h-3.29Z"/>
    <path class="cls-1" d="m320.25,293.02v-40.24h3.15v40.24h-3.15Z"/>
    <path class="cls-1" d="m343.79,293.84c-2.83,0-5.27-.63-7.34-1.9-2.06-1.27-3.66-3.07-4.79-5.39-1.13-2.33-1.7-5.08-1.7-8.25s.56-6.02,1.68-8.36c1.12-2.34,2.71-4.15,4.76-5.41,2.05-1.26,4.49-1.89,7.32-1.89s5.32.65,7.35,1.96c2.03,1.31,3.59,3.19,4.65,5.65s1.57,5.43,1.52,8.9h-3.29v-1.1c-.09-4.05-1-7.14-2.74-9.25-1.73-2.12-4.22-3.17-7.45-3.17s-5.92,1.1-7.73,3.3c-1.82,2.2-2.72,5.31-2.72,9.32s.91,7.06,2.72,9.25c1.82,2.19,4.38,3.29,7.68,3.29,2.28,0,4.27-.53,5.98-1.6,1.71-1.07,3.06-2.6,4.07-4.58l2.85,1.26c-1.19,2.55-2.9,4.53-5.15,5.91-2.25,1.39-4.81,2.08-7.69,2.08Zm-11.66-14.7v-2.85h23.35v2.85h-23.35Z"/>
    <path class="cls-1" d="m361.67,298.3l.22-1.7c.67.04,1.15-.11,1.42-.45.27-.34.43-.79.48-1.34.05-.56.05-1.15.01-1.79h-2.13v-5.34h3.97v6.71c0,1.44-.38,2.52-1.12,3.23-.75.71-1.7.94-2.85.68Z"/>
    <path class="cls-1" d="m372.76,266.33v-2.87h18.97v2.87h-18.97Zm18.97,26.69c-1.57.35-3.12.48-4.65.4-1.53-.08-2.9-.43-4.09-1.04-1.2-.61-2.09-1.56-2.7-2.83-.49-1.04-.77-2.09-.82-3.15-.05-1.06-.08-2.27-.08-3.64v-27.51h3.18v27.46c0,1.24.01,2.27.04,3.08.03.81.21,1.56.56,2.23.66,1.26,1.7,2.02,3.12,2.29,1.42.26,3.24.22,5.45-.12v2.85Z"/>
    <path class="cls-1" d="m408.56,293.84c-2.94,0-5.43-.67-7.47-2s-3.6-3.18-4.68-5.53c-1.08-2.35-1.61-5.06-1.61-8.13s.55-5.8,1.64-8.14c1.09-2.34,2.67-4.17,4.72-5.46,2.05-1.29,4.52-1.94,7.41-1.94s5.43.66,7.49,1.98c2.05,1.32,3.61,3.15,4.68,5.49,1.07,2.34,1.6,5.03,1.6,8.08s-.54,5.85-1.62,8.2c-1.08,2.35-2.65,4.17-4.71,5.49-2.06,1.31-4.54,1.97-7.45,1.97Zm0-3.07c3.49,0,6.09-1.17,7.82-3.5,1.72-2.34,2.59-5.37,2.59-9.09s-.87-6.83-2.6-9.09c-1.73-2.26-4.33-3.39-7.8-3.39-2.35,0-4.3.53-5.83,1.6-1.53,1.07-2.68,2.54-3.44,4.41-.76,1.87-1.14,4.03-1.14,6.47,0,3.8.88,6.84,2.64,9.14,1.76,2.3,4.35,3.45,7.76,3.45Z"/>
    <path class="cls-1" d="m428.36,293.02v-29.57h2.87v6.65h.3v22.91h-3.17Zm21.65,0v-15.38c0-1.86-.19-3.52-.56-4.98s-.94-2.7-1.7-3.72c-.76-1.02-1.71-1.8-2.85-2.33s-2.49-.79-4.04-.79-3,.28-4.17.83c-1.18.56-2.14,1.34-2.9,2.34-.76,1-1.32,2.19-1.7,3.57s-.56,2.88-.56,4.5l-2.49-.3c0-3.19.54-5.83,1.63-7.9,1.09-2.07,2.55-3.6,4.39-4.6,1.84-.99,3.92-1.49,6.21-1.49,1.62,0,3.08.24,4.37.71,1.29.47,2.4,1.15,3.35,2.01.95.87,1.73,1.89,2.35,3.07.62,1.18,1.08,2.47,1.38,3.87.3,1.41.45,2.87.45,4.41v16.18h-3.18Z"/>
    <path class="cls-1" d="m483.32,293.84c-2.96,0-5.45-.66-7.47-1.98-2.03-1.32-3.56-3.16-4.61-5.5-1.05-2.34-1.59-5.05-1.63-8.12.04-3.12.59-5.85,1.66-8.2,1.07-2.34,2.61-4.17,4.64-5.46,2.03-1.29,4.51-1.94,7.45-1.94s5.39.69,7.57,2.07c2.18,1.38,3.69,3.27,4.53,5.68l-3.07,1.12c-.75-1.84-1.93-3.27-3.53-4.29-1.61-1.01-3.45-1.52-5.53-1.52-2.34,0-4.26.53-5.78,1.6-1.51,1.07-2.65,2.54-3.39,4.42-.75,1.88-1.14,4.05-1.18,6.52.05,3.78.94,6.81,2.67,9.1,1.72,2.29,4.28,3.44,7.68,3.44,2.1,0,3.92-.48,5.46-1.45,1.54-.97,2.72-2.37,3.54-4.22l3.12,1.07c-1.15,2.5-2.76,4.4-4.82,5.71s-4.5,1.96-7.31,1.96Z"/>
    <path class="cls-1" d="m501.17,293.02v-39.42h2.87v22.78h.3v16.64h-3.17Zm21.65,0v-15.38c0-1.86-.19-3.52-.56-4.98s-.94-2.7-1.7-3.72c-.76-1.02-1.71-1.8-2.85-2.33s-2.49-.79-4.04-.79-3,.28-4.17.83c-1.18.56-2.14,1.34-2.9,2.34-.76,1-1.32,2.19-1.7,3.57s-.56,2.88-.56,4.5l-2.49-.3c0-3.19.54-5.83,1.63-7.9,1.09-2.07,2.55-3.6,4.39-4.6,1.84-.99,3.92-1.49,6.21-1.49,1.62,0,3.08.24,4.37.71,1.29.47,2.4,1.15,3.35,2.01.95.87,1.73,1.89,2.35,3.07.62,1.18,1.08,2.47,1.38,3.87.3,1.41.45,2.87.45,4.41v16.18h-3.18Z"/>
    <path class="cls-1" d="m545.25,293.84c-2.94,0-5.43-.67-7.47-2s-3.6-3.18-4.68-5.53c-1.08-2.35-1.61-5.06-1.61-8.13s.55-5.8,1.64-8.14c1.09-2.34,2.67-4.17,4.72-5.46,2.05-1.29,4.52-1.94,7.41-1.94s5.43.66,7.49,1.98c2.05,1.32,3.61,3.15,4.68,5.49,1.07,2.34,1.6,5.03,1.6,8.08s-.54,5.85-1.62,8.2c-1.08,2.35-2.65,4.17-4.71,5.49-2.06,1.31-4.54,1.97-7.45,1.97Zm0-3.07c3.49,0,6.09-1.17,7.82-3.5,1.72-2.34,2.59-5.37,2.59-9.09s-.87-6.83-2.6-9.09c-1.73-2.26-4.33-3.39-7.8-3.39-2.35,0-4.3.53-5.83,1.6-1.53,1.07-2.68,2.54-3.44,4.41-.76,1.87-1.14,4.03-1.14,6.47,0,3.8.88,6.84,2.64,9.14,1.76,2.3,4.35,3.45,7.76,3.45Z"/>
    <path class="cls-1" d="m565.59,257.49v-4.02h3.15v4.02h-3.15Zm0,35.53v-29.57h3.15v29.57h-3.15Z"/>
    <path class="cls-1" d="m573.66,293.02l11.8-14.95-11.53-14.62h3.83l9.55,12.24,9.5-12.24h3.83l-11.53,14.62,11.8,14.95h-3.89l-9.72-12.57-9.77,12.57h-3.89Z"/>
  </g>
  <g>
    <path class="cls-1" d="m191.78,0v2.46c-10.12,5.22-19.33,21.17-19.33,34.37v177.97h-4.6L21.79,27.93v150.05c0,13.19,9.21,29.46,19.64,34.67v2.15H0v-2.15c10.43-5.22,19.64-21.48,19.64-34.67V25.16L0,0h30.99l139,176.13V36.82c0-13.2-9.21-29.15-19.33-34.37V0h41.12Z"/>
    <path class="cls-1" d="m397.98,210.48h-40.26v-55.8c-10.36,35.08-32.29,58.19-70.55,58.19-32.68,0-64.57-15.54-69.75-44.24-6.78-40.65,17.54-64.57,48.23-77.33-10.36-23.12,1.99-72.54,55.4-72.54,33.08,0,68.16,17.54,68.16,66.56v98.85c0,13.95,2.79,19.93,8.77,23.52v2.79Zm-40.26-62.98v-61.38c-1.99-.8-11.56-3.59-23.92-3.59-43.45,0-102.44,21.53-85.3,91.68,5.18,21.52,28.3,34.68,48.23,33.48,34.68-1.99,53.01-31.49,60.99-60.19Zm-88.09-57.8c21.52-7.97,45.44-10.76,64.17-10.76,9.17,0,17.14,1.59,23.92,3.59v-2.79c0-30.29-11.96-57-40.26-57-35.87,0-59.79,34.68-47.83,66.96Z"/>
    <path class="cls-1" d="m571.35,42.27l-24.31,34.28-2.79-1.6c-.8-22.72-11.96-52.21-33.48-49.02-39.06,5.98-44.24,108.81-44.24,142.69v15.54c0,13.95,2.79,19.93,8.77,23.52v2.79h-49.43v-2.79c6.38-3.59,9.17-9.57,9.17-23.52V49.44c0-13.95-1.2-17.94-9.17-19.13v-2.79l37.47-8.77h3.19v106.82c3.99-48.23,15.15-106.82,57.4-106.82,21.52,0,33.88,7.57,47.43,23.52Z"/>
    <path class="cls-1" d="m737.15,210.48h-40.26v-55.8c-10.36,35.08-32.29,58.19-70.55,58.19-32.68,0-64.57-15.54-69.75-44.24-6.78-40.65,17.54-64.57,48.23-77.33-10.36-23.12,1.99-72.54,55.4-72.54,33.08,0,68.16,17.54,68.16,66.56v98.85c0,13.95,2.79,19.93,8.77,23.52v2.79Zm-40.26-62.98v-61.38c-1.99-.8-11.56-3.59-23.91-3.59-43.45,0-102.44,21.53-85.3,91.68,5.18,21.52,28.3,34.68,48.23,33.48,34.68-1.99,53.01-31.49,60.98-60.19Zm-88.09-57.8c21.52-7.97,45.44-10.76,64.17-10.76,9.17,0,17.14,1.59,23.91,3.59v-2.79c0-30.29-11.96-57-40.25-57-35.88,0-59.79,34.68-47.83,66.96Z"/>
  </g>
</svg>