<?xml version="1.0" encoding="UTF-8"?>
<svg id="Layer_1" data-name="Layer 1" xmlns="http://www.w3.org/2000/svg" viewBox="0 0 609.2 365.43">
  <defs>
    <style>
      .cls-1 {
        fill: #bb573e;
      }
    </style>
  </defs>
  <polygon class="cls-1" points="501.21 55.15 501.21 14.73 537.96 14.73 537.96 78.27 501.21 55.15"/>
  <g>
    <path class="cls-1" d="m62.74,263.56c-2.12.23-4.01.23-6.13.23-37.74,0-56.61-29.49-56.61-70.06,0-49.77,28.54-91.76,76.19-91.76,37.74,0,56.38,28.31,56.38,68.88,0,38.45-14.63,71.95-43.64,85.87l13.21,30.19h-33.97l-5.43-23.35Zm33.74-87.75c0-23.83-6.13-44.11-23.12-44.11-25.01,0-37.27,35.15-37.27,60.16,0,23.59,6.37,42.22,23.35,42.22,24.53,0,37.04-33.73,37.04-58.27Z"/>
    <path class="cls-1" d="m206.42,243.04c-10.85,14.86-23.59,20.76-36.1,20.76-18.87,0-26.42-11.55-22.65-44.58l7.55-67.7s1.89-16.51,0-24.77l33.97-4.95-9.44,95.77c-1.41,13.21,0,18.16,7.55,18.16,5.43,0,14.15-5.89,21.47-16.27l8.73-92.71,32.08-4.95-9.44,99.08s-1.89,29.72,0,39.63l-35.85,4.95,2.12-22.41Z"/>
    <path class="cls-1" d="m275.08,149.86c.71-8.26,1.89-14.86,0-23.12l34.68-4.95-12.98,140.36h-32.08l10.38-112.29Zm.94-53.61c0-8.74,11.32-15.74,20.76-15.74s15.1,3.5,15.1,12.24c0,12.24-11.33,17.48-20.77,17.48-11.32,0-15.09-5.24-15.09-13.98Z"/>
    <path class="cls-1" d="m319.66,212.61c0-46.24,26.43-87.52,71.72-87.52,7.55,0,15.1,1.65,20.76,3.3l-5.66,28.07c-5.67-4.95-11.33-4.95-15.1-4.95-20.77,0-39.63,24.77-39.63,56.15,0,21.46,5.66,29.72,18.87,29.72,6.38,0,20.77-4.95,30.19-13.21l-3.77,29.72c-9.44,4.95-15.1,9.9-33.96,9.9-28.31,0-43.41-16.51-43.41-51.18Z"/>
    <path class="cls-1" d="m429.13,125.09s1.89-33.03,0-39.63l35.86-4.95-16.99,181.64h-32.08l13.21-137.05Zm26.43,62.75l5.66-3.3,33.97-57.8h33.96l-39.63,59.44,28.31,75.96h-35.85l-26.42-74.3Z"/>
  </g>
  <polygon class="cls-1" points="586.86 262.36 507.8 262.36 507.8 242.51 567.02 242.51 567.02 108.28 432.09 23.38 324.83 89.51 314.41 72.62 432.2 0 586.86 97.32 586.86 262.36"/>
  <g>
    <path class="cls-1" d="m53.14,318.21v46.82h-4.88v-21.61h-29.3v21.61h-4.95v-46.82h4.95v20.87h29.3v-20.87h4.88Z"/>
    <path class="cls-1" d="m76.25,362.32c-3.77-2.07-6.71-4.92-8.83-8.53-2.12-3.61-3.18-7.67-3.18-12.17s1.06-8.56,3.18-12.17c2.12-3.61,5.06-6.46,8.83-8.53,3.77-2.07,7.97-3.11,12.61-3.11s8.82,1.03,12.54,3.08c3.72,2.05,6.66,4.89,8.8,8.53,2.14,3.63,3.21,7.7,3.21,12.21s-1.07,8.57-3.21,12.21c-2.14,3.64-5.07,6.48-8.8,8.53-3.72,2.05-7.9,3.08-12.54,3.08s-8.84-1.04-12.61-3.11Zm22.64-3.81c2.99-1.67,5.33-3.99,7.02-6.96,1.69-2.97,2.54-6.28,2.54-9.93s-.85-6.97-2.54-9.93c-1.7-2.97-4.04-5.28-7.02-6.96-2.99-1.67-6.33-2.51-10.03-2.51s-7.06.84-10.07,2.51c-3.01,1.67-5.37,3.99-7.09,6.96-1.72,2.97-2.57,6.28-2.57,9.93s.86,6.97,2.57,9.93c1.72,2.97,4.08,5.28,7.09,6.96,3.01,1.67,6.36,2.51,10.07,2.51s7.05-.84,10.03-2.51Z"/>
    <path class="cls-1" d="m173.14,318.21v46.82h-4.75v-37.46l-18.4,31.51h-2.34l-18.4-31.31v37.26h-4.75v-46.82h4.08l20.34,34.72,20.13-34.72h4.08Z"/>
    <path class="cls-1" d="m221.5,360.75v4.28h-33.11v-46.82h32.11v4.28h-27.16v16.66h24.21v4.21h-24.21v17.39h28.16Z"/>
    <path class="cls-1" d="m236.05,363.76c-3.19-1.11-5.65-2.59-7.39-4.42l1.94-3.81c1.69,1.7,3.95,3.07,6.76,4.11,2.81,1.05,5.71,1.57,8.7,1.57,4.19,0,7.33-.77,9.43-2.31,2.1-1.54,3.14-3.53,3.14-5.99,0-1.87-.57-3.37-1.71-4.48-1.14-1.11-2.53-1.97-4.18-2.57-1.65-.6-3.95-1.26-6.89-1.97-3.52-.89-6.33-1.75-8.43-2.57-2.1-.83-3.89-2.08-5.39-3.78-1.49-1.69-2.24-3.99-2.24-6.89,0-2.36.62-4.51,1.87-6.46,1.25-1.94,3.17-3.49,5.75-4.65,2.59-1.16,5.8-1.74,9.63-1.74,2.67,0,5.29.37,7.86,1.1,2.56.74,4.78,1.75,6.66,3.04l-1.67,3.95c-1.96-1.29-4.06-2.26-6.29-2.91-2.23-.65-4.42-.97-6.55-.97-4.1,0-7.19.79-9.27,2.38-2.07,1.58-3.11,3.62-3.11,6.12,0,1.87.57,3.38,1.71,4.51,1.14,1.14,2.56,2.01,4.28,2.61,1.72.6,4.02,1.26,6.92,1.97,3.43.85,6.21,1.68,8.33,2.51,2.12.83,3.91,2.07,5.39,3.75,1.47,1.67,2.21,3.94,2.21,6.79,0,2.36-.64,4.51-1.91,6.46-1.27,1.94-3.22,3.48-5.85,4.62-2.63,1.14-5.86,1.71-9.7,1.71-3.48,0-6.81-.56-10-1.67Z"/>
    <path class="cls-1" d="m323.78,365.03l-10.7-15.05c-1.2.13-2.45.2-3.75.2h-12.57v14.85h-4.95v-46.82h17.52c5.98,0,10.66,1.43,14.05,4.28,3.39,2.85,5.08,6.78,5.08,11.77,0,3.66-.93,6.75-2.78,9.26-1.85,2.52-4.49,4.34-7.93,5.45l11.44,16.05h-5.42Zm-3.95-22.14c2.45-2.05,3.68-4.93,3.68-8.63s-1.23-6.7-3.68-8.73c-2.45-2.03-6-3.04-10.63-3.04h-12.44v23.48h12.44c4.64,0,8.18-1.03,10.63-3.08Z"/>
    <path class="cls-1" d="m404.45,318.21l-15.79,46.82h-5.22l-13.71-39.93-13.78,39.93h-5.15l-15.79-46.82h5.08l13.51,40.27,13.98-40.27h4.62l13.78,40.47,13.71-40.47h4.75Z"/>
    <path class="cls-1" d="m441.44,352.52h-26.09l-5.62,12.51h-5.15l21.41-46.82h4.88l21.41,46.82h-5.22l-5.62-12.51Zm-1.81-4.01l-11.24-25.15-11.24,25.15h22.48Z"/>
    <path class="cls-1" d="m499.17,318.21v46.82h-4.08l-30.1-37.99v37.99h-4.95v-46.82h4.08l30.17,37.99v-37.99h4.88Z"/>
    <path class="cls-1" d="m514.42,318.21h19.06c4.95,0,9.32.99,13.11,2.98,3.79,1.98,6.73,4.75,8.83,8.29,2.1,3.54,3.14,7.59,3.14,12.14s-1.05,8.59-3.14,12.14c-2.1,3.54-5.04,6.31-8.83,8.29-3.79,1.98-8.16,2.98-13.11,2.98h-19.06v-46.82Zm18.8,42.54c4.1,0,7.69-.81,10.77-2.44,3.08-1.63,5.46-3.88,7.16-6.76,1.69-2.88,2.54-6.19,2.54-9.93s-.85-7.06-2.54-9.93c-1.69-2.88-4.08-5.13-7.16-6.76-3.08-1.63-6.67-2.44-10.77-2.44h-13.85v38.26h13.85Z"/>
    <path class="cls-1" d="m598.36,352.52h-26.09l-5.62,12.51h-5.15l21.41-46.82h4.88l21.41,46.82h-5.22l-5.62-12.51Zm-1.81-4.01l-11.24-25.15-11.24,25.15h22.48Z"/>
  </g>
</svg>